<?xml version="1.0" encoding="utf-8"?>
<svg xmlns="http://www.w3.org/2000/svg" version="1.2" viewBox="0 0 700.00003 315.99972">
	<title>A music sheet composed of three lines and three staffs each depicting the melody of the “Ting, Ting, Ting.”</title>
	<path d="M -4.2188e-05 20.6127 L 700 20.6127" style="fill:none;stroke:#000000;stroke-linejoin:bevel;stroke-width:0.9900398732282082"/>
	<path d="M -4.2188e-05 32.998 L 700 32.998" style="fill:none;stroke:#000000;stroke-linejoin:bevel;stroke-width:0.9900398732282082"/>
	<path d="M -4.2188e-05 45.3836 L 700 45.3836" style="fill:none;stroke:#000000;stroke-linejoin:bevel;stroke-width:0.9900398732282082"/>
	<path d="M -4.2188e-05 57.7692 L 700 57.7692" style="fill:none;stroke:#000000;stroke-linejoin:bevel;stroke-width:0.9900398732282082"/>
	<path d="M -4.2188e-05 70.1548 L 700 70.1548" style="fill:none;stroke:#000000;stroke-linejoin:bevel;stroke-width:0.9900398732282082"/>
	<path d="M 250.099 20.1173 L 250.099 70.6484" style="fill:none;stroke:#000000;stroke-linejoin:bevel;stroke-width:1.9826782763074091"/>
	<path d="M 398.221 20.1173 L 398.221 70.6484" style="fill:none;stroke:#000000;stroke-linejoin:bevel;stroke-width:1.9826782763074091"/>
	<path d="M 572.577 20.1173 L 572.577 70.6484" style="fill:none;stroke:#000000;stroke-linejoin:bevel;stroke-width:1.9826782763074091"/>
	<path d="M 699.007 20.1173 L 699.007 70.6484" style="fill:none;stroke:#000000;stroke-linejoin:bevel;stroke-width:1.9826782763074091"/>
	<path d="M 644.047 82.5378 L 668.695 82.5378" style="fill:none;stroke:#000000;stroke-linecap:square;stroke-linejoin:bevel;stroke-width:1.9826782763074091"/>
	<path d="M 92.6967 61.6345 L 92.6967 20.6127" style="fill:none;stroke:#000000;stroke-linecap:round;stroke-linejoin:bevel;stroke-width:1.6110885076154569"/>
	<path d="M 148.641 61.6345 L 148.641 20.6127" style="fill:none;stroke:#000000;stroke-linecap:round;stroke-linejoin:bevel;stroke-width:1.6110885076154569"/>
	<path d="M 165.26 41.5157 L 165.26 79.4414" style="fill:none;stroke:#000000;stroke-linecap:round;stroke-linejoin:bevel;stroke-width:1.6110885076154569"/>
	<path d="M 221.204 41.5157 L 221.204 82.5378" style="fill:none;stroke:#000000;stroke-linecap:round;stroke-linejoin:bevel;stroke-width:1.6110885076154569"/>
	<path d="M 264.292 47.7085 L 264.292 84.086" style="fill:none;stroke:#000000;stroke-linecap:round;stroke-linejoin:bevel;stroke-width:1.6110885076154569"/>
	<path d="M 312.433 49.2489 L 312.433 11.3237" style="fill:none;stroke:#000000;stroke-linecap:round;stroke-linejoin:bevel;stroke-width:1.6110885076154569"/>
	<path d="M 345.869 55.4417 L 345.869 15.9681" style="fill:none;stroke:#000000;stroke-linecap:round;stroke-linejoin:bevel;stroke-width:1.6110885076154569"/>
	<path d="M 379.305 61.6345 L 379.305 20.6127" style="fill:none;stroke:#000000;stroke-linecap:round;stroke-linejoin:bevel;stroke-width:1.6110885076154569"/>
	<path d="M 427.116 61.6345 L 427.116 20.6127" style="fill:none;stroke:#000000;stroke-linecap:round;stroke-linejoin:bevel;stroke-width:1.6110885076154569"/>
	<path d="M 475.845 61.6345 L 475.845 20.6127" style="fill:none;stroke:#000000;stroke-linecap:round;stroke-linejoin:bevel;stroke-width:1.6110885076154569"/>
	<path d="M 507.17 61.6345 L 507.17 20.6127" style="fill:none;stroke:#000000;stroke-linecap:round;stroke-linejoin:bevel;stroke-width:1.6110885076154569"/>
	<path d="M 547.134 49.2489 L 547.134 11.3237" style="fill:none;stroke:#000000;stroke-linecap:round;stroke-linejoin:bevel;stroke-width:1.6110885076154569"/>
	<path d="M 601.472 55.4417 L 601.472 15.9681" style="fill:none;stroke:#000000;stroke-linecap:round;stroke-linejoin:bevel;stroke-width:1.6110885076154569"/>
	<path d="M 632.6 67.8273 L 632.6 26.8052" style="fill:none;stroke:#000000;stroke-linecap:round;stroke-linejoin:bevel;stroke-width:1.6110885076154569"/>
	<path d="M 664.172 80.6363 L 664.172 39.1908" style="fill:none;stroke:#000000;stroke-linecap:round;stroke-linejoin:bevel;stroke-width:1.6110885076154569"/>
	<path d="m 88.076564,57.142626 c 1.549207,0 2.858276,0.402532 3.927206,1.207572 0.996647,0.87211 1.495022,1.968736 1.495022,3.289826 0,2.224189 -1.143837,4.303898 -3.431508,6.239099 -2.323814,1.935201 -4.81028,2.902801 -7.459451,2.902801 -1.549208,0 -2.855708,-0.402533 -3.919496,-1.207572 -1.001821,-0.87211 -1.502732,-1.968736 -1.502732,-3.289826 0,-2.22419 1.161905,-4.303898 3.485719,-6.239099 2.261869,-1.935201 4.730241,-2.902801 7.40524,-2.902801" style="stroke-width:0.495579"/>
	<path d="m 144.0203,57.142626 c 1.54921,0 2.85828,0.402532 3.92721,1.207572 0.99665,0.87211 1.49502,1.968736 1.49502,3.289826 0,2.224189 -1.14384,4.303898 -3.43151,6.239099 -2.32381,1.935201 -4.81028,2.902801 -7.45945,2.902801 -1.54921,0 -2.85571,-0.402533 -3.91949,-1.207572 -1.00182,-0.87211 -1.50274,-1.968736 -1.50274,-3.289826 0,-2.22419 1.16191,-4.303898 3.48572,-6.239099 2.26187,-1.935201 4.73024,-2.902801 7.40524,-2.902801" style="stroke-width:0.495579"/>
	<path d="m 175.34528,32.3714 c 1.54921,0 2.85828,0.402522 3.92721,1.207564 0.99665,0.872118 1.49502,1.968731 1.49502,3.289831 0,2.224182 -1.14384,4.303891 -3.43151,6.239092 -2.32381,1.9352 -4.81028,2.902801 -7.45945,2.902801 -1.54921,0 -2.85571,-0.402533 -3.91949,-1.207572 -1.00182,-0.872111 -1.50274,-1.968736 -1.50274,-3.289826 0,-2.22419 1.16191,-4.303898 3.48572,-6.239099 2.26187,-1.935204 4.73024,-2.902791 7.40524,-2.902791" style="stroke-width:0.495579"/>
	<path d="m 231.28902,32.3714 c 1.5492,0 2.85829,0.402522 3.92722,1.207564 0.99664,0.872118 1.49502,1.968731 1.49502,3.289831 0,2.224182 -1.14384,4.303891 -3.43153,6.239092 -2.3238,1.9352 -4.81026,2.902801 -7.45943,2.902801 -1.54922,0 -2.85572,-0.402533 -3.9195,-1.207572 -1.00183,-0.872111 -1.50274,-1.968736 -1.50274,-3.289826 0,-2.22419 1.16191,-4.303898 3.48571,-6.239099 2.26188,-1.935204 4.73025,-2.902791 7.40525,-2.902791" style="stroke-width:0.495579"/>
	<path d="m 274.37712,38.564199 c 1.54919,0 2.85828,0.402532 3.92721,1.207571 0.99664,0.872111 1.49503,1.968737 1.49503,3.289826 0,2.22419 -1.14385,4.303899 -3.43154,6.2391 -2.32379,1.9352 -4.81026,2.902801 -7.45942,2.902801 -1.54923,0 -2.85572,-0.402533 -3.91952,-1.207572 -1.00182,-0.87211 -1.50272,-1.968736 -1.50272,-3.289826 0,-2.22419 1.16191,-4.303898 3.4857,-6.239099 2.26188,-1.935201 4.73025,-2.902801 7.40526,-2.902801" style="stroke-width:0.495579"/>
	<path d="m 307.81334,44.757008 c 1.54919,0 2.85828,0.402532 3.92721,1.207572 0.99664,0.87211 1.49503,1.968736 1.49503,3.289825 0,2.22419 -1.14385,4.303899 -3.43154,6.2391 -2.32379,1.935201 -4.81026,2.902801 -7.45942,2.902801 -1.54922,0 -2.85571,-0.402533 -3.91952,-1.207572 -1.00182,-0.87211 -1.50272,-1.968736 -1.50272,-3.289826 0,-2.22419 1.16191,-4.303898 3.4857,-6.239099 2.26188,-1.935201 4.73026,-2.902801 7.40526,-2.902801" style="stroke-width:0.495579"/>
	<path d="m 341.24696,50.949817 c 1.5492,0 2.85828,0.402532 3.92721,1.207572 0.99664,0.87211 1.49503,1.968736 1.49503,3.289825 0,2.22419 -1.14384,4.303899 -3.43153,6.2391 -2.3238,1.935201 -4.81027,2.902801 -7.45943,2.902801 -1.54922,0 -2.85571,-0.402533 -3.91952,-1.207572 -1.00181,-0.87211 -1.50272,-1.968736 -1.50272,-3.289826 0,-2.22419 1.16191,-4.303898 3.48571,-6.239099 2.26187,-1.935201 4.73025,-2.902801 7.40525,-2.902801" style="stroke-width:0.495579"/>
	<path d="m 374.68318,57.142626 c 1.5492,0 2.85829,0.402532 3.92722,1.207572 0.99664,0.87211 1.49502,1.968736 1.49502,3.289826 0,2.224189 -1.14384,4.303898 -3.43153,6.239099 -2.3238,1.935201 -4.81026,2.902801 -7.45943,2.902801 -1.54922,0 -2.85571,-0.402533 -3.91952,-1.207572 -1.00181,-0.87211 -1.50272,-1.968736 -1.50272,-3.289826 0,-2.22419 1.16191,-4.303898 3.48571,-6.239099 2.26187,-1.935201 4.73025,-2.902801 7.40525,-2.902801" style="stroke-width:0.495579"/>
	<path d="m 422.49674,57.142626 c 1.5492,0 2.85829,0.402532 3.92722,1.207572 0.99664,0.87211 1.49502,1.968736 1.49502,3.289826 0,2.224189 -1.14384,4.303898 -3.43153,6.239099 -2.3238,1.935201 -4.81026,2.902801 -7.45943,2.902801 -1.54922,0 -2.85571,-0.402533 -3.91952,-1.207572 -1.00181,-0.87211 -1.50272,-1.968736 -1.50272,-3.289826 0,-2.22419 1.16191,-4.303898 3.48571,-6.239099 2.26188,-1.935201 4.73025,-2.902801 7.40525,-2.902801" style="stroke-width:0.495579"/>
	<path d="m 471.2253,57.142626 c 1.54919,0 2.85828,0.402532 3.92721,1.207572 0.99664,0.87211 1.49503,1.968736 1.49503,3.289826 0,2.224189 -1.14385,4.303898 -3.43154,6.239099 -2.32379,1.935201 -4.81026,2.902801 -7.45942,2.902801 -1.54922,0 -2.85571,-0.402533 -3.91952,-1.207572 -1.00182,-0.87211 -1.50272,-1.968736 -1.50272,-3.289826 0,-2.22419 1.16191,-4.303898 3.4857,-6.239099 2.26188,-1.935201 4.73026,-2.902801 7.40526,-2.902801" style="stroke-width:0.495579"/>
	<path d="m 502.5508,57.142626 c 1.54919,0 2.85828,0.402532 3.92721,1.207572 0.99664,0.87211 1.49503,1.968736 1.49503,3.289826 0,2.224189 -1.14385,4.303898 -3.43154,6.239099 -2.32379,1.935201 -4.81026,2.902801 -7.45942,2.902801 -1.54922,0 -2.85571,-0.402533 -3.91952,-1.207572 -1.00182,-0.87211 -1.50272,-1.968736 -1.50272,-3.289826 0,-2.22419 1.16191,-4.303898 3.4857,-6.239099 2.26188,-1.935201 4.73025,-2.902801 7.40526,-2.902801" style="stroke-width:0.495579"/>
	<path d="m 542.51154,44.757008 c 1.5492,0 2.85828,0.402532 3.92721,1.207572 0.99664,0.87211 1.49503,1.968736 1.49503,3.289825 0,2.22419 -1.14384,4.303899 -3.43153,6.2391 -2.3238,1.935201 -4.81027,2.902801 -7.45943,2.902801 -1.54922,0 -2.85571,-0.402533 -3.91952,-1.207572 -1.00181,-0.87211 -1.50272,-1.968736 -1.50272,-3.289826 0,-2.22419 1.16191,-4.303898 3.48571,-6.239099 2.26187,-1.935201 4.73025,-2.902801 7.40525,-2.902801" style="stroke-width:0.495579"/>
	<path d="m 596.85222,50.949817 c 1.5492,0 2.85829,0.402532 3.92722,1.207572 0.99664,0.87211 1.49502,1.968736 1.49502,3.289825 0,2.22419 -1.14384,4.303899 -3.43153,6.2391 -2.3238,1.935201 -4.81026,2.902801 -7.45943,2.902801 -1.54922,0 -2.85571,-0.402533 -3.91952,-1.207572 -1.00181,-0.87211 -1.50272,-1.968736 -1.50272,-3.289826 0,-2.22419 1.16191,-4.303898 3.48571,-6.239099 2.26188,-1.935201 4.73025,-2.902801 7.40525,-2.902801" style="stroke-width:0.495579"/>
	<path d="m 627.97757,63.335435 c 1.54919,0 2.85828,0.402532 3.92721,1.207572 0.99664,0.87211 1.49503,1.968736 1.49503,3.289826 0,2.22419 -1.14385,4.303898 -3.43154,6.239099 -2.32379,1.935201 -4.81026,2.902801 -7.45942,2.902801 -1.54922,0 -2.85571,-0.402532 -3.91952,-1.207572 -1.00182,-0.87211 -1.50272,-1.968736 -1.50272,-3.289826 0,-2.22419 1.16191,-4.303898 3.4857,-6.239099 2.26188,-1.935201 4.73025,-2.902801 7.40526,-2.902801" style="stroke-width:0.495579"/>
	<path d="m 663.40673,79.294699 c 0,-0.547015 -0.20917,-1.014047 -0.62742,-1.401071 -0.42347,-0.418041 -0.90891,-0.626996 -1.45627,-0.626996 -0.9657,0 -2.91771,0.967574 -5.856,2.902775 -3.03648,1.966165 -4.89293,3.369834 -5.56942,4.211006 -0.35633,0.448979 -0.53449,0.916011 -0.53449,1.401097 0,0.547014 0.21172,1.014047 0.63519,1.401071 0.38729,0.418041 0.87013,0.626996 1.44849,0.626996 0.9347,0 2.90479,-0.967574 5.91026,-2.902775 2.96928,-1.935201 4.80771,-3.33887 5.5152,-4.211006 0.35627,-0.418015 0.53446,-0.885047 0.53446,-1.401097 m -2.56395,-3.576244 c 2.7731,0 4.1596,1.192064 4.1596,3.576244 0,1.161125 -0.33824,2.515776 -1.01468,4.063927 -0.6765,1.517212 -1.58021,2.678312 -2.71116,3.483377 -2.48387,1.67715 -5.59781,2.515751 -9.34171,2.515751 -2.77825,0 -4.16738,-1.192064 -4.16738,-3.576244 0,-1.06309 0.33824,-2.402233 1.01473,-4.017481 0.64552,-1.548176 1.54923,-2.724758 2.71111,-3.529823 2.48909,-1.67715 5.60555,-2.515751 9.34949,-2.515751" style="stroke-width:0.495579"/>
	<path d="m 28.118154,45.090001 c 0,0 0.09811,0 0.294324,0 0.129094,-0.03096 0.240141,-0.04642 0.333093,-0.04642 3.614785,0 6.58411,1.274643 8.907921,3.82393 2.323814,2.513231 3.485745,5.44697 3.485745,8.801322 0,4.16456 -1.724802,7.552473 -5.174356,10.163688 -0.903695,0.712147 -2.083672,1.292723 -3.539927,1.741675 0.165232,2.095191 0.247872,3.787849 0.247872,5.077948 0,0.258077 -0.03361,1.194687 -0.100735,2.809935 -0.129092,2.998291 -1.161882,5.59405 -3.098417,7.787276 -1.869361,2.162236 -4.193174,3.243379 -6.971438,3.243379 -2.612979,0 -4.838683,-0.918556 -6.677062,-2.755748 -1.843567,-1.873246 -2.765349,-4.130972 -2.765349,-6.773151 0,-1.388212 0.53448,-2.567392 1.603433,-3.53759 1.094792,-0.965029 2.36772,-1.447491 3.818821,-1.447491 1.290974,0 2.372841,0.500542 3.245554,1.501678 0.903695,0.934065 1.355569,2.095191 1.355569,3.483403 0,1.253966 -0.451874,2.332538 -1.355569,3.235613 -0.903696,0.903101 -1.985565,1.354651 -3.245554,1.354651 -0.51642,0 -1.014743,-0.09546 -1.495023,-0.286391 1.420115,2.095138 3.307571,3.142746 5.662369,3.142746 2.225704,0 4.048614,-0.903074 5.468729,-2.70925 1.48724,-1.868155 2.295407,-4.045873 2.424499,-6.533257 0.06197,-1.548151 0.09295,-2.433198 0.09295,-2.655089 0,-1.806228 -0.06455,-3.289852 -0.193638,-4.450978 -1.611177,0.257999 -3.046811,0.387051 -4.3068,0.387051 -4.487548,0 -8.311541,-1.775264 -11.47191,-5.32566 -3.098417,-3.581465 -4.647627,-7.838891 -4.647627,-12.772383 0,-1.032074 0.09553,-2.079683 0.286604,-3.142773 0.196232,-0.872136 0.438944,-1.824203 0.728128,-2.856355 0.160085,-0.583148 0.596448,-1.519784 1.309084,-2.809935 0.2582,-0.386999 0.548676,-0.870812 0.871427,-1.451336 0.322751,-0.580576 0.548678,-0.966353 0.677781,-1.157281 0.320166,-0.645076 0.947594,-1.517212 1.882285,-2.616384 0.258184,-0.28902 0.525442,-0.610246 0.801721,-0.963722 0.276281,-0.353525 0.511215,-0.643787 0.704903,-0.870885 0.193638,-0.227045 0.338248,-0.405096 0.433779,-0.534103 0.09553,-0.129005 0.822344,-0.983093 2.18049,-2.562218 0.320154,-0.325091 0.633863,-0.672125 0.941127,-1.041109 0.307263,-0.368984 0.557714,-0.659243 0.751401,-0.870835 0.193641,-0.21159 0.339538,-0.36383 0.437647,-0.45672 -1.161931,-3.83944 -1.890034,-6.9048 -2.184409,-9.19608 -0.222045,-1.837136 -0.333042,-4.352937 -0.333042,-7.547301 0,-2.807299 0.645462,-5.4365982 1.936486,-7.8879946 C 22.695926,3.8419159 24.454241,1.7621789 26.716084,0.14664021 26.845176,0.04904372 27.005302,0 27.196362,0 c 0.227201,0 0.389857,0.04904372 0.488013,0.14664021 1.740269,2.09559309 3.2404,4.82035629 4.500438,8.17454169 1.290974,3.3543331 1.936486,6.4042371 1.936486,9.1496101 0,3.096324 -0.741043,5.999139 -2.223076,8.708448 -1.678351,2.869227 -3.842036,5.836544 -6.491207,8.901904 0.676494,2.126159 1.580192,5.462468 2.711138,10.008857 m 4.11311,22.502548 c 1.678302,-0.614111 2.98742,-1.661667 3.927255,-3.142746 1.03279,-1.419151 1.54921,-3.016345 1.54921,-4.791582 0,-2.291288 -0.774606,-4.324524 -2.323813,-6.099761 -1.585347,-1.83714 -3.604473,-2.869266 -6.057379,-3.096327 1.389081,6.806765 2.357375,12.516878 2.904727,17.130416 M 13.501353,56.414815 c 0,3.194388 1.291002,6.001725 3.873031,8.421986 2.643965,2.353216 5.613287,3.529824 8.907921,3.529824 1.352993,0 2.674999,-0.09804 3.965973,-0.294133 -0.51637,-4.902554 -1.533691,-10.77263 -3.051916,-17.610359 -1.838426,0.196097 -3.304993,0.841173 -4.39975,1.935175 -1.068979,1.130188 -1.603444,2.404857 -1.603444,3.824008 0,2.451251 1.309068,4.435469 3.927255,5.952681 0.222047,0.227061 0.333093,0.469604 0.333093,0.72763 0,0.258025 -0.111046,0.497996 -0.333093,0.719888 -0.196266,0.227061 -0.438934,0.340604 -0.728152,0.340604 -0.03098,0 -0.175544,-0.03096 -0.433777,-0.09289 -1.843533,-1.001136 -3.263649,-2.291287 -4.260299,-3.870402 -0.939885,-1.682345 -1.409804,-3.377574 -1.409804,-5.085714 0,-2.22419 0.694592,-4.239373 2.083722,-6.0456 1.451051,-1.806176 3.338506,-2.967275 5.66232,-3.483325 -0.903698,-3.612403 -1.644741,-6.435223 -2.223079,-8.468482 -0.516417,0.58315 -1.13739,1.284997 -1.862966,2.1055 -0.725524,0.820547 -1.152857,1.313374 -1.281949,1.478507 -1.161882,1.512043 -2.050111,2.688651 -2.66464,3.529798 -1.099913,1.517212 -1.908129,2.822819 -2.424497,3.916873 -0.547405,1.228197 -1.030237,2.567392 -1.448524,4.017455 -0.418284,1.388213 -0.627425,2.871864 -0.627425,4.450978 M 29.667362,7.2141835 c -2.42197,1.1921599 -4.324892,2.9002895 -5.708868,5.1244895 -1.420118,2.29128 -2.130126,4.757984 -2.130126,7.400215 0,2.322241 0.580916,5.452103 1.742848,9.389587 2.323813,-2.807351 4.066658,-5.403109 5.22859,-7.787278 1.223849,-2.518325 1.8358,-5.147625 1.8358,-7.887847 0,-2.064231 -0.322782,-4.1439215 -0.968244,-6.2391665" style="stroke-width:0.495579"/>
	<path d="m 56.077601,43.348014 v 3.823955 c 0,1.357223 0.06455,2.438367 0.193654,3.243432 1.063788,-0.903126 1.822899,-1.57914 2.277336,-2.028119 0.516404,-0.51605 1.032824,-1.226924 1.549194,-2.132596 0.51642,-0.905673 0.774604,-1.810046 0.774604,-2.713147 0,-0.903101 -0.193638,-1.677176 -0.580917,-2.322251 -0.387327,-0.64505 -0.903744,-0.967601 -1.549233,-0.967601 -0.774603,0 -1.420105,0.291587 -1.936509,0.874709 -0.485422,0.645075 -0.728129,1.385615 -0.728129,2.221618 m -2.037207,8.855483 -0.62743,-29.461502 c 0.454434,-0.258059 0.907579,-0.387064 1.359432,-0.387064 0.451853,0 0.902411,0.129005 1.351683,0.387064 l -0.387305,17.076196 c 1.321993,-1.130136 2.840218,-1.695246 4.554698,-1.695246 1.254835,0 2.301852,0.516066 3.141001,1.548166 0.839152,1.032127 1.258752,2.211306 1.258752,3.537565 0,0.836003 -0.273703,1.723621 -0.821107,2.662856 -0.516417,0.866967 -1.063773,1.54298 -1.64216,2.028093 -0.325308,0.258025 -1.148991,0.903074 -2.471,1.9352 -0.387276,0.28899 -0.846883,0.626996 -1.378779,1.014047 -0.531897,0.387024 -0.862396,0.629594 -0.991494,0.727629 -0.227222,0.129 -0.438944,0.387051 -0.635176,0.774075 -0.222055,0.325149 -0.480254,0.598604 -0.774604,0.820547 -0.222054,0.196097 -0.494457,0.294133 -0.817208,0.294133 -0.32275,0 -0.582244,-0.113544 -0.778476,-0.340605 -0.22722,-0.227035 -0.340827,-0.534103 -0.340827,-0.921154" style="stroke-width:0.495579"/>
	<path d="M 147.83525,32.998165 V 20.612871 h 1.54921 c 0,1.83715 0.35632,3.676887 1.06895,5.519186 0.77461,1.997152 1.62925,3.738822 2.56393,5.225058 0.6765,1.063053 1.69382,2.691224 3.05197,4.884461 1.03278,1.677168 1.90421,3.434341 2.61426,5.27148 0.71006,1.83714 1.06512,3.676903 1.06512,5.519186 0,3.354377 -0.69459,6.773229 -2.08373,10.256606 -0.25818,0.387024 -0.56544,0.580524 -0.92174,0.580524 -0.3202,0 -0.60937,-0.129 -0.86755,-0.387025 -0.19627,-0.196123 -0.29438,-0.43864 -0.29438,-0.727655 v -0.239919 c 1.38913,-3.194414 2.08367,-6.355241 2.08367,-9.482531 0,-1.615248 -0.48538,-3.356924 -1.45625,-5.225001 -0.96567,-1.904263 -1.94943,-3.421475 -2.95123,-4.551606 -1.13092,-1.321115 -2.42193,-2.740271 -3.87302,-4.25747 h -1.54921" style="stroke-width:0.495579"/>
	<path d="m 231.67631,46.690416 c 0.74361,0 1.5363,1.207546 2.37804,3.62269 0.80559,2.389322 1.20837,4.665154 1.20837,6.827416 0,1.837139 -0.45186,3.658822 -1.35557,5.464998 -0.93467,1.935227 -2.04753,3.612377 -3.33855,5.031553 l -3.9737,4.450926 c -1.22385,1.419151 -2.32125,3.062765 -3.29207,4.93092 -0.90371,1.806176 -1.35556,3.645913 -1.35556,5.519185 h -1.54921 v -12.38528 h 1.54921 c 0.87272,-0.54704 2.16374,-1.419177 3.87303,-2.616436 0.7746,-0.577952 1.93654,-1.545526 3.48574,-2.902749 1.25998,-1.161152 2.21277,-2.353216 2.85828,-3.576295 0.6765,-1.2901 1.01473,-2.595759 1.01473,-3.916822 0,-3.065363 -0.88821,-6.115269 -2.66463,-9.149668 0,0 0,-0.0645 0,-0.193499 0,-0.288963 0.0981,-0.528961 0.29434,-0.719888 0.25817,-0.258051 0.54738,-0.387051 0.86755,-0.387051" style="stroke-width:0.495579"/>
	<path d="M 475.0392,32.998165 V 20.612871 h 1.5492 c 0,1.83715 0.35633,3.676887 1.06896,5.519186 0.77462,1.997152 1.62926,3.738822 2.56393,5.225058 0.67649,1.063053 1.69382,2.691224 3.05196,4.884461 1.0328,1.677168 1.90423,3.434341 2.61428,5.27148 0.71006,1.83714 1.06511,3.676903 1.06511,5.519186 0,3.354377 -0.69459,6.773229 -2.08371,10.256606 -0.2582,0.387024 -0.56545,0.580524 -0.92175,0.580524 -0.3202,0 -0.60938,-0.129 -0.86756,-0.387025 -0.19628,-0.196123 -0.29438,-0.43864 -0.29438,-0.727655 v -0.239919 c 1.38913,-3.194414 2.08369,-6.355241 2.08369,-9.482531 0,-1.615248 -0.48539,-3.356924 -1.45627,-5.225001 -0.96565,-1.904263 -1.94943,-3.421475 -2.95121,-4.551606 -1.13093,-1.321115 -2.42195,-2.740271 -3.87305,-4.25747 h -1.5492" style="stroke-width:0.495579"/>
	<path d="m 98.665215,65.947792 c -0.549968,-0.549585 -0.824952,-1.211442 -0.824952,-1.985517 0,-0.774075 0.274984,-1.435932 0.824952,-1.985518 0.549973,-0.549585 1.212258,-0.824391 1.986865,-0.824391 0.7746,0 1.4356,0.274806 1.98299,0.824391 0.54736,0.549586 0.82106,1.211443 0.82106,1.985518 0,0.774075 -0.2737,1.435932 -0.82106,1.985517 -0.54739,0.549586 -1.20839,0.824392 -1.98299,0.824392 -0.774607,0 -1.436892,-0.274806 -1.986865,-0.824392" style="stroke-width:0.495579"/>
	<path d="m 185.93419,41.176556 c -0.54996,-0.549586 -0.82495,-1.211442 -0.82495,-1.985517 0,-0.774075 0.27499,-1.435921 0.82495,-1.985515 0.54998,-0.549601 1.21226,-0.824402 1.98687,-0.824402 0.7746,0 1.4356,0.274801 1.98299,0.824402 0.54736,0.549594 0.82106,1.21144 0.82106,1.985515 0,0.774075 -0.2737,1.435931 -0.82106,1.985517 -0.54739,0.549586 -1.20839,0.824392 -1.98299,0.824392 -0.77461,0 -1.43689,-0.274806 -1.98687,-0.824392" style="stroke-width:0.495579"/>
	<path d="m 433.08565,65.947792 c -0.54996,-0.549585 -0.82495,-1.211442 -0.82495,-1.985517 0,-0.774075 0.27499,-1.435932 0.82495,-1.985518 0.54998,-0.549585 1.21226,-0.824391 1.98686,-0.824391 0.7746,0 1.4356,0.274806 1.98299,0.824391 0.54735,0.549586 0.82107,1.211443 0.82107,1.985518 0,0.774075 -0.27372,1.435932 -0.82107,1.985517 -0.54739,0.549586 -1.20839,0.824392 -1.98299,0.824392 -0.7746,0 -1.43688,-0.274806 -1.98686,-0.824392" style="stroke-width:0.495579"/>
	<path d="M -4.2188e-05 133.889 L 700 133.889" style="fill:none;stroke:#000000;stroke-linejoin:bevel;stroke-width:0.9900398732282082"/>
	<path d="M -4.2188e-05 146.274 L 700 146.274" style="fill:none;stroke:#000000;stroke-linejoin:bevel;stroke-width:0.9900398732282082"/>
	<path d="M -4.2188e-05 158.657 L 700 158.657" style="fill:none;stroke:#000000;stroke-linejoin:bevel;stroke-width:0.9900398732282082"/>
	<path d="M -4.2188e-05 171.043 L 700 171.043" style="fill:none;stroke:#000000;stroke-linejoin:bevel;stroke-width:0.9900398732282082"/>
	<path d="M -4.2188e-05 183.428 L 700 183.428" style="fill:none;stroke:#000000;stroke-linejoin:bevel;stroke-width:0.9900398732282082"/>
	<path d="M 264.042 133.392 L 264.042 183.924" style="fill:none;stroke:#000000;stroke-linejoin:bevel;stroke-width:1.9826782763074091"/>
	<path d="M 407.514 133.392 L 407.514 183.924" style="fill:none;stroke:#000000;stroke-linejoin:bevel;stroke-width:1.9826782763074091"/>
	<path d="M 577.224 133.392 L 577.224 183.924" style="fill:none;stroke:#000000;stroke-linejoin:bevel;stroke-width:1.9826782763074091"/>
	<path d="M 699.007 133.392 L 699.007 183.924" style="fill:none;stroke:#000000;stroke-linejoin:bevel;stroke-width:1.9826782763074091"/>
	<path d="M 646.114 195.814 L 670.762 195.814" style="fill:none;stroke:#000000;stroke-linecap:square;stroke-linejoin:bevel;stroke-width:1.9826782763074091"/>
	<path d="M 111.287 174.911 L 111.287 133.889" style="fill:none;stroke:#000000;stroke-linecap:round;stroke-linejoin:bevel;stroke-width:1.6110885076154569"/>
	<path d="M 164.907 174.911 L 164.907 133.889" style="fill:none;stroke:#000000;stroke-linecap:round;stroke-linejoin:bevel;stroke-width:1.6110885076154569"/>
	<path d="M 181.526 154.792 L 181.526 192.718" style="fill:none;stroke:#000000;stroke-linecap:round;stroke-linejoin:bevel;stroke-width:1.6110885076154569"/>
	<path d="M 235.147 154.792 L 235.147 195.814" style="fill:none;stroke:#000000;stroke-linecap:round;stroke-linejoin:bevel;stroke-width:1.6110885076154569"/>
	<path d="M 278.235 160.985 L 278.235 197.362" style="fill:none;stroke:#000000;stroke-linecap:round;stroke-linejoin:bevel;stroke-width:1.6110885076154569"/>
	<path d="M 325.214 162.525 L 325.214 124.599" style="fill:none;stroke:#000000;stroke-linecap:round;stroke-linejoin:bevel;stroke-width:1.6110885076154569"/>
	<path d="M 357.488 168.718 L 357.488 129.244" style="fill:none;stroke:#000000;stroke-linecap:round;stroke-linejoin:bevel;stroke-width:1.6110885076154569"/>
	<path d="M 389.76 174.911 L 389.76 133.889" style="fill:none;stroke:#000000;stroke-linecap:round;stroke-linejoin:bevel;stroke-width:1.6110885076154569"/>
	<path d="M 436.412 174.911 L 436.412 133.889" style="fill:none;stroke:#000000;stroke-linecap:round;stroke-linejoin:bevel;stroke-width:1.6110885076154569"/>
	<path d="M 483.381 174.911 L 483.381 133.889" style="fill:none;stroke:#000000;stroke-linecap:round;stroke-linejoin:bevel;stroke-width:1.6110885076154569"/>
	<path d="M 514.706 174.911 L 514.706 133.889" style="fill:none;stroke:#000000;stroke-linecap:round;stroke-linejoin:bevel;stroke-width:1.6110885076154569"/>
	<path d="M 553.224 162.525 L 553.224 124.599" style="fill:none;stroke:#000000;stroke-linecap:round;stroke-linejoin:bevel;stroke-width:1.6110885076154569"/>
	<path d="M 606.119 168.718 L 606.119 129.244" style="fill:none;stroke:#000000;stroke-linecap:round;stroke-linejoin:bevel;stroke-width:1.6110885076154569"/>
	<path d="M 635.955 181.103 L 635.955 140.081" style="fill:none;stroke:#000000;stroke-linecap:round;stroke-linejoin:bevel;stroke-width:1.6110885076154569"/>
	<path d="M 666.239 193.912 L 666.239 152.467" style="fill:none;stroke:#000000;stroke-linecap:round;stroke-linejoin:bevel;stroke-width:1.6110885076154569"/>
	<path d="m 106.66703,170.41707 c 1.54921,0 2.85828,0.40253 3.92721,1.20757 0.99664,0.87211 1.49502,1.96874 1.49502,3.28982 0,2.22419 -1.14384,4.3039 -3.43151,6.2391 -2.32381,1.9352 -4.81028,2.90281 -7.45945,2.90281 -1.549208,0 -2.855709,-0.40254 -3.919497,-1.20758 -1.00182,-0.87211 -1.502732,-1.96873 -1.502732,-3.28982 0,-2.22419 1.161905,-4.3039 3.485719,-6.2391 2.26187,-1.9352 4.73024,-2.9028 7.40524,-2.9028" style="stroke-width:0.495579"/>
	<path d="m 160.2869,170.41707 c 1.5492,0 2.85827,0.40253 3.9272,1.20757 0.99665,0.87211 1.49502,1.96874 1.49502,3.28982 0,2.22419 -1.14383,4.3039 -3.4315,6.2391 -2.32382,1.9352 -4.81028,2.90281 -7.45945,2.90281 -1.54921,0 -2.85571,-0.40254 -3.9195,-1.20758 -1.00182,-0.87211 -1.50273,-1.96873 -1.50273,-3.28982 0,-2.22419 1.1619,-4.3039 3.48572,-6.2391 2.26187,-1.9352 4.73024,-2.9028 7.40524,-2.9028" style="stroke-width:0.495579"/>
	<path d="m 191.61188,145.64843 c 1.5492,0 2.85827,0.40253 3.9272,1.20757 0.99665,0.87211 1.49502,1.96874 1.49502,3.28983 0,2.22419 -1.14383,4.30389 -3.4315,6.2391 -2.32382,1.9352 -4.81028,2.9028 -7.45946,2.9028 -1.5492,0 -2.8557,-0.40254 -3.91949,-1.20758 -1.00182,-0.87211 -1.50273,-1.96873 -1.50273,-3.28982 0,-2.22419 1.1619,-4.3039 3.48572,-6.2391 2.26187,-1.9352 4.73024,-2.9028 7.40524,-2.9028" style="stroke-width:0.495579"/>
	<path d="m 245.23252,145.64843 c 1.5492,0 2.85829,0.40253 3.92722,1.20757 0.99664,0.87211 1.49502,1.96874 1.49502,3.28983 0,2.22419 -1.14384,4.30389 -3.43153,6.2391 -2.3238,1.9352 -4.81026,2.9028 -7.45943,2.9028 -1.54922,0 -2.85571,-0.40254 -3.91952,-1.20758 -1.00181,-0.87211 -1.50272,-1.96873 -1.50272,-3.28982 0,-2.22419 1.16191,-4.3039 3.48571,-6.2391 2.26188,-1.9352 4.73025,-2.9028 7.40525,-2.9028" style="stroke-width:0.495579"/>
	<path d="m 288.32036,151.83864 c 1.54919,0 2.85828,0.40253 3.92721,1.20757 0.99664,0.87211 1.49503,1.96874 1.49503,3.28983 0,2.22419 -1.14385,4.3039 -3.43154,6.2391 -2.32379,1.9352 -4.81026,2.9028 -7.45942,2.9028 -1.54923,0 -2.85572,-0.40253 -3.91952,-1.20757 -1.00182,-0.87211 -1.50272,-1.96874 -1.50272,-3.28983 0,-2.22419 1.16191,-4.3039 3.4857,-6.2391 2.26188,-1.9352 4.73025,-2.9028 7.40526,-2.9028" style="stroke-width:0.495579"/>
	<path d="m 320.59204,158.03145 c 1.5492,0 2.85829,0.40253 3.92722,1.20757 0.99664,0.87211 1.49502,1.96874 1.49502,3.28983 0,2.22419 -1.14384,4.30389 -3.43153,6.2391 -2.3238,1.9352 -4.81026,2.9028 -7.45943,2.9028 -1.54922,0 -2.85571,-0.40254 -3.91952,-1.20757 -1.00181,-0.87212 -1.50272,-1.96874 -1.50272,-3.28983 0,-2.22419 1.16191,-4.3039 3.48571,-6.2391 2.26187,-1.9352 4.73025,-2.9028 7.40525,-2.9028" style="stroke-width:0.495579"/>
	<path d="m 352.86633,164.22426 c 1.54919,0 2.85828,0.40253 3.92721,1.20757 0.99664,0.87211 1.49503,1.96874 1.49503,3.28983 0,2.22419 -1.14385,4.30389 -3.43154,6.23909 -2.32379,1.93521 -4.81026,2.90281 -7.45942,2.90281 -1.54923,0 -2.85572,-0.40254 -3.91952,-1.20758 -1.00182,-0.87211 -1.50272,-1.96873 -1.50272,-3.28982 0,-2.22419 1.16191,-4.3039 3.4857,-6.2391 2.26188,-1.9352 4.73025,-2.9028 7.40526,-2.9028" style="stroke-width:0.495579"/>
	<path d="m 385.14061,170.41707 c 1.5492,0 2.85829,0.40253 3.92722,1.20757 0.99664,0.87211 1.49502,1.96874 1.49502,3.28982 0,2.22419 -1.14384,4.3039 -3.43153,6.2391 -2.3238,1.9352 -4.81027,2.90281 -7.45943,2.90281 -1.54922,0 -2.85571,-0.40254 -3.91952,-1.20758 -1.00181,-0.87211 -1.50272,-1.96873 -1.50272,-3.28982 0,-2.22419 1.16191,-4.3039 3.48571,-6.2391 2.26187,-1.9352 4.73025,-2.9028 7.40525,-2.9028" style="stroke-width:0.495579"/>
	<path d="m 431.79224,170.41707 c 1.54919,0 2.85828,0.40253 3.92721,1.20757 0.99664,0.87211 1.49503,1.96874 1.49503,3.28982 0,2.22419 -1.14385,4.3039 -3.43154,6.2391 -2.32379,1.9352 -4.81026,2.90281 -7.45942,2.90281 -1.54923,0 -2.85572,-0.40254 -3.91952,-1.20758 -1.00182,-0.87211 -1.50272,-1.96873 -1.50272,-3.28982 0,-2.22419 1.16191,-4.3039 3.4857,-6.2391 2.26188,-1.9352 4.73025,-2.9028 7.40526,-2.9028" style="stroke-width:0.495579"/>
	<path d="m 478.76099,170.41707 c 1.5492,0 2.85829,0.40253 3.92721,1.20757 0.99664,0.87211 1.49503,1.96874 1.49503,3.28982 0,2.22419 -1.14384,4.3039 -3.43153,6.2391 -2.3238,1.9352 -4.81027,2.90281 -7.45943,2.90281 -1.54922,0 -2.85571,-0.40254 -3.91952,-1.20758 -1.00181,-0.87211 -1.50272,-1.96873 -1.50272,-3.28982 0,-2.22419 1.16191,-4.3039 3.48571,-6.2391 2.26187,-1.9352 4.73025,-2.9028 7.40525,-2.9028" style="stroke-width:0.495579"/>
	<path d="m 510.08389,170.41707 c 1.5492,0 2.85829,0.40253 3.92721,1.20757 0.99665,0.87211 1.49503,1.96874 1.49503,3.28982 0,2.22419 -1.14384,4.3039 -3.43153,6.2391 -2.3238,1.9352 -4.81027,2.90281 -7.45943,2.90281 -1.54922,0 -2.85571,-0.40254 -3.91952,-1.20758 -1.00181,-0.87211 -1.50272,-1.96873 -1.50272,-3.28982 0,-2.22419 1.16191,-4.3039 3.48571,-6.2391 2.26187,-1.9352 4.73025,-2.9028 7.40525,-2.9028" style="stroke-width:0.495579"/>
	<path d="m 548.60456,158.03145 c 1.54919,0 2.85828,0.40253 3.92721,1.20757 0.99664,0.87211 1.49503,1.96874 1.49503,3.28983 0,2.22419 -1.14385,4.30389 -3.43154,6.2391 -2.32379,1.9352 -4.81026,2.9028 -7.45942,2.9028 -1.54922,0 -2.85571,-0.40254 -3.91952,-1.20757 -1.00182,-0.87212 -1.50272,-1.96874 -1.50272,-3.28983 0,-2.22419 1.16191,-4.3039 3.4857,-6.2391 2.26188,-1.9352 4.73026,-2.9028 7.40526,-2.9028" style="stroke-width:0.495579"/>
	<path d="m 601.49997,164.22426 c 1.54919,0 2.85828,0.40253 3.92721,1.20757 0.99664,0.87211 1.49503,1.96874 1.49503,3.28983 0,2.22419 -1.14385,4.30389 -3.43154,6.23909 -2.32379,1.93521 -4.81026,2.90281 -7.45942,2.90281 -1.54922,0 -2.85571,-0.40254 -3.91952,-1.20758 -1.00181,-0.87211 -1.50272,-1.96873 -1.50272,-3.28982 0,-2.22419 1.16191,-4.3039 3.4857,-6.2391 2.26188,-1.9352 4.73026,-2.9028 7.40526,-2.9028" style="stroke-width:0.495579"/>
	<path d="m 631.33601,176.60988 c 1.54919,0 2.85828,0.40253 3.92721,1.20757 0.99664,0.87211 1.49503,1.96873 1.49503,3.28982 0,2.22419 -1.14385,4.3039 -3.43154,6.2391 -2.32379,1.9352 -4.81026,2.9028 -7.45942,2.9028 -1.54923,0 -2.85572,-0.40253 -3.91952,-1.20757 -1.00182,-0.87211 -1.50272,-1.96873 -1.50272,-3.28982 0,-2.22419 1.16191,-4.3039 3.4857,-6.2391 2.26188,-1.9352 4.73025,-2.9028 7.40526,-2.9028" style="stroke-width:0.495579"/>
	<path d="m 665.47066,192.57174 c 0,-0.54702 -0.20917,-1.01405 -0.62742,-1.40107 -0.42347,-0.41804 -0.90891,-0.627 -1.45627,-0.627 -0.9657,0 -2.9177,0.96757 -5.856,2.90278 -3.03648,1.96616 -4.89292,3.36983 -5.56942,4.211 -0.35633,0.44898 -0.53449,0.91601 -0.53449,1.4011 0,0.54701 0.21172,1.01405 0.63519,1.40107 0.38729,0.41804 0.87013,0.627 1.4485,0.627 0.93469,0 2.90479,-0.96758 5.91025,-2.90278 2.96928,-1.9352 4.80772,-3.33887 5.5152,-4.21101 0.35627,-0.41801 0.53446,-0.88504 0.53446,-1.40109 m -2.56395,-3.57625 c 2.7731,0 4.1596,1.19207 4.1596,3.57625 0,1.16112 -0.33823,2.51577 -1.01468,4.06392 -0.6765,1.51722 -1.58021,2.67832 -2.71116,3.48338 -2.48387,1.67715 -5.5978,2.51575 -9.34171,2.51575 -2.77825,0 -4.16738,-1.19206 -4.16738,-3.57624 0,-1.06309 0.33824,-2.40223 1.01474,-4.01748 0.64551,-1.54818 1.54922,-2.72476 2.7111,-3.52983 2.4891,-1.67715 5.60556,-2.51575 9.34949,-2.51575" style="stroke-width:0.495579"/>
	<path d="m 28.118154,158.36444 c 0,0 0.09811,0 0.294324,0 0.129094,-0.031 0.240141,-0.0464 0.333093,-0.0464 3.614785,0 6.58411,1.27465 8.907921,3.82393 2.323814,2.51323 3.485745,5.44697 3.485745,8.80132 0,4.16456 -1.724802,7.55248 -5.174356,10.16369 -0.903695,0.71215 -2.083672,1.29272 -3.539927,1.74168 0.165232,2.09519 0.247872,3.78785 0.247872,5.07795 0,0.25807 -0.03361,1.19468 -0.100735,2.80993 -0.129092,2.99829 -1.161882,5.59405 -3.098417,7.78728 -1.869361,2.16223 -4.193174,3.24338 -6.971438,3.24338 -2.612979,0 -4.838683,-0.91856 -6.677062,-2.75575 -1.843567,-1.87325 -2.765349,-4.13098 -2.765349,-6.77315 0,-1.38822 0.53448,-2.5674 1.603433,-3.53759 1.094792,-0.96503 2.36772,-1.4475 3.818821,-1.4475 1.290974,0 2.372841,0.50055 3.245554,1.50168 0.903695,0.93407 1.355569,2.09519 1.355569,3.48341 0,1.25396 -0.451874,2.33253 -1.355569,3.23561 -0.903696,0.9031 -1.985565,1.35465 -3.245554,1.35465 -0.51642,0 -1.014743,-0.0955 -1.495023,-0.28639 1.420115,2.09514 3.307571,3.14275 5.662369,3.14275 2.225704,0 4.048614,-0.90308 5.468729,-2.70925 1.48724,-1.86816 2.295407,-4.04588 2.424499,-6.53326 0.06197,-1.54815 0.09295,-2.4332 0.09295,-2.65509 0,-1.80623 -0.06455,-3.28985 -0.193638,-4.45098 -1.611177,0.258 -3.046811,0.38705 -4.3068,0.38705 -4.487548,0 -8.311541,-1.77526 -11.47191,-5.32566 -3.098417,-3.58146 -4.647627,-7.83889 -4.647627,-12.77238 0,-1.03208 0.09553,-2.07968 0.286604,-3.14277 0.196232,-0.87214 0.438944,-1.82421 0.728128,-2.85636 0.160085,-0.58315 0.596448,-1.51978 1.309084,-2.80993 0.2582,-0.387 0.548676,-0.87082 0.871427,-1.45134 0.322751,-0.58058 0.548678,-0.96635 0.677781,-1.15728 0.320166,-0.64508 0.947594,-1.51721 1.882285,-2.61638 0.258184,-0.28902 0.525442,-0.61025 0.801721,-0.96373 0.276281,-0.35352 0.511215,-0.64378 0.704903,-0.87087 0.193638,-0.22706 0.338248,-0.4051 0.433779,-0.5341 0.09553,-0.12903 0.822344,-0.98311 2.18049,-2.56223 0.320154,-0.32509 0.633863,-0.67214 0.941127,-1.04111 0.307263,-0.369 0.557714,-0.65926 0.751401,-0.87084 0.193641,-0.21158 0.339538,-0.36382 0.437647,-0.45672 -1.161931,-3.83943 -1.890034,-6.9048 -2.184409,-9.19608 -0.222045,-1.83714 -0.333042,-4.35292 -0.333042,-7.54731 0,-2.80728 0.645462,-5.43658 1.936486,-7.88799 1.254883,-2.54393 3.013198,-4.62366 5.275041,-6.2392 0.129092,-0.0976 0.289218,-0.14666 0.480278,-0.14666 0.227201,0 0.389857,0.0491 0.488013,0.14666 1.740269,2.09558 3.2404,4.82034 4.500438,8.17454 1.290974,3.35432 1.936486,6.40423 1.936486,9.14961 0,3.09633 -0.741043,5.99913 -2.223076,8.70843 -1.678351,2.86924 -3.842036,5.83657 -6.491207,8.9019 0.676494,2.12618 1.580192,5.46248 2.711138,10.00887 m 4.11311,22.50255 c 1.678302,-0.61411 2.98742,-1.66167 3.927255,-3.14275 1.03279,-1.41915 1.54921,-3.01634 1.54921,-4.79158 0,-2.29129 -0.774606,-4.32452 -2.323813,-6.09976 -1.585347,-1.83714 -3.604473,-2.86926 -6.057379,-3.09633 1.389081,6.80677 2.357375,12.51688 2.904727,17.13042 M 13.501353,169.68926 c 0,3.19438 1.291002,6.00172 3.873031,8.42198 2.643965,2.35322 5.613287,3.52983 8.907921,3.52983 1.352993,0 2.674999,-0.098 3.965973,-0.29414 -0.51637,-4.90255 -1.533691,-10.77263 -3.051916,-17.61036 -1.838426,0.1961 -3.304993,0.84118 -4.39975,1.93518 -1.068979,1.13019 -1.603444,2.40486 -1.603444,3.82401 0,2.45125 1.309068,4.43547 3.927255,5.95268 0.222047,0.22706 0.333093,0.4696 0.333093,0.72763 0,0.25802 -0.111046,0.49799 -0.333093,0.71989 -0.196266,0.22706 -0.438934,0.3406 -0.728152,0.3406 -0.03098,0 -0.175544,-0.031 -0.433777,-0.0929 -1.843533,-1.00114 -3.263649,-2.29129 -4.260299,-3.8704 -0.939885,-1.68235 -1.409804,-3.37758 -1.409804,-5.08572 0,-2.22419 0.694592,-4.23937 2.083722,-6.0456 1.451051,-1.80617 3.338506,-2.96727 5.66232,-3.48332 -0.903698,-3.61241 -1.644741,-6.43523 -2.223079,-8.46849 -0.516417,0.58315 -1.13739,1.28501 -1.862966,2.10551 -0.725524,0.82054 -1.152857,1.31337 -1.281949,1.4785 -1.161882,1.51205 -2.050111,2.68865 -2.66464,3.5298 -1.099913,1.51721 -1.908129,2.82282 -2.424497,3.91687 -0.547405,1.2282 -1.030237,2.5674 -1.448524,4.01746 -0.418284,1.38821 -0.627425,2.87186 -0.627425,4.45098 m 16.166009,-49.20062 c -2.42197,1.19214 -4.324892,2.90028 -5.708868,5.12447 -1.420118,2.29128 -2.130126,4.75799 -2.130126,7.40022 0,2.32225 0.580916,5.45212 1.742848,9.38959 2.323813,-2.80737 4.066658,-5.40312 5.22859,-7.78728 1.223849,-2.51832 1.8358,-5.14764 1.8358,-7.88785 0,-2.06423 -0.322782,-4.14391 -0.968244,-6.23915" style="stroke-width:0.495579"/>
	<path d="m 56.077601,156.62245 v 3.82396 c 0,1.35722 0.06455,2.43837 0.193654,3.24343 1.063788,-0.90312 1.822899,-1.57914 2.277336,-2.02812 0.516404,-0.51605 1.032824,-1.22692 1.549194,-2.13259 0.51642,-0.90568 0.774604,-1.81005 0.774604,-2.71315 0,-0.9031 -0.193638,-1.67718 -0.580917,-2.32225 -0.387327,-0.64505 -0.903744,-0.9676 -1.549233,-0.9676 -0.774603,0 -1.420105,0.29159 -1.936509,0.87471 -0.485422,0.64507 -0.728129,1.38561 -0.728129,2.22161 m -2.037207,8.85549 -0.62743,-29.46151 c 0.454434,-0.25805 0.907579,-0.38705 1.359432,-0.38705 0.451853,0 0.902411,0.129 1.351683,0.38705 l -0.387305,17.0762 c 1.321993,-1.13013 2.840218,-1.69525 4.554698,-1.69525 1.254835,0 2.301852,0.51607 3.141001,1.54817 0.839152,1.03213 1.258752,2.21131 1.258752,3.53757 0,0.836 -0.273703,1.72362 -0.821107,2.66285 -0.516417,0.86697 -1.063773,1.54298 -1.64216,2.0281 -0.325308,0.25802 -1.148991,0.90307 -2.471,1.9352 -0.387276,0.28899 -0.846883,0.62699 -1.378779,1.01404 -0.531897,0.38703 -0.862396,0.6296 -0.991494,0.72763 -0.227222,0.129 -0.438944,0.38705 -0.635176,0.77408 -0.222055,0.32515 -0.480254,0.5986 -0.774604,0.82054 -0.222054,0.1961 -0.494457,0.29414 -0.817208,0.29414 -0.32275,0 -0.582244,-0.11355 -0.778476,-0.34061 -0.22722,-0.22703 -0.340827,-0.5341 -0.340827,-0.92115" style="stroke-width:0.495579"/>
	<path d="m 164.10184,146.27496 v -12.38531 h 1.54921 c 0,1.83714 0.35632,3.67688 1.06896,5.51919 0.7746,1.99715 1.62925,3.73883 2.56392,5.22505 0.6765,1.06306 1.69382,2.69122 3.05197,4.88447 1.03279,1.67715 1.90421,3.43434 2.61427,5.27148 0.71006,1.83713 1.06511,3.6769 1.06511,5.51918 0,3.35438 -0.69459,6.77323 -2.08372,10.25661 -0.25819,0.38702 -0.56545,0.58052 -0.92174,0.58052 -0.32021,0 -0.60938,-0.129 -0.86756,-0.38702 -0.19627,-0.19613 -0.29437,-0.43864 -0.29437,-0.72766 v -0.23992 c 1.38913,-3.19441 2.08367,-6.35524 2.08367,-9.48253 0,-1.61525 -0.48539,-3.35692 -1.45626,-5.225 -0.96566,-1.90426 -1.94942,-3.42148 -2.95123,-4.55161 -1.13092,-1.32112 -2.42193,-2.74027 -3.87302,-4.25745 h -1.54921" style="stroke-width:0.495579"/>
	<path d="m 245.61981,159.96745 c 0.74361,0 1.5363,1.20755 2.37804,3.62269 0.80559,2.38933 1.20837,4.66516 1.20837,6.82742 0,1.83714 -0.45186,3.65882 -1.35557,5.465 -0.93467,1.93523 -2.04753,3.61238 -3.33855,5.03155 l -3.9737,4.45093 c -1.22385,1.41915 -2.32125,3.06276 -3.29207,4.93092 -0.90371,1.80617 -1.35557,3.64591 -1.35557,5.51918 h -1.5492 v -12.38528 h 1.5492 c 0.87273,-0.54704 2.16375,-1.41917 3.87304,-2.61643 0.7746,-0.57796 1.93654,-1.54553 3.48574,-2.90275 1.25998,-1.16115 2.21277,-2.35322 2.85828,-3.5763 0.6765,-1.2901 1.01473,-2.59576 1.01473,-3.91682 0,-3.06536 -0.88821,-6.11527 -2.66463,-9.14967 0,0 0,-0.0645 0,-0.1935 0,-0.28896 0.0981,-0.52896 0.29433,-0.71988 0.25818,-0.25806 0.54739,-0.38706 0.86756,-0.38706" style="stroke-width:0.495579"/>
	<path d="m 482.5749,146.27496 v -12.38531 h 1.54919 c 0,1.83714 0.35633,3.67688 1.06896,5.51919 0.77462,1.99715 1.62926,3.73883 2.56393,5.22505 0.67649,1.06306 1.69383,2.69122 3.05197,4.88447 1.03279,1.67715 1.90422,3.43434 2.61428,5.27148 0.71005,1.83713 1.0651,3.6769 1.0651,5.51918 0,3.35438 -0.69458,6.77323 -2.08371,10.25661 -0.2582,0.38702 -0.56545,0.58052 -0.92175,0.58052 -0.3202,0 -0.60938,-0.129 -0.86755,-0.38702 -0.19629,-0.19613 -0.29439,-0.43864 -0.29439,-0.72766 v -0.23992 c 1.38913,-3.19441 2.08369,-6.35524 2.08369,-9.48253 0,-1.61525 -0.48539,-3.35692 -1.45627,-5.225 -0.96565,-1.90426 -1.94943,-3.42148 -2.95121,-4.55161 -1.13093,-1.32112 -2.42195,-2.74027 -3.87305,-4.25745 h -1.54919" style="stroke-width:0.495579"/>
	<path d="m 117.25568,179.22223 c -0.54997,-0.54958 -0.82495,-1.21144 -0.82495,-1.98551 0,-0.77408 0.27498,-1.43594 0.82495,-1.98552 0.54997,-0.54959 1.21226,-0.82439 1.98687,-0.82439 0.7746,0 1.43559,0.2748 1.98298,0.82439 0.54737,0.54958 0.82107,1.21144 0.82107,1.98552 0,0.77407 -0.2737,1.43593 -0.82107,1.98551 -0.54739,0.54959 -1.20838,0.8244 -1.98298,0.8244 -0.77461,0 -1.4369,-0.27481 -1.98687,-0.8244" style="stroke-width:0.495579"/>
	<path d="m 202.20079,154.45359 c -0.54997,-0.54958 -0.82496,-1.21144 -0.82496,-1.98551 0,-0.77408 0.27499,-1.43593 0.82496,-1.98552 0.54997,-0.54959 1.21226,-0.82439 1.98686,-0.82439 0.77461,0 1.4356,0.2748 1.98299,0.82439 0.54736,0.54959 0.82106,1.21144 0.82106,1.98552 0,0.77407 -0.2737,1.43593 -0.82106,1.98551 -0.54739,0.54959 -1.20838,0.8244 -1.98299,0.8244 -0.7746,0 -1.43689,-0.27481 -1.98686,-0.8244" style="stroke-width:0.495579"/>
	<path d="m 442.38114,179.22223 c -0.54995,-0.54958 -0.82495,-1.21144 -0.82495,-1.98551 0,-0.77408 0.275,-1.43594 0.82495,-1.98552 0.54999,-0.54959 1.21226,-0.82439 1.98686,-0.82439 0.7746,0 1.43561,0.2748 1.98299,0.82439 0.54736,0.54958 0.82108,1.21144 0.82108,1.98552 0,0.77407 -0.27372,1.43593 -0.82108,1.98551 -0.54738,0.54959 -1.20839,0.8244 -1.98299,0.8244 -0.7746,0 -1.43687,-0.27481 -1.98686,-0.8244" style="stroke-width:0.495579"/>
	<path d="M -4.2188e-05 247.072 L 700 247.072" style="fill:none;stroke:#000000;stroke-linejoin:bevel;stroke-width:0.9900398732282082"/>
	<path d="M -4.2188e-05 259.458 L 700 259.458" style="fill:none;stroke:#000000;stroke-linejoin:bevel;stroke-width:0.9900398732282082"/>
	<path d="M -4.2188e-05 271.843 L 700 271.843" style="fill:none;stroke:#000000;stroke-linejoin:bevel;stroke-width:0.9900398732282082"/>
	<path d="M -4.2188e-05 284.229 L 700 284.229" style="fill:none;stroke:#000000;stroke-linejoin:bevel;stroke-width:0.9900398732282082"/>
	<path d="M -4.2188e-05 296.614 L 700 296.614" style="fill:none;stroke:#000000;stroke-linejoin:bevel;stroke-width:0.9900398732282082"/>
	<path d="M 264.705 246.578 L 264.705 297.111" style="fill:none;stroke:#000000;stroke-linejoin:bevel;stroke-width:1.9826782763074091"/>
	<path d="M 447.02 246.578 L 447.02 297.111" style="fill:none;stroke:#000000;stroke-linejoin:bevel;stroke-width:1.9826782763074091"/>
	<path d="M 573.388 246.578 L 573.388 297.111" style="fill:none;stroke:#000000;stroke-linejoin:bevel;stroke-width:1.9826782763074091"/>
	<path d="M 687.853 246.578 L 687.853 297.111" style="fill:none;stroke:#000000;stroke-linejoin:bevel;stroke-width:1.9826782763074091"/>
	<path d="M 696.901 246.578 L 696.901 297.111" style="fill:none;stroke:#000000;stroke-linejoin:bevel;stroke-width:6.194895164766531"/>
	<path d="M 96.5816 274.171 L 96.5816 310.548" style="fill:none;stroke:#000000;stroke-linecap:round;stroke-linejoin:bevel;stroke-width:1.6110885076154569"/>
	<path d="M 149.848 267.978 L 149.848 309" style="fill:none;stroke:#000000;stroke-linecap:round;stroke-linejoin:bevel;stroke-width:1.6110885076154569"/>
	<path d="M 177.151 261.785 L 177.151 301.259" style="fill:none;stroke:#000000;stroke-linecap:round;stroke-linejoin:bevel;stroke-width:1.6110885076154569"/>
	<path d="M 220.835 261.785 L 220.835 301.259" style="fill:none;stroke:#000000;stroke-linecap:round;stroke-linejoin:bevel;stroke-width:1.6110885076154569"/>
	<path d="M 278.895 267.978 L 278.895 305.904" style="fill:none;stroke:#000000;stroke-linecap:round;stroke-linejoin:bevel;stroke-width:1.6110885076154569"/>
	<path d="M 336.849 275.711 L 336.849 237.783" style="fill:none;stroke:#000000;stroke-linecap:round;stroke-linejoin:bevel;stroke-width:1.6110885076154569"/>
	<path d="M 365.391 267.978 L 365.391 305.904" style="fill:none;stroke:#000000;stroke-linecap:round;stroke-linejoin:bevel;stroke-width:1.6110885076154569"/>
	<path d="M 418.122 274.171 L 418.122 315.193" style="fill:none;stroke:#000000;stroke-linecap:round;stroke-linejoin:bevel;stroke-width:1.6110885076154569"/>
	<path d="M 476.812 276.135 L 476.812 237.783" style="fill:none;stroke:#000000;stroke-linecap:round;stroke-linejoin:bevel;stroke-width:1.6110885076154569"/>
	<path d="M 532.582 282.327 L 532.582 242.427" style="fill:none;stroke:#000000;stroke-linecap:round;stroke-linejoin:bevel;stroke-width:1.6110885076154569"/>
	<path d="m 106.66703,265.02515 c 1.54921,0 2.85828,0.40253 3.92721,1.20757 0.99664,0.87211 1.49502,1.96874 1.49502,3.28982 0,2.22419 -1.14384,4.3039 -3.43151,6.2391 -2.32381,1.9352 -4.81028,2.90281 -7.45945,2.90281 -1.549208,0 -2.855709,-0.40254 -3.919497,-1.20758 -1.00182,-0.87211 -1.502732,-1.96873 -1.502732,-3.28982 0,-2.22419 1.161905,-4.3039 3.485719,-6.2391 2.26187,-1.9352 4.73024,-2.9028 7.40524,-2.9028" style="stroke-width:0.495579"/>
	<path d="m 159.93364,258.83234 c 1.5492,0 2.85827,0.40253 3.9272,1.20757 0.99665,0.87211 1.49502,1.96874 1.49502,3.28983 0,2.22419 -1.14383,4.30389 -3.4315,6.23909 -2.32382,1.93521 -4.81028,2.90281 -7.45945,2.90281 -1.54921,0 -2.85571,-0.40254 -3.9195,-1.20758 -1.00182,-0.87211 -1.50273,-1.96873 -1.50273,-3.28982 0,-2.22419 1.1619,-4.3039 3.48572,-6.2391 2.26187,-1.9352 4.73024,-2.9028 7.40524,-2.9028" style="stroke-width:0.495579"/>
	<path d="m 187.23629,252.63953 c 1.54921,0 2.85827,0.40253 3.9272,1.20757 0.99665,0.87211 1.49503,1.96874 1.49503,3.28983 0,2.22419 -1.14384,4.30389 -3.43151,6.2391 -2.32382,1.9352 -4.81028,2.9028 -7.45945,2.9028 -1.54921,0 -2.85571,-0.40254 -3.9195,-1.20757 -1.00182,-0.87212 -1.50273,-1.96874 -1.50273,-3.28983 0,-2.22419 1.1619,-4.3039 3.48572,-6.2391 2.26187,-1.9352 4.73024,-2.9028 7.40524,-2.9028" style="stroke-width:0.495579"/>
	<path d="m 230.92069,252.63953 c 1.54919,0 2.85828,0.40253 3.92721,1.20757 0.99664,0.87211 1.49503,1.96874 1.49503,3.28983 0,2.22419 -1.14385,4.30389 -3.43154,6.2391 -2.32379,1.9352 -4.81026,2.9028 -7.45942,2.9028 -1.54923,0 -2.85572,-0.40254 -3.91951,-1.20757 -1.00182,-0.87212 -1.50273,-1.96874 -1.50273,-3.28983 0,-2.22419 1.1619,-4.3039 3.4857,-6.2391 2.26188,-1.9352 4.73025,-2.9028 7.40526,-2.9028" style="stroke-width:0.495579"/>
	<path d="m 288.98061,258.83234 c 1.54919,0 2.85828,0.40253 3.92721,1.20757 0.99664,0.87211 1.49503,1.96874 1.49503,3.28983 0,2.22419 -1.14385,4.30389 -3.43154,6.23909 -2.32379,1.93521 -4.81026,2.90281 -7.45942,2.90281 -1.54923,0 -2.85572,-0.40254 -3.91952,-1.20758 -1.00182,-0.87211 -1.50272,-1.96873 -1.50272,-3.28982 0,-2.22419 1.16191,-4.3039 3.4857,-6.2391 2.26188,-1.9352 4.73025,-2.9028 7.40526,-2.9028" style="stroke-width:0.495579"/>
	<path d="m 332.227,271.21796 c 1.5492,0 2.85829,0.40253 3.92722,1.20757 0.99664,0.87211 1.49502,1.96873 1.49502,3.28982 0,2.22419 -1.14384,4.3039 -3.43153,6.2391 -2.3238,1.9352 -4.81026,2.9028 -7.45943,2.9028 -1.54922,0 -2.85571,-0.40253 -3.91952,-1.20757 -1.00181,-0.87211 -1.50272,-1.96873 -1.50272,-3.28982 0,-2.22419 1.16191,-4.3039 3.48571,-6.2391 2.26188,-1.9352 4.73025,-2.9028 7.40525,-2.9028" style="stroke-width:0.495579"/>
	<path d="m 375.476,258.83234 c 1.5492,0 2.85829,0.40253 3.92722,1.20757 0.99664,0.87211 1.49502,1.96874 1.49502,3.28983 0,2.22419 -1.14384,4.30389 -3.43153,6.23909 -2.3238,1.93521 -4.81026,2.90281 -7.45943,2.90281 -1.54922,0 -2.85571,-0.40254 -3.91952,-1.20758 -1.00181,-0.87211 -1.50272,-1.96873 -1.50272,-3.28982 0,-2.22419 1.16191,-4.3039 3.48571,-6.2391 2.26187,-1.9352 4.73025,-2.9028 7.40525,-2.9028" style="stroke-width:0.495579"/>
	<path d="m 428.20765,265.02515 c 1.54919,0 2.85828,0.40253 3.92721,1.20757 0.99664,0.87211 1.49503,1.96874 1.49503,3.28982 0,2.22419 -1.14385,4.3039 -3.43154,6.2391 -2.32379,1.9352 -4.81026,2.90281 -7.45942,2.90281 -1.54922,0 -2.85571,-0.40254 -3.91952,-1.20758 -1.00182,-0.87211 -1.50272,-1.96873 -1.50272,-3.28982 0,-2.22419 1.16191,-4.3039 3.4857,-6.2391 2.26188,-1.9352 4.73026,-2.9028 7.40526,-2.9028" style="stroke-width:0.495579"/>
	<path d="m 476.0438,274.7942 c 0,-0.54701 -0.20918,-1.01405 -0.62742,-1.40107 -0.42347,-0.41804 -0.90891,-0.627 -1.45627,-0.627 -0.96571,0 -2.91771,0.96758 -5.856,2.90278 -3.03648,1.96616 -4.89293,3.36983 -5.56942,4.211 -0.35633,0.44898 -0.53449,0.91601 -0.53449,1.4011 0,0.54702 0.21172,1.01405 0.63519,1.40107 0.38728,0.41804 0.87012,0.627 1.44849,0.627 0.9347,0 2.90479,-0.96758 5.91026,-2.90278 2.96928,-1.9352 4.80771,-3.33887 5.51519,-4.211 0.35628,-0.41802 0.53447,-0.88505 0.53447,-1.4011 m -2.56396,-3.57624 c 2.77311,0 4.15961,1.19206 4.15961,3.57624 0,1.16112 -0.33824,2.51578 -1.01468,4.06393 -0.6765,1.51721 -1.58021,2.67831 -2.71116,3.48337 -2.48387,1.67715 -5.59781,2.51575 -9.34171,2.51575 -2.77825,0 -4.16738,-1.19206 -4.16738,-3.57624 0,-1.06309 0.33824,-2.40223 1.01473,-4.01748 0.64552,-1.54818 1.54923,-2.72476 2.71111,-3.52982 2.48909,-1.67715 5.60555,-2.51575 9.34948,-2.51575" style="stroke-width:0.495579"/>
	<path d="m 531.81676,280.98701 c 0,-0.54702 -0.20918,-1.01405 -0.62742,-1.40107 -0.42347,-0.41804 -0.90891,-0.627 -1.45627,-0.627 -0.96571,0 -2.91771,0.96758 -5.85601,2.90278 -3.03647,1.96616 -4.89292,3.36983 -5.56941,4.211 -0.35633,0.44898 -0.5345,0.91601 -0.5345,1.4011 0,0.54701 0.21173,1.01405 0.6352,1.40107 0.38728,0.41804 0.87012,0.627 1.44849,0.627 0.9347,0 2.90479,-0.96758 5.91026,-2.90278 2.96928,-1.9352 4.80771,-3.33887 5.51519,-4.211 0.35628,-0.41802 0.53447,-0.88505 0.53447,-1.4011 m -2.56396,-3.57625 c 2.77311,0 4.15961,1.19207 4.15961,3.57625 0,1.16112 -0.33824,2.51578 -1.01468,4.06393 -0.6765,1.51721 -1.58021,2.67831 -2.71116,3.48337 -2.48387,1.67715 -5.59781,2.51575 -9.34171,2.51575 -2.77825,0 -4.16738,-1.19206 -4.16738,-3.57624 0,-1.06309 0.33824,-2.40223 1.01473,-4.01748 0.64551,-1.54818 1.54922,-2.72476 2.71111,-3.52982 2.48909,-1.67715 5.60555,-2.51576 9.34948,-2.51576" style="stroke-width:0.495579"/>
	<path d="m 597.4231,284.85757 c -1.16193,0 -2.00107,0.40253 -2.51745,1.20757 -0.57839,0.7741 -0.86755,1.82425 -0.86755,3.15051 0,1.51721 0.40278,2.82282 1.20836,3.91685 0.80561,1.06306 1.69378,1.8062 2.66466,2.22936 0.86755,0.41801 1.7867,0.62702 2.75758,0.62702 1.1309,0 1.98556,-0.40253 2.56391,-1.20757 0.54741,-0.81021 0.8211,-1.86039 0.8211,-3.15052 0,-1.51721 -0.40281,-2.82281 -1.20839,-3.91684 -0.80558,-1.0321 -1.67571,-1.77524 -2.61041,-2.22936 -0.93987,-0.41802 -1.87714,-0.62702 -2.81181,-0.62702 m 1.6499,-1.254 c 3.48573,0 6.39047,0.67604 8.71427,2.0281 2.3548,1.35722 3.53221,2.95441 3.53221,4.79155 0,1.96617 -1.21097,3.57884 -3.63289,4.83801 -2.42192,1.32111 -5.29313,1.98164 -8.61359,1.98164 -3.42373,0 -6.32852,-0.67604 -8.71431,-2.02809 -2.39094,-1.35722 -3.58641,-2.95442 -3.58641,-4.79156 0,-1.96616 1.22645,-3.57884 3.67936,-4.838 2.42195,-1.32111 5.29573,-1.98165 8.62136,-1.98165" style="stroke-width:0.495579"/>
	<path d="m 28.118154,271.55095 c 0,0 0.09811,0 0.294324,0 0.129094,-0.031 0.240141,-0.0464 0.333093,-0.0464 3.614785,0 6.58411,1.27464 8.907921,3.82393 2.323814,2.51323 3.485745,5.44697 3.485745,8.80132 0,4.16456 -1.724802,7.55247 -5.174356,10.16369 -0.903695,0.71215 -2.083672,1.29272 -3.539927,1.74167 0.165232,2.0952 0.247872,3.78785 0.247872,5.07795 0,0.25808 -0.03361,1.19469 -0.100735,2.80994 -0.129092,2.99829 -1.161882,5.59405 -3.098417,7.78727 -1.869361,2.16224 -4.193174,3.24338 -6.971438,3.24338 -2.612979,0 -4.838683,-0.91855 -6.677062,-2.75575 -1.843567,-1.87324 -2.765349,-4.13097 -2.765349,-6.77315 0,-1.38821 0.53448,-2.56739 1.603433,-3.53759 1.094792,-0.96503 2.36772,-1.44749 3.818821,-1.44749 1.290974,0 2.372841,0.50054 3.245554,1.50168 0.903695,0.93407 1.355569,2.09519 1.355569,3.4834 0,1.25397 -0.451874,2.33254 -1.355569,3.23562 -0.903696,0.9031 -1.985565,1.35465 -3.245554,1.35465 -0.51642,0 -1.014743,-0.0955 -1.495023,-0.28639 1.420115,2.09513 3.307571,3.14274 5.662369,3.14274 2.225704,0 4.048614,-0.90307 5.468729,-2.70925 1.48724,-1.86815 2.295407,-4.04587 2.424499,-6.53326 0.06197,-1.54815 0.09295,-2.43319 0.09295,-2.65508 0,-1.80623 -0.06455,-3.28986 -0.193638,-4.45098 -1.611177,0.258 -3.046811,0.38705 -4.3068,0.38705 -4.487548,0 -8.311541,-1.77526 -11.47191,-5.32566 -3.098417,-3.58147 -4.647627,-7.83889 -4.647627,-12.77238 0,-1.03208 0.09553,-2.07969 0.286604,-3.14278 0.196232,-0.87213 0.438944,-1.8242 0.728128,-2.85635 0.160085,-0.58315 0.596448,-1.51979 1.309084,-2.80994 0.2582,-0.387 0.548676,-0.87081 0.871427,-1.45133 0.322751,-0.58058 0.548678,-0.96636 0.677781,-1.15728 0.320166,-0.64508 0.947594,-1.51722 1.882285,-2.61639 0.258184,-0.28901 0.525442,-0.61024 0.801721,-0.96373 0.276281,-0.35351 0.511215,-0.64377 0.704903,-0.87086 0.193638,-0.22706 0.338248,-0.40511 0.433779,-0.53411 0.09553,-0.12902 0.822344,-0.9831 2.18049,-2.56222 0.320154,-0.32509 0.633863,-0.67214 0.941127,-1.04111 0.307263,-0.369 0.557714,-0.65926 0.751401,-0.87084 0.193641,-0.21158 0.339538,-0.36383 0.437647,-0.45672 -1.161931,-3.83944 -1.890034,-6.9048 -2.184409,-9.19609 -0.222045,-1.83714 -0.333042,-4.35291 -0.333042,-7.5473 0,-2.80729 0.645462,-5.43658 1.936486,-7.88799 1.254883,-2.54393 3.013198,-4.62367 5.275041,-6.2392 0.129092,-0.0976 0.289218,-0.14666 0.480278,-0.14666 0.227201,0 0.389857,0.0491 0.488013,0.14666 1.740269,2.09558 3.2404,4.82034 4.500438,8.17453 1.290974,3.35433 1.936486,6.40423 1.936486,9.14962 0,3.09632 -0.741043,5.99913 -2.223076,8.70843 -1.678351,2.86924 -3.842036,5.83656 -6.491207,8.9019 0.676494,2.12618 1.580192,5.46248 2.711138,10.00887 m 4.11311,22.50255 c 1.678302,-0.61411 2.98742,-1.66167 3.927255,-3.14275 1.03279,-1.41915 1.54921,-3.01634 1.54921,-4.79158 0,-2.29129 -0.774606,-4.32452 -2.323813,-6.09976 -1.585347,-1.83714 -3.604473,-2.86927 -6.057379,-3.09633 1.389081,6.80677 2.357375,12.51688 2.904727,17.13042 M 13.501353,282.87576 c 0,3.19439 1.291002,6.00173 3.873031,8.42199 2.643965,2.35322 5.613287,3.52982 8.907921,3.52982 1.352993,0 2.674999,-0.098 3.965973,-0.29413 -0.51637,-4.90255 -1.533691,-10.77263 -3.051916,-17.61036 -1.838426,0.1961 -3.304993,0.84117 -4.39975,1.93518 -1.068979,1.13018 -1.603444,2.40485 -1.603444,3.824 0,2.45125 1.309068,4.43547 3.927255,5.95269 0.222047,0.22706 0.333093,0.4696 0.333093,0.72762 0,0.25803 -0.111046,0.498 -0.333093,0.71989 -0.196266,0.22706 -0.438934,0.34061 -0.728152,0.34061 -0.03098,0 -0.175544,-0.031 -0.433777,-0.0929 -1.843533,-1.00114 -3.263649,-2.29129 -4.260299,-3.87041 -0.939885,-1.68234 -1.409804,-3.37757 -1.409804,-5.08571 0,-2.22419 0.694592,-4.23937 2.083722,-6.0456 1.451051,-1.80618 3.338506,-2.96728 5.66232,-3.48335 -0.903698,-3.61238 -1.644741,-6.4352 -2.223079,-8.46846 -0.516417,0.58315 -1.13739,1.28501 -1.862966,2.1055 -0.725524,0.82055 -1.152857,1.31338 -1.281949,1.47851 -1.161882,1.51204 -2.050111,2.68865 -2.66464,3.5298 -1.099913,1.51721 -1.908129,2.82282 -2.424497,3.91687 -0.547405,1.2282 -1.030237,2.56739 -1.448524,4.01746 -0.418284,1.38821 -0.627425,2.87186 -0.627425,4.45097 m 16.166009,-49.20062 c -2.42197,1.19214 -4.324892,2.90028 -5.708868,5.12447 -1.420118,2.29129 -2.130126,4.758 -2.130126,7.40023 0,2.32225 0.580916,5.45211 1.742848,9.38959 2.323813,-2.80737 4.066658,-5.40313 5.22859,-7.78728 1.223849,-2.51832 1.8358,-5.14764 1.8358,-7.88786 0,-2.06422 -0.322782,-4.14391 -0.968244,-6.23915" style="stroke-width:0.495579"/>
	<path d="m 56.077601,269.80896 v 3.82396 c 0,1.35722 0.06455,2.43836 0.193654,3.24343 1.063788,-0.90313 1.822899,-1.57914 2.277336,-2.02812 0.516404,-0.51605 1.032824,-1.22692 1.549194,-2.1326 0.51642,-0.90567 0.774604,-1.81004 0.774604,-2.71314 0,-0.9031 -0.193638,-1.67718 -0.580917,-2.32225 -0.387327,-0.64505 -0.903744,-0.9676 -1.549233,-0.9676 -0.774603,0 -1.420105,0.29158 -1.936509,0.8747 -0.485422,0.64508 -0.728129,1.38562 -0.728129,2.22162 m -2.037207,8.85549 -0.62743,-29.46151 c 0.454434,-0.25806 0.907579,-0.38706 1.359432,-0.38706 0.451853,0 0.902411,0.129 1.351683,0.38706 l -0.387305,17.0762 c 1.321993,-1.13014 2.840218,-1.69526 4.554698,-1.69526 1.254835,0 2.301852,0.51608 3.141001,1.54818 0.839152,1.03213 1.258752,2.21131 1.258752,3.53756 0,0.83601 -0.273703,1.72363 -0.821107,2.66286 -0.516417,0.86697 -1.063773,1.54298 -1.64216,2.02809 -0.325308,0.25803 -1.148991,0.90308 -2.471,1.9352 -0.387276,0.28899 -0.846883,0.627 -1.378779,1.01405 -0.531897,0.38702 -0.862396,0.62959 -0.991494,0.72763 -0.227222,0.129 -0.438944,0.38705 -0.635176,0.77407 -0.222055,0.32515 -0.480254,0.59861 -0.774604,0.82055 -0.222054,0.1961 -0.494457,0.29413 -0.817208,0.29413 -0.32275,0 -0.582244,-0.11354 -0.778476,-0.3406 -0.22722,-0.22704 -0.340827,-0.5341 -0.340827,-0.92115" style="stroke-width:0.495579"/>
	<path d="m 160.32091,273.15396 c 0.74362,0 1.53632,1.20755 2.37805,3.62269 0.80559,2.38932 1.20838,4.66516 1.20838,6.82742 0,1.83714 -0.45187,3.65882 -1.35557,5.465 -0.93468,1.93522 -2.04753,3.61237 -3.33855,5.03155 l -3.97371,4.45092 c -1.22385,1.41916 -2.32123,3.06277 -3.29206,4.93093 -0.90371,1.80617 -1.35557,3.64591 -1.35557,5.51918 h -1.5492 v -12.38528 h 1.5492 c 0.87273,-0.54704 2.16373,-1.41918 3.87303,-2.61644 0.7746,-0.57795 1.93653,-1.54552 3.48574,-2.90275 1.25999,-1.16115 2.21276,-2.35321 2.85828,-3.57629 0.67649,-1.2901 1.01474,-2.59576 1.01474,-3.91682 0,-3.06536 -0.88823,-6.11527 -2.66464,-9.14967 0,0 0,-0.0645 0,-0.1935 0,-0.28896 0.0981,-0.52896 0.29433,-0.71989 0.25818,-0.25805 0.5474,-0.38705 0.86755,-0.38705" style="stroke-width:0.495579"/>
	<path d="m 428.59493,279.34677 c 0.74362,0 1.53631,1.20755 2.37805,3.62269 0.80558,2.38932 1.20836,4.66515 1.20836,6.82742 0,1.83714 -0.45185,3.65882 -1.35557,5.46499 -0.93467,1.93523 -2.04753,3.61238 -3.33855,5.03156 l -3.97369,4.45092 c -1.22386,1.41915 -2.32125,3.06277 -3.29208,4.93092 -0.90371,1.80618 -1.35556,3.64592 -1.35556,5.51919 h -1.5492 v -12.38528 h 1.5492 c 0.87272,-0.54704 2.16374,-1.41918 3.87304,-2.61644 0.7746,-0.57795 1.93653,-1.54552 3.48573,-2.90275 1.25999,-1.16115 2.21278,-2.35321 2.85829,-3.57629 0.67649,-1.2901 1.01473,-2.59576 1.01473,-3.91682 0,-3.06537 -0.88822,-6.11527 -2.66463,-9.14967 0,0 0,-0.0645 0,-0.1935 0,-0.28896 0.0981,-0.52896 0.29433,-0.71989 0.25817,-0.25805 0.54738,-0.38705 0.86755,-0.38705" style="stroke-width:0.495579"/>
	<path d="m 117.25568,267.6375 c -0.54997,-0.54958 -0.82495,-1.21144 -0.82495,-1.98551 0,-0.77408 0.27498,-1.43593 0.82495,-1.98552 0.54997,-0.54959 1.21226,-0.82439 1.98687,-0.82439 0.7746,0 1.43559,0.2748 1.98298,0.82439 0.54737,0.54959 0.82107,1.21144 0.82107,1.98552 0,0.77407 -0.2737,1.43593 -0.82107,1.98551 -0.54739,0.54959 -1.20838,0.8244 -1.98298,0.8244 -0.77461,0 -1.4369,-0.27481 -1.98687,-0.8244" style="stroke-width:0.495579"/>
	<path d="m 386.06491,267.6375 c -0.54996,-0.54958 -0.82495,-1.21144 -0.82495,-1.98551 0,-0.77408 0.27499,-1.43593 0.82495,-1.98552 0.54998,-0.54959 1.21226,-0.82439 1.98686,-0.82439 0.7746,0 1.4356,0.2748 1.98298,0.82439 0.54736,0.54959 0.82108,1.21144 0.82108,1.98552 0,0.77407 -0.27372,1.43593 -0.82108,1.98551 -0.54738,0.54959 -1.20838,0.8244 -1.98298,0.8244 -0.7746,0 -1.43688,-0.27481 -1.98686,-0.8244" style="stroke-width:0.495579"/>
</svg>
