<?xml version="1.0" encoding="utf-8"?>
<svg xmlns="http://www.w3.org/2000/svg" version="1.2" viewBox="0 0 2977.23 4208.46">
	<title>A music sheet compose of three lines and three staffs each depicting the melody of the "Ting, Ting, Ting"</title>
	<desc>Generated by MuseScore 3.2.3</desc>
	<path class="StaffLines" d="M141.732 475.483 2835.5 475.483M141.732 523.162 2835.5 523.162M141.732 570.841 2835.5 570.841M141.732 618.52 2835.5 618.52M141.732 666.198 2835.5 666.198M141.732 1381.38 2835.5 1381.38M141.732 1429.06 2835.5 1429.06M141.732 1476.74 2835.5 1476.74M141.732 1524.42 2835.5 1524.42M141.732 1572.09 2835.5 1572.09M141.732 2287.28 2835.5 2287.28M141.732 2334.95 2835.5 2334.95M141.732 2382.63 2835.5 2382.63M141.732 2430.31 2835.5 2430.31M141.732 2477.99 2835.5 2477.99" fill="none" stroke="#000" stroke-linejoin="bevel" stroke-width="6.2"/>
	<path class="BarLine" d="M1163.87 472.384 1163.87 669.298M1715.24 472.384 1715.24 669.298M2369.91 472.384 2369.91 669.298M2831.68 472.384 2831.68 669.298M1163.87 1378.28 1163.87 1575.19M1715.24 1378.28 1715.24 1575.19M2369.91 1378.28 2369.91 1575.19M2831.68 1378.28 2831.68 1575.19M1169.82 2284.18 1169.82 2481.09M1873.34 2284.18 1873.34 2481.09M2354.78 2284.18 2354.78 2481.09M2788.77 2284.18 2788.77 2481.09" fill="none" stroke="#000" stroke-linejoin="bevel" stroke-width="7.63"/>
	<path class="BarLine" d="M2823.58 2284.18 2823.58 2481.09" fill="none" stroke="#000" stroke-linejoin="bevel" stroke-width="23.84"/>
	<path class="LedgerLine" d="M2637.68 713.877 2719.49 713.877M2637.68 1619.77 2719.49 1619.77" fill="none" stroke="#000" stroke-linecap="square" stroke-linejoin="bevel" stroke-width="7.63"/>
	<path class="Stem" d="M577.68 635.951 577.68 475.483M781.095 635.951 781.095 475.483M849.082 553.41 849.082 701.957M1052.5 553.41 1052.5 713.877" fill="none" stroke="#000" stroke-linecap="round" stroke-linejoin="bevel" stroke-width="5.72"/>
	<path class="Stem" d="M1218.23 577.249 1218.23 719.837" fill="none" stroke="#000" stroke-linecap="round" stroke-linejoin="bevel" stroke-width="5.72" transform="translate(56.598837 -160.93874)"/>
	<path class="Stem" d="M1399.26 588.272 1399.26 439.724M1523.28 612.112 1523.28 457.604M1647.29 635.951 1647.29 475.483M1826.61 635.951 1826.61 475.483M2006.28 635.951 2006.28 475.483M2131.29 635.951 2131.29 475.483M2278.63 588.272 2278.63 439.724M2481.29 612.112 2481.29 457.604M2594.19 659.79 2594.19 499.323M2707.1 707.469 2707.1 547.002M577.68 1541.85 577.68 1381.38M781.095 1541.85 781.095 1381.38M849.082 1459.31 849.082 1607.85M1052.5 1459.31 1052.5 1619.77" fill="none" stroke="#000" stroke-linecap="round" stroke-linejoin="bevel" stroke-width="5.72"/>
	<path class="Stem" d="M1218.23 1483.15 1218.23 1625.73" fill="none" stroke="#000" stroke-linecap="round" stroke-linejoin="bevel" stroke-width="5.72" transform="translate(56.820959 -155.75622)"/>
	<path class="Stem" d="M1399.26 1494.17 1399.26 1345.62M1523.28 1518.01 1523.28 1363.5M1647.29 1541.85 1647.29 1381.38M1826.61 1541.85 1826.61 1381.38M2006.28 1541.85 2006.28 1381.38M2131.29 1541.85 2131.29 1381.38M2278.63 1494.17 2278.63 1345.62M2481.29 1518.01 2481.29 1363.5M2594.19 1565.69 2594.19 1405.22M2707.1 1613.37 2707.1 1452.9M520.659 2389.04 520.659 2531.63M726.26 2365.2 726.26 2525.67M831.643 2341.36 831.643 2495.87M1000.26 2341.36 1000.26 2495.87M1224.18 2365.2 1224.18 2513.75M1448.25 2400.06 1448.25 2251.52M1558.28 2365.2 1558.28 2513.75M1761.97 2389.04 1761.97 2549.51M1984.72 2400.06 1984.72 2251.52M2197.78 2423.9 2197.78 2269.4" fill="none" stroke="#000" stroke-linecap="round" stroke-linejoin="bevel" stroke-width="5.72"/>
	<path class="Note" d="M10.7969,14 C20.7031,14 32.9063,4.79688 32.9063,-4.70313 C32.9063,-10.2969 28.4063,-14 22,-14 C9.79688,-14 0,-4.90625 0,4.70313 C0,10.5 4.79688,14 10.7969,14" transform="translate(517.798 642.359) scale(1.90715)"/>
	<path class="Note" d="M10.7969,14 C20.7031,14 32.9063,4.79688 32.9063,-4.70313 C32.9063,-10.2969 28.4063,-14 22,-14 C9.79688,-14 0,-4.90625 0,4.70313 C0,10.5 4.79688,14 10.7969,14" transform="translate(721.214 642.359) scale(1.90715)"/>
	<path class="Note" d="M10.7969,14 C20.7031,14 32.9063,4.79688 32.9063,-4.70313 C32.9063,-10.2969 28.4063,-14 22,-14 C9.79688,-14 0,-4.90625 0,4.70313 C0,10.5 4.79688,14 10.7969,14" transform="translate(846.221 547.002) scale(1.90715)"/>
	<path class="Note" d="M10.7969,14 C20.7031,14 32.9063,4.79688 32.9063,-4.70313 C32.9063,-10.2969 28.4063,-14 22,-14 C9.79688,-14 0,-4.90625 0,4.70313 C0,10.5 4.79688,14 10.7969,14" transform="translate(1049.64 547.002) scale(1.90715)"/>
	<path class="Note" d="M10.7969,14 C20.7031,14 32.9063,4.79688 32.9063,-4.70313 C32.9063,-10.2969 28.4063,-14 22,-14 C9.79688,-14 0,-4.90625 0,4.70313 C0,10.5 4.79688,14 10.7969,14" transform="translate(1215.36 570.841) scale(1.90715)"/>
	<path class="Note" d="M10.7969,14 C20.7031,14 32.9063,4.79688 32.9063,-4.70313 C32.9063,-10.2969 28.4063,-14 22,-14 C9.79688,-14 0,-4.90625 0,4.70313 C0,10.5 4.79688,14 10.7969,14" transform="translate(1339.38 594.68) scale(1.90715)"/>
	<path class="Note" d="M10.7969,14 C20.7031,14 32.9063,4.79688 32.9063,-4.70313 C32.9063,-10.2969 28.4063,-14 22,-14 C9.79688,-14 0,-4.90625 0,4.70313 C0,10.5 4.79688,14 10.7969,14" transform="translate(1463.39 618.52) scale(1.90715)"/>
	<path class="Note" d="M10.7969,14 C20.7031,14 32.9063,4.79688 32.9063,-4.70313 C32.9063,-10.2969 28.4063,-14 22,-14 C9.79688,-14 0,-4.90625 0,4.70313 C0,10.5 4.79688,14 10.7969,14" transform="translate(1587.41 642.359) scale(1.90715)"/>
	<path class="Note" d="M10.7969,14 C20.7031,14 32.9063,4.79688 32.9063,-4.70313 C32.9063,-10.2969 28.4063,-14 22,-14 C9.79688,-14 0,-4.90625 0,4.70313 C0,10.5 4.79688,14 10.7969,14" transform="translate(1766.73 642.359) scale(1.90715)"/>
	<path class="Note" d="M10.7969,14 C20.7031,14 32.9063,4.79688 32.9063,-4.70313 C32.9063,-10.2969 28.4063,-14 22,-14 C9.79688,-14 0,-4.90625 0,4.70313 C0,10.5 4.79688,14 10.7969,14" transform="translate(1946.4 642.359) scale(1.90715)"/>
	<path class="Note" d="M10.7969,14 C20.7031,14 32.9063,4.79688 32.9063,-4.70313 C32.9063,-10.2969 28.4063,-14 22,-14 C9.79688,-14 0,-4.90625 0,4.70313 C0,10.5 4.79688,14 10.7969,14" transform="translate(2071.41 642.359) scale(1.90715)"/>
	<path class="Note" d="M10.7969,14 C20.7031,14 32.9063,4.79688 32.9063,-4.70313 C32.9063,-10.2969 28.4063,-14 22,-14 C9.79688,-14 0,-4.90625 0,4.70313 C0,10.5 4.79688,14 10.7969,14" transform="translate(2218.75 594.68) scale(1.90715)"/>
	<path class="Note" d="M10.7969,14 C20.7031,14 32.9063,4.79688 32.9063,-4.70313 C32.9063,-10.2969 28.4063,-14 22,-14 C9.79688,-14 0,-4.90625 0,4.70313 C0,10.5 4.79688,14 10.7969,14" transform="translate(2421.4 618.52) scale(1.90715)"/>
	<path class="Note" d="M10.7969,14 C20.7031,14 32.9063,4.79688 32.9063,-4.70313 C32.9063,-10.2969 28.4063,-14 22,-14 C9.79688,-14 0,-4.90625 0,4.70313 C0,10.5 4.79688,14 10.7969,14" transform="translate(2534.31 666.198) scale(1.90715)"/>
	<path class="Note" d="M10.7969,14 C29.2031,14 32.9063,-1 32.9063,-4.59375 C32.9063,-10.2969 28.4063,-14 21.9063,-14 C5.20313,-14 0,-1.09375 0,4.70313 C0,10.5938 4.70313,14 10.7969,14 M19.2969,5.09375 C14.2969,8.5 10.7969,9.70313 8.40625,9.70313 C6.09375,9.70313 4.70313,8.5 4,7.09375 C3.59375,6.5 3.29688,5.70313 3.29688,4.90625 C3.29688,2.5 5.70313,-0.59375 13.4063,-5 C18.9063,-8.20313 22.4063,-9.40625 24.7031,-9.40625 C26.7969,-9.40625 28,-8.40625 28.7969,-7 C29.1094,-6.40625 29.4063,-5.70313 29.4063,-4.90625 C29.4063,-2.70313 27.1094,0 19.2969,5.09375" transform="translate(2647.22 713.877) scale(1.90715)"/>
	<path class="Note" d="M10.7969,14 C20.7031,14 32.9063,4.79688 32.9063,-4.70313 C32.9063,-10.2969 28.4063,-14 22,-14 C9.79688,-14 0,-4.90625 0,4.70313 C0,10.5 4.79688,14 10.7969,14" transform="translate(517.798 1548.26) scale(1.90715)"/>
	<path class="Note" d="M10.7969,14 C20.7031,14 32.9063,4.79688 32.9063,-4.70313 C32.9063,-10.2969 28.4063,-14 22,-14 C9.79688,-14 0,-4.90625 0,4.70313 C0,10.5 4.79688,14 10.7969,14" transform="translate(721.214 1548.26) scale(1.90715)"/>
	<path class="Note" d="M10.7969,14 C20.7031,14 32.9063,4.79688 32.9063,-4.70313 C32.9063,-10.2969 28.4063,-14 22,-14 C9.79688,-14 0,-4.90625 0,4.70313 C0,10.5 4.79688,14 10.7969,14" transform="translate(846.221 1452.9) scale(1.90715)"/>
	<path class="Note" d="M10.7969,14 C20.7031,14 32.9063,4.79688 32.9063,-4.70313 C32.9063,-10.2969 28.4063,-14 22,-14 C9.79688,-14 0,-4.90625 0,4.70313 C0,10.5 4.79688,14 10.7969,14" transform="translate(1049.64 1452.9) scale(1.90715)"/>
	<path class="Note" d="M10.7969,14 C20.7031,14 32.9063,4.79688 32.9063,-4.70313 C32.9063,-10.2969 28.4063,-14 22,-14 C9.79688,-14 0,-4.90625 0,4.70313 C0,10.5 4.79688,14 10.7969,14" transform="translate(1215.36 1476.74) scale(1.90715)"/>
	<path class="Note" d="M10.7969,14 C20.7031,14 32.9063,4.79688 32.9063,-4.70313 C32.9063,-10.2969 28.4063,-14 22,-14 C9.79688,-14 0,-4.90625 0,4.70313 C0,10.5 4.79688,14 10.7969,14" transform="translate(1339.38 1500.58) scale(1.90715)"/>
	<path class="Note" d="M10.7969,14 C20.7031,14 32.9063,4.79688 32.9063,-4.70313 C32.9063,-10.2969 28.4063,-14 22,-14 C9.79688,-14 0,-4.90625 0,4.70313 C0,10.5 4.79688,14 10.7969,14" transform="translate(1463.39 1524.42) scale(1.90715)"/>
	<path class="Note" d="M10.7969,14 C20.7031,14 32.9063,4.79688 32.9063,-4.70313 C32.9063,-10.2969 28.4063,-14 22,-14 C9.79688,-14 0,-4.90625 0,4.70313 C0,10.5 4.79688,14 10.7969,14" transform="translate(1587.41 1548.26) scale(1.90715)"/>
	<path class="Note" d="M10.7969,14 C20.7031,14 32.9063,4.79688 32.9063,-4.70313 C32.9063,-10.2969 28.4063,-14 22,-14 C9.79688,-14 0,-4.90625 0,4.70313 C0,10.5 4.79688,14 10.7969,14" transform="translate(1766.73 1548.26) scale(1.90715)"/>
	<path class="Note" d="M10.7969,14 C20.7031,14 32.9063,4.79688 32.9063,-4.70313 C32.9063,-10.2969 28.4063,-14 22,-14 C9.79688,-14 0,-4.90625 0,4.70313 C0,10.5 4.79688,14 10.7969,14" transform="translate(1946.4 1548.26) scale(1.90715)"/>
	<path class="Note" d="M10.7969,14 C20.7031,14 32.9063,4.79688 32.9063,-4.70313 C32.9063,-10.2969 28.4063,-14 22,-14 C9.79688,-14 0,-4.90625 0,4.70313 C0,10.5 4.79688,14 10.7969,14" transform="translate(2071.41 1548.26) scale(1.90715)"/>
	<path class="Note" d="M10.7969,14 C20.7031,14 32.9063,4.79688 32.9063,-4.70313 C32.9063,-10.2969 28.4063,-14 22,-14 C9.79688,-14 0,-4.90625 0,4.70313 C0,10.5 4.79688,14 10.7969,14" transform="translate(2218.75 1500.58) scale(1.90715)"/>
	<path class="Note" d="M10.7969,14 C20.7031,14 32.9063,4.79688 32.9063,-4.70313 C32.9063,-10.2969 28.4063,-14 22,-14 C9.79688,-14 0,-4.90625 0,4.70313 C0,10.5 4.79688,14 10.7969,14" transform="translate(2421.4 1524.42) scale(1.90715)"/>
	<path class="Note" d="M10.7969,14 C20.7031,14 32.9063,4.79688 32.9063,-4.70313 C32.9063,-10.2969 28.4063,-14 22,-14 C9.79688,-14 0,-4.90625 0,4.70313 C0,10.5 4.79688,14 10.7969,14" transform="translate(2534.31 1572.09) scale(1.90715)"/>
	<path class="Note" d="M10.7969,14 C29.2031,14 32.9063,-1 32.9063,-4.59375 C32.9063,-10.2969 28.4063,-14 21.9063,-14 C5.20313,-14 0,-1.09375 0,4.70313 C0,10.5938 4.70313,14 10.7969,14 M19.2969,5.09375 C14.2969,8.5 10.7969,9.70313 8.40625,9.70313 C6.09375,9.70313 4.70313,8.5 4,7.09375 C3.59375,6.5 3.29688,5.70313 3.29688,4.90625 C3.29688,2.5 5.70313,-0.59375 13.4063,-5 C18.9063,-8.20313 22.4063,-9.40625 24.7031,-9.40625 C26.7969,-9.40625 28,-8.40625 28.7969,-7 C29.1094,-6.40625 29.4063,-5.70313 29.4063,-4.90625 C29.4063,-2.70313 27.1094,0 19.2969,5.09375" transform="translate(2647.22 1619.77) scale(1.90715)"/>
	<path class="Note" d="M10.7969,14 C20.7031,14 32.9063,4.79688 32.9063,-4.70313 C32.9063,-10.2969 28.4063,-14 22,-14 C9.79688,-14 0,-4.90625 0,4.70313 C0,10.5 4.79688,14 10.7969,14" transform="translate(517.798 2382.63) scale(1.90715)"/>
	<path class="Note" d="M10.7969,14 C20.7031,14 32.9063,4.79688 32.9063,-4.70313 C32.9063,-10.2969 28.4063,-14 22,-14 C9.79688,-14 0,-4.90625 0,4.70313 C0,10.5 4.79688,14 10.7969,14" transform="translate(723.399 2358.79) scale(1.90715)"/>
	<path class="Note" d="M10.7969,14 C20.7031,14 32.9063,4.79688 32.9063,-4.70313 C32.9063,-10.2969 28.4063,-14 22,-14 C9.79688,-14 0,-4.90625 0,4.70313 C0,10.5 4.79688,14 10.7969,14" transform="translate(828.783 2334.95) scale(1.90715)"/>
	<path class="Note" d="M10.7969,14 C20.7031,14 32.9063,4.79688 32.9063,-4.70313 C32.9063,-10.2969 28.4063,-14 22,-14 C9.79688,-14 0,-4.90625 0,4.70313 C0,10.5 4.79688,14 10.7969,14" transform="translate(997.396 2334.95) scale(1.90715)"/>
	<path class="Note" d="M10.7969,14 C20.7031,14 32.9063,4.79688 32.9063,-4.70313 C32.9063,-10.2969 28.4063,-14 22,-14 C9.79688,-14 0,-4.90625 0,4.70313 C0,10.5 4.79688,14 10.7969,14" transform="translate(1221.32 2358.79) scale(1.90715)"/>
	<path class="Note" d="M10.7969,14 C20.7031,14 32.9063,4.79688 32.9063,-4.70313 C32.9063,-10.2969 28.4063,-14 22,-14 C9.79688,-14 0,-4.90625 0,4.70313 C0,10.5 4.79688,14 10.7969,14" transform="translate(1388.37 2406.47) scale(1.90715)"/>
	<path class="Note" d="M10.7969,14 C20.7031,14 32.9063,4.79688 32.9063,-4.70313 C32.9063,-10.2969 28.4063,-14 22,-14 C9.79688,-14 0,-4.90625 0,4.70313 C0,10.5 4.79688,14 10.7969,14" transform="translate(1555.41 2358.79) scale(1.90715)"/>
	<path class="Note" d="M10.7969,14 C20.7031,14 32.9063,4.79688 32.9063,-4.70313 C32.9063,-10.2969 28.4063,-14 22,-14 C9.79688,-14 0,-4.90625 0,4.70313 C0,10.5 4.79688,14 10.7969,14" transform="translate(1759.11 2382.63) scale(1.90715)"/>
	<path class="Note" d="M10.7969,14 C29.2031,14 32.9063,-1 32.9063,-4.59375 C32.9063,-10.2969 28.4063,-14 21.9063,-14 C5.20313,-14 0,-1.09375 0,4.70313 C0,10.5938 4.70313,14 10.7969,14 M19.2969,5.09375 C14.2969,8.5 10.7969,9.70313 8.40625,9.70313 C6.09375,9.70313 4.70313,8.5 4,7.09375 C3.59375,6.5 3.29688,5.70313 3.29688,4.90625 C3.29688,2.5 5.70313,-0.59375 13.4063,-5 C18.9063,-8.20313 22.4063,-9.40625 24.7031,-9.40625 C26.7969,-9.40625 28,-8.40625 28.7969,-7 C29.1094,-6.40625 29.4063,-5.70313 29.4063,-4.90625 C29.4063,-2.70313 27.1094,0 19.2969,5.09375" transform="translate(1924.84 2406.47) scale(1.90715)"/>
	<path class="Note" d="M10.7969,14 C29.2031,14 32.9063,-1 32.9063,-4.59375 C32.9063,-10.2969 28.4063,-14 21.9063,-14 C5.20313,-14 0,-1.09375 0,4.70313 C0,10.5938 4.70313,14 10.7969,14 M19.2969,5.09375 C14.2969,8.5 10.7969,9.70313 8.40625,9.70313 C6.09375,9.70313 4.70313,8.5 4,7.09375 C3.59375,6.5 3.29688,5.70313 3.29688,4.90625 C3.29688,2.5 5.70313,-0.59375 13.4063,-5 C18.9063,-8.20313 22.4063,-9.40625 24.7031,-9.40625 C26.7969,-9.40625 28,-8.40625 28.7969,-7 C29.1094,-6.40625 29.4063,-5.70313 29.4063,-4.90625 C29.4063,-2.70313 27.1094,0 19.2969,5.09375" transform="translate(2137.9 2430.31) scale(1.90715)"/>
	<path class="Note" d="M23.5,-13.7031 C9,-13.7031 0,-7.59375 0,-0.203125 C0,7.09375 6.20313,13.5938 22.4063,13.5938 C40.2031,13.5938 45.9063,7.40625 45.9063,-0.203125 C45.9063,-7.90625 33.6094,-13.7031 23.5,-13.7031 M12.0938,-6.90625 C13.2969,-10.5938 17.2969,-11.2031 20.7031,-11.2031 C28.1094,-11.2031 34.1094,-3.20313 34.1094,3.40625 C34.1094,4.09375 34,4.79688 33.9063,5.40625 C33.4063,8.09375 31.7969,10 29.1094,10.7031 C28,11 26.9063,11.0938 25.7969,11.0938 C24.7969,11.0938 23.9063,11 22.9063,10.7031 C21.0938,10.0938 19.2969,9.09375 17.7969,7.79688 C17,7.09375 16.2031,6.29688 15.5,5.40625 C13.4063,2.90625 11.7031,-0.796875 11.7031,-4.20313 C11.7031,-5.09375 11.7969,-6 12.0938,-6.90625" transform="translate(2406.27 2454.15) scale(1.90715)"/>
	<path class="Clef" d="M47,-94.3125 C50.2969,-94.3125 53,-91.6094 53,-86.1094 C53,-79.2031 49.7031,-72.7969 41.9063,-65 C40.2969,-63.4063 37.9063,-61.1094 35.6094,-59.1094 C34.9063,-58.5 34.5,-58.6094 34.2969,-59.9063 C33.9063,-62.5 33.7031,-65.9063 33.7031,-69.1094 C33.7031,-84.7031 40.9063,-94.3125 47,-94.3125 M43,-10.2969 C42.7969,-11.5 42.9063,-11.7969 44.1094,-11.7031 C52.2031,-11 58.9063,-4.20313 58.9063,4.59375 C58.9063,10.9063 55.1094,16 49.5,18.7969 C48.2969,19.4063 48.1094,19.4063 47.9063,18.2031 L43,-10.2969 M36.1094,-26.2031 C36.4063,-24.2969 36.4063,-24.4063 34.6094,-23.7969 C25.7969,-20.7969 20.0938,-12.9063 20.0938,-4.40625 C20.0938,4.59375 24.7969,11 31.6094,13.2969 C32.4063,13.5938 33.6094,13.9063 34.2969,13.9063 C35.1094,13.9063 35.5,13.4063 35.5,12.7969 C35.5,12.0938 34.7031,11.7969 34,11.5 C29.7969,9.70313 26.7969,5.40625 26.7969,0.796875 C26.7969,-4.90625 30.7031,-9.20313 36.7969,-10.9063 C38.4063,-11.2969 38.6094,-11.2031 38.7969,-10.0938 L43.7969,19.7031 C44,20.7969 43.9063,20.7969 42.4063,21.0938 C40.7969,21.4063 38.7969,21.5938 36.7969,21.5938 C19.2969,21.5938 8,11.9063 8,-2 C8,-7.90625 9,-15.7969 17.2969,-25.2031 C23.2969,-31.9063 27.9063,-35.6094 32.6094,-39.4063 C33.6094,-40.2031 33.7969,-40.1094 34,-39 L36.1094,-26.2031 M37.6094,-41.5 C37.4063,-42.7031 37.6094,-42.7969 38.2031,-43.4063 C39.7969,-44.9063 41.9063,-47 43.7969,-49.1094 C52.2031,-58.2969 57.2031,-70.2031 57.2031,-81.5 C57.2031,-90.2031 54.7969,-98.8125 50.7031,-104.813 C49.2031,-107 46.6094,-109.813 45.5,-109.813 C44.1094,-109.813 41,-107.203 39,-105 C31.6094,-96.8125 29.2031,-84.3125 29.2031,-73.9063 C29.2031,-68.1094 29.9063,-61.6094 30.6094,-57.5 C30.7969,-56.2969 30.9063,-56.1094 29.7031,-55.1094 C23.2969,-49.7969 16.4063,-43.7031 11.2031,-37.2969 C4.29688,-28.7031 0,-19.4063 0,-8.70313 C0,8.70313 11.9063,25.2031 36.4063,25.2031 C38.7031,25.2031 41.2969,25 43.2969,24.5938 C44.4063,24.4063 44.6094,24.2969 44.7969,25.5 C46,32.2031 47.5,40.9063 47.5,45.6094 C47.5,60.4063 37.5,62.2031 31.6094,62.2031 C26.2031,62.2031 23.5938,60.6094 23.5938,59.2969 C23.5938,58.6094 24.5,58.2969 26.7969,57.6094 C29.9063,56.7031 33.5,54 33.5,48.2031 C33.5,42.7031 30,38 23.9063,38 C17.2031,38 13.2031,43.2969 13.2031,49.5 C13.2031,56 17.0938,65.7969 32.2031,65.7969 C38.9063,65.7969 51.9063,62.7969 51.9063,45.7969 C51.9063,40.1094 50.1094,30.6094 49,24.4063 C48.7969,23.2031 48.9063,23.2969 50.2969,22.7031 C60.4063,18.7031 67.1094,10.2031 67.1094,-1.09375 C67.1094,-13.9063 57.7031,-25.2031 43,-25.2031 C40.4063,-25.2031 40.4063,-25.2031 40.1094,-27 L37.6094,-41.5" transform="translate(179.875 618.52) scale(1.90715)"/>
	<path class="Clef" d="M47,-94.3125 C50.2969,-94.3125 53,-91.6094 53,-86.1094 C53,-79.2031 49.7031,-72.7969 41.9063,-65 C40.2969,-63.4063 37.9063,-61.1094 35.6094,-59.1094 C34.9063,-58.5 34.5,-58.6094 34.2969,-59.9063 C33.9063,-62.5 33.7031,-65.9063 33.7031,-69.1094 C33.7031,-84.7031 40.9063,-94.3125 47,-94.3125 M43,-10.2969 C42.7969,-11.5 42.9063,-11.7969 44.1094,-11.7031 C52.2031,-11 58.9063,-4.20313 58.9063,4.59375 C58.9063,10.9063 55.1094,16 49.5,18.7969 C48.2969,19.4063 48.1094,19.4063 47.9063,18.2031 L43,-10.2969 M36.1094,-26.2031 C36.4063,-24.2969 36.4063,-24.4063 34.6094,-23.7969 C25.7969,-20.7969 20.0938,-12.9063 20.0938,-4.40625 C20.0938,4.59375 24.7969,11 31.6094,13.2969 C32.4063,13.5938 33.6094,13.9063 34.2969,13.9063 C35.1094,13.9063 35.5,13.4063 35.5,12.7969 C35.5,12.0938 34.7031,11.7969 34,11.5 C29.7969,9.70313 26.7969,5.40625 26.7969,0.796875 C26.7969,-4.90625 30.7031,-9.20313 36.7969,-10.9063 C38.4063,-11.2969 38.6094,-11.2031 38.7969,-10.0938 L43.7969,19.7031 C44,20.7969 43.9063,20.7969 42.4063,21.0938 C40.7969,21.4063 38.7969,21.5938 36.7969,21.5938 C19.2969,21.5938 8,11.9063 8,-2 C8,-7.90625 9,-15.7969 17.2969,-25.2031 C23.2969,-31.9063 27.9063,-35.6094 32.6094,-39.4063 C33.6094,-40.2031 33.7969,-40.1094 34,-39 L36.1094,-26.2031 M37.6094,-41.5 C37.4063,-42.7031 37.6094,-42.7969 38.2031,-43.4063 C39.7969,-44.9063 41.9063,-47 43.7969,-49.1094 C52.2031,-58.2969 57.2031,-70.2031 57.2031,-81.5 C57.2031,-90.2031 54.7969,-98.8125 50.7031,-104.813 C49.2031,-107 46.6094,-109.813 45.5,-109.813 C44.1094,-109.813 41,-107.203 39,-105 C31.6094,-96.8125 29.2031,-84.3125 29.2031,-73.9063 C29.2031,-68.1094 29.9063,-61.6094 30.6094,-57.5 C30.7969,-56.2969 30.9063,-56.1094 29.7031,-55.1094 C23.2969,-49.7969 16.4063,-43.7031 11.2031,-37.2969 C4.29688,-28.7031 0,-19.4063 0,-8.70313 C0,8.70313 11.9063,25.2031 36.4063,25.2031 C38.7031,25.2031 41.2969,25 43.2969,24.5938 C44.4063,24.4063 44.6094,24.2969 44.7969,25.5 C46,32.2031 47.5,40.9063 47.5,45.6094 C47.5,60.4063 37.5,62.2031 31.6094,62.2031 C26.2031,62.2031 23.5938,60.6094 23.5938,59.2969 C23.5938,58.6094 24.5,58.2969 26.7969,57.6094 C29.9063,56.7031 33.5,54 33.5,48.2031 C33.5,42.7031 30,38 23.9063,38 C17.2031,38 13.2031,43.2969 13.2031,49.5 C13.2031,56 17.0938,65.7969 32.2031,65.7969 C38.9063,65.7969 51.9063,62.7969 51.9063,45.7969 C51.9063,40.1094 50.1094,30.6094 49,24.4063 C48.7969,23.2031 48.9063,23.2969 50.2969,22.7031 C60.4063,18.7031 67.1094,10.2031 67.1094,-1.09375 C67.1094,-13.9063 57.7031,-25.2031 43,-25.2031 C40.4063,-25.2031 40.4063,-25.2031 40.1094,-27 L37.6094,-41.5" transform="translate(179.875 1524.42) scale(1.90715)"/>
	<path class="Clef" d="M47,-94.3125 C50.2969,-94.3125 53,-91.6094 53,-86.1094 C53,-79.2031 49.7031,-72.7969 41.9063,-65 C40.2969,-63.4063 37.9063,-61.1094 35.6094,-59.1094 C34.9063,-58.5 34.5,-58.6094 34.2969,-59.9063 C33.9063,-62.5 33.7031,-65.9063 33.7031,-69.1094 C33.7031,-84.7031 40.9063,-94.3125 47,-94.3125 M43,-10.2969 C42.7969,-11.5 42.9063,-11.7969 44.1094,-11.7031 C52.2031,-11 58.9063,-4.20313 58.9063,4.59375 C58.9063,10.9063 55.1094,16 49.5,18.7969 C48.2969,19.4063 48.1094,19.4063 47.9063,18.2031 L43,-10.2969 M36.1094,-26.2031 C36.4063,-24.2969 36.4063,-24.4063 34.6094,-23.7969 C25.7969,-20.7969 20.0938,-12.9063 20.0938,-4.40625 C20.0938,4.59375 24.7969,11 31.6094,13.2969 C32.4063,13.5938 33.6094,13.9063 34.2969,13.9063 C35.1094,13.9063 35.5,13.4063 35.5,12.7969 C35.5,12.0938 34.7031,11.7969 34,11.5 C29.7969,9.70313 26.7969,5.40625 26.7969,0.796875 C26.7969,-4.90625 30.7031,-9.20313 36.7969,-10.9063 C38.4063,-11.2969 38.6094,-11.2031 38.7969,-10.0938 L43.7969,19.7031 C44,20.7969 43.9063,20.7969 42.4063,21.0938 C40.7969,21.4063 38.7969,21.5938 36.7969,21.5938 C19.2969,21.5938 8,11.9063 8,-2 C8,-7.90625 9,-15.7969 17.2969,-25.2031 C23.2969,-31.9063 27.9063,-35.6094 32.6094,-39.4063 C33.6094,-40.2031 33.7969,-40.1094 34,-39 L36.1094,-26.2031 M37.6094,-41.5 C37.4063,-42.7031 37.6094,-42.7969 38.2031,-43.4063 C39.7969,-44.9063 41.9063,-47 43.7969,-49.1094 C52.2031,-58.2969 57.2031,-70.2031 57.2031,-81.5 C57.2031,-90.2031 54.7969,-98.8125 50.7031,-104.813 C49.2031,-107 46.6094,-109.813 45.5,-109.813 C44.1094,-109.813 41,-107.203 39,-105 C31.6094,-96.8125 29.2031,-84.3125 29.2031,-73.9063 C29.2031,-68.1094 29.9063,-61.6094 30.6094,-57.5 C30.7969,-56.2969 30.9063,-56.1094 29.7031,-55.1094 C23.2969,-49.7969 16.4063,-43.7031 11.2031,-37.2969 C4.29688,-28.7031 0,-19.4063 0,-8.70313 C0,8.70313 11.9063,25.2031 36.4063,25.2031 C38.7031,25.2031 41.2969,25 43.2969,24.5938 C44.4063,24.4063 44.6094,24.2969 44.7969,25.5 C46,32.2031 47.5,40.9063 47.5,45.6094 C47.5,60.4063 37.5,62.2031 31.6094,62.2031 C26.2031,62.2031 23.5938,60.6094 23.5938,59.2969 C23.5938,58.6094 24.5,58.2969 26.7969,57.6094 C29.9063,56.7031 33.5,54 33.5,48.2031 C33.5,42.7031 30,38 23.9063,38 C17.2031,38 13.2031,43.2969 13.2031,49.5 C13.2031,56 17.0938,65.7969 32.2031,65.7969 C38.9063,65.7969 51.9063,62.7969 51.9063,45.7969 C51.9063,40.1094 50.1094,30.6094 49,24.4063 C48.7969,23.2031 48.9063,23.2969 50.2969,22.7031 C60.4063,18.7031 67.1094,10.2031 67.1094,-1.09375 C67.1094,-13.9063 57.7031,-25.2031 43,-25.2031 C40.4063,-25.2031 40.4063,-25.2031 40.1094,-27 L37.6094,-41.5" transform="translate(179.875 2430.31) scale(1.90715)"/>
	<path class="KeySig" d="M4.70313,8.09375 C4.70313,8.09375 4.40625,2.09375 4.40625,-1.90625 C4.40625,-3.5 4.5,-4.70313 4.59375,-5.09375 C5,-6.29688 7.59375,-8.5 9,-9.29688 C9.90625,-9.79688 10.7969,-10 11.5938,-10 C12.5938,-10 13.5,-9.59375 14.0938,-8.90625 C15.0938,-7.79688 15.7031,-6.09375 15.7031,-4.20313 C15.7031,-2.40625 15.2031,-0.296875 14,1.79688 C12.7031,4.20313 9.79688,7.40625 6.79688,9.29688 C6.40625,9.5 6.09375,9.59375 5.79688,9.59375 C4.90625,9.59375 4.70313,8.59375 4.70313,8.09375 M1.20313,17 C1.5,17.4063 1.79688,17.5 2.09375,17.5 C2.40625,17.5 2.70313,17.2969 2.70313,17.2969 C5.70313,15.5938 8.09375,12.9063 10.5938,11.2031 C19.5,5 22.5938,-1.09375 22.5938,-5.70313 C22.5938,-11.4063 18.2031,-15 13.5938,-15.2969 C12.9063,-15.2969 12.2031,-15.2031 11.5,-15 C10.4063,-14.7031 9.20313,-14.2969 8.09375,-13.5938 C7.5,-13.0938 6.40625,-12.2031 5.90625,-12.2031 C5.70313,-12.2031 5.59375,-12.2031 5.40625,-12.2969 C4.70313,-12.5938 4.29688,-13.2969 4.29688,-14 C4.40625,-16.2031 5,-40.2031 5,-42.2031 C5,-43.2969 4.09375,-43.9063 3.09375,-43.9063 C1.70313,-43.9063 0.09375,-42.9063 0,-41.1094 C0,-41.1094 0.40625,16 1.20313,17" transform="translate(355.512 570.841) scale(1.90715)"/>
	<path class="KeySig" d="M4.70313,8.09375 C4.70313,8.09375 4.40625,2.09375 4.40625,-1.90625 C4.40625,-3.5 4.5,-4.70313 4.59375,-5.09375 C5,-6.29688 7.59375,-8.5 9,-9.29688 C9.90625,-9.79688 10.7969,-10 11.5938,-10 C12.5938,-10 13.5,-9.59375 14.0938,-8.90625 C15.0938,-7.79688 15.7031,-6.09375 15.7031,-4.20313 C15.7031,-2.40625 15.2031,-0.296875 14,1.79688 C12.7031,4.20313 9.79688,7.40625 6.79688,9.29688 C6.40625,9.5 6.09375,9.59375 5.79688,9.59375 C4.90625,9.59375 4.70313,8.59375 4.70313,8.09375 M1.20313,17 C1.5,17.4063 1.79688,17.5 2.09375,17.5 C2.40625,17.5 2.70313,17.2969 2.70313,17.2969 C5.70313,15.5938 8.09375,12.9063 10.5938,11.2031 C19.5,5 22.5938,-1.09375 22.5938,-5.70313 C22.5938,-11.4063 18.2031,-15 13.5938,-15.2969 C12.9063,-15.2969 12.2031,-15.2031 11.5,-15 C10.4063,-14.7031 9.20313,-14.2969 8.09375,-13.5938 C7.5,-13.0938 6.40625,-12.2031 5.90625,-12.2031 C5.70313,-12.2031 5.59375,-12.2031 5.40625,-12.2969 C4.70313,-12.5938 4.29688,-13.2969 4.29688,-14 C4.40625,-16.2031 5,-40.2031 5,-42.2031 C5,-43.2969 4.09375,-43.9063 3.09375,-43.9063 C1.70313,-43.9063 0.09375,-42.9063 0,-41.1094 C0,-41.1094 0.40625,16 1.20313,17" transform="translate(355.512 1476.74) scale(1.90715)"/>
	<path class="KeySig" d="M4.70313,8.09375 C4.70313,8.09375 4.40625,2.09375 4.40625,-1.90625 C4.40625,-3.5 4.5,-4.70313 4.59375,-5.09375 C5,-6.29688 7.59375,-8.5 9,-9.29688 C9.90625,-9.79688 10.7969,-10 11.5938,-10 C12.5938,-10 13.5,-9.59375 14.0938,-8.90625 C15.0938,-7.79688 15.7031,-6.09375 15.7031,-4.20313 C15.7031,-2.40625 15.2031,-0.296875 14,1.79688 C12.7031,4.20313 9.79688,7.40625 6.79688,9.29688 C6.40625,9.5 6.09375,9.59375 5.79688,9.59375 C4.90625,9.59375 4.70313,8.59375 4.70313,8.09375 M1.20313,17 C1.5,17.4063 1.79688,17.5 2.09375,17.5 C2.40625,17.5 2.70313,17.2969 2.70313,17.2969 C5.70313,15.5938 8.09375,12.9063 10.5938,11.2031 C19.5,5 22.5938,-1.09375 22.5938,-5.70313 C22.5938,-11.4063 18.2031,-15 13.5938,-15.2969 C12.9063,-15.2969 12.2031,-15.2031 11.5,-15 C10.4063,-14.7031 9.20313,-14.2969 8.09375,-13.5938 C7.5,-13.0938 6.40625,-12.2031 5.90625,-12.2031 C5.70313,-12.2031 5.59375,-12.2031 5.40625,-12.2969 C4.70313,-12.5938 4.29688,-13.2969 4.29688,-14 C4.40625,-16.2031 5,-40.2031 5,-42.2031 C5,-43.2969 4.09375,-43.9063 3.09375,-43.9063 C1.70313,-43.9063 0.09375,-42.9063 0,-41.1094 C0,-41.1094 0.40625,16 1.20313,17" transform="translate(355.512 2382.63) scale(1.90715)"/>
	<path class="Hook" d="M23.7969,79 C23.7969,79 26.4063,69.5 26.4063,61.7031 C26.4063,49.2031 21.2031,37.4063 14.9063,27.4063 C9.79688,19.5 5.59375,10.9063 4,1.29688 C3.70313,-0.296875 2.90625,-0.90625 1,-0.90625 C0.40625,-0.90625 0,-0.59375 0,0.59375 L0,24.5 C6.59375,25.7031 16.0938,39.2969 19.7031,47.7969 C21.2031,51.2031 22.0938,56.9063 22.0938,62.7969 C22.0938,67.2969 21.4063,72 19.7031,76.5 C19.5,77.1094 19.4063,77.6094 19.4063,78 C19.4063,79.6094 20.4063,80.5 21,80.9063 C21.5938,81.3125 23.2969,80.7031 23.7969,79" transform="translate(778.234 477.197) scale(1.90715)"/>
	<path class="Hook" d="M24,-76 C25.4063,-71.7969 26.1094,-66.7969 26.1094,-62.2969 C26.1094,-56.4063 23.5938,-48 22.0938,-44.6094 C18.4063,-36.2031 13.4063,-28.1094 0,-23.5938 L0,-0.09375 C0,1.09375 0.5,1.40625 1.09375,1.40625 C3,1.40625 3.79688,0.796875 4,-0.796875 C5.70313,-10.2969 13.0938,-19 18.2031,-26.9063 C24.5,-36.7969 30.6094,-48.7031 30.6094,-61.2031 C30.6094,-69 28.6094,-76.1094 27.7969,-79.3125 C27,-82.5 22.5,-80.3125 24,-76" transform="translate(1049.64 711.016) scale(1.90715)"/>
	<path class="Hook" d="M23.7969,79 C23.7969,79 26.4063,69.5 26.4063,61.7031 C26.4063,49.2031 21.2031,37.4063 14.9063,27.4063 C9.79688,19.5 5.59375,10.9063 4,1.29688 C3.70313,-0.296875 2.90625,-0.90625 1,-0.90625 C0.40625,-0.90625 0,-0.59375 0,0.59375 L0,24.5 C6.59375,25.7031 16.0938,39.2969 19.7031,47.7969 C21.2031,51.2031 22.0938,56.9063 22.0938,62.7969 C22.0938,67.2969 21.4063,72 19.7031,76.5 C19.5,77.1094 19.4063,77.6094 19.4063,78 C19.4063,79.6094 20.4063,80.5 21,80.9063 C21.5938,81.3125 23.2969,80.7031 23.7969,79" transform="translate(2003.42 477.197) scale(1.90715)"/>
	<path class="Hook" d="M23.7969,79 C23.7969,79 26.4063,69.5 26.4063,61.7031 C26.4063,49.2031 21.2031,37.4063 14.9063,27.4063 C9.79688,19.5 5.59375,10.9063 4,1.29688 C3.70313,-0.296875 2.90625,-0.90625 1,-0.90625 C0.40625,-0.90625 0,-0.59375 0,0.59375 L0,24.5 C6.59375,25.7031 16.0938,39.2969 19.7031,47.7969 C21.2031,51.2031 22.0938,56.9063 22.0938,62.7969 C22.0938,67.2969 21.4063,72 19.7031,76.5 C19.5,77.1094 19.4063,77.6094 19.4063,78 C19.4063,79.6094 20.4063,80.5 21,80.9063 C21.5938,81.3125 23.2969,80.7031 23.7969,79" transform="translate(778.234 1383.09) scale(1.90715)"/>
	<path class="Hook" d="M24,-76 C25.4063,-71.7969 26.1094,-66.7969 26.1094,-62.2969 C26.1094,-56.4063 23.5938,-48 22.0938,-44.6094 C18.4063,-36.2031 13.4063,-28.1094 0,-23.5938 L0,-0.09375 C0,1.09375 0.5,1.40625 1.09375,1.40625 C3,1.40625 3.79688,0.796875 4,-0.796875 C5.70313,-10.2969 13.0938,-19 18.2031,-26.9063 C24.5,-36.7969 30.6094,-48.7031 30.6094,-61.2031 C30.6094,-69 28.6094,-76.1094 27.7969,-79.3125 C27,-82.5 22.5,-80.3125 24,-76" transform="translate(1049.64 1616.91) scale(1.90715)"/>
	<path class="Hook" d="M23.7969,79 C23.7969,79 26.4063,69.5 26.4063,61.7031 C26.4063,49.2031 21.2031,37.4063 14.9063,27.4063 C9.79688,19.5 5.59375,10.9063 4,1.29688 C3.70313,-0.296875 2.90625,-0.90625 1,-0.90625 C0.40625,-0.90625 0,-0.59375 0,0.59375 L0,24.5 C6.59375,25.7031 16.0938,39.2969 19.7031,47.7969 C21.2031,51.2031 22.0938,56.9063 22.0938,62.7969 C22.0938,67.2969 21.4063,72 19.7031,76.5 C19.5,77.1094 19.4063,77.6094 19.4063,78 C19.4063,79.6094 20.4063,80.5 21,80.9063 C21.5938,81.3125 23.2969,80.7031 23.7969,79" transform="translate(2003.42 1383.09) scale(1.90715)"/>
	<path class="Hook" d="M24,-76 C25.4063,-71.7969 26.1094,-66.7969 26.1094,-62.2969 C26.1094,-56.4063 23.5938,-48 22.0938,-44.6094 C18.4063,-36.2031 13.4063,-28.1094 0,-23.5938 L0,-0.09375 C0,1.09375 0.5,1.40625 1.09375,1.40625 C3,1.40625 3.79688,0.796875 4,-0.796875 C5.70313,-10.2969 13.0938,-19 18.2031,-26.9063 C24.5,-36.7969 30.6094,-48.7031 30.6094,-61.2031 C30.6094,-69 28.6094,-76.1094 27.7969,-79.3125 C27,-82.5 22.5,-80.3125 24,-76" transform="translate(723.399 2522.81) scale(1.90715)"/>
	<path class="Hook" d="M24,-76 C25.4063,-71.7969 26.1094,-66.7969 26.1094,-62.2969 C26.1094,-56.4063 23.5938,-48 22.0938,-44.6094 C18.4063,-36.2031 13.4063,-28.1094 0,-23.5938 L0,-0.09375 C0,1.09375 0.5,1.40625 1.09375,1.40625 C3,1.40625 3.79688,0.796875 4,-0.796875 C5.70313,-10.2969 13.0938,-19 18.2031,-26.9063 C24.5,-36.7969 30.6094,-48.7031 30.6094,-61.2031 C30.6094,-69 28.6094,-76.1094 27.7969,-79.3125 C27,-82.5 22.5,-80.3125 24,-76" transform="translate(1759.11 2546.65) scale(1.90715)"/>
	<path class="NoteDot" d="M10,0 C10,-2.79688 7.79688,-5 5,-5 C2.20313,-5 0,-2.79688 0,0 C0,2.79688 2.20313,5 5,5 C7.79688,5 10,2.79688 10,0" transform="translate(597.228 642.359) scale(1.90715)"/>
	<path class="NoteDot" d="M10,0 C10,-2.79688 7.79688,-5 5,-5 C2.20313,-5 0,-2.79688 0,0 C0,2.79688 2.20313,5 5,5 C7.79688,5 10,2.79688 10,0" transform="translate(925.651 547.002) scale(1.90715)"/>
	<path class="NoteDot" d="M10,0 C10,-2.79688 7.79688,-5 5,-5 C2.20313,-5 0,-2.79688 0,0 C0,2.79688 2.20313,5 5,5 C7.79688,5 10,2.79688 10,0" transform="translate(1846.16 642.359) scale(1.90715)"/>
	<path class="NoteDot" d="M10,0 C10,-2.79688 7.79688,-5 5,-5 C2.20313,-5 0,-2.79688 0,0 C0,2.79688 2.20313,5 5,5 C7.79688,5 10,2.79688 10,0" transform="translate(597.228 1548.26) scale(1.90715)"/>
	<path class="NoteDot" d="M10,0 C10,-2.79688 7.79688,-5 5,-5 C2.20313,-5 0,-2.79688 0,0 C0,2.79688 2.20313,5 5,5 C7.79688,5 10,2.79688 10,0" transform="translate(925.651 1452.9) scale(1.90715)"/>
	<path class="NoteDot" d="M10,0 C10,-2.79688 7.79688,-5 5,-5 C2.20313,-5 0,-2.79688 0,0 C0,2.79688 2.20313,5 5,5 C7.79688,5 10,2.79688 10,0" transform="translate(1846.16 1548.26) scale(1.90715)"/>
	<path class="NoteDot" d="M10,0 C10,-2.79688 7.79688,-5 5,-5 C2.20313,-5 0,-2.79688 0,0 C0,2.79688 2.20313,5 5,5 C7.79688,5 10,2.79688 10,0" transform="translate(597.228 2358.79) scale(1.90715)"/>
	<path class="NoteDot" d="M10,0 C10,-2.79688 7.79688,-5 5,-5 C2.20313,-5 0,-2.79688 0,0 C0,2.79688 2.20313,5 5,5 C7.79688,5 10,2.79688 10,0" transform="translate(1634.84 2358.79) scale(1.90715)"/>
</svg>
