<?xml version="1.0" encoding="utf-8"?>
<svg xmlns="http://www.w3.org/2000/svg" version="1.2" viewBox="0 0 2977.23 4208.46">
	<title>A music sheet compose of three lines and three staffs each depicting the melody of the "Ting, Ting, Ting"</title>
	<desc>Generated by MuseScore 3.2.3</desc>
	<path class="StaffLines" d="M141.732 475.483 2835.5 475.483M141.732 523.162 2835.5 523.162M141.732 570.841 2835.5 570.841M141.732 618.52 2835.5 618.52M141.732 666.198 2835.5 666.198M141.732 1381.38 2835.5 1381.38M141.732 1429.06 2835.5 1429.06M141.732 1476.74 2835.5 1476.74M141.732 1524.42 2835.5 1524.42M141.732 1572.09 2835.5 1572.09M141.732 2287.28 2835.5 2287.28M141.732 2334.95 2835.5 2334.95M141.732 2382.63 2835.5 2382.63M141.732 2430.31 2835.5 2430.31M141.732 2477.99 2835.5 2477.99" fill="none" stroke="#000" stroke-linejoin="bevel" stroke-width="6.2"/>
	<path class="BarLine" d="M1163.87 472.384 1163.87 669.298M1715.24 472.384 1715.24 669.298M2369.91 472.384 2369.91 669.298M2831.68 472.384 2831.68 669.298M1163.87 1378.28 1163.87 1575.19M1715.24 1378.28 1715.24 1575.19M2369.91 1378.28 2369.91 1575.19M2831.68 1378.28 2831.68 1575.19M1169.82 2284.18 1169.82 2481.09M1873.34 2284.18 1873.34 2481.09M2354.78 2284.18 2354.78 2481.09M2788.77 2284.18 2788.77 2481.09" fill="none" stroke="#000" stroke-linejoin="bevel" stroke-width="7.63"/>
	<path class="BarLine" d="M2823.58 2284.18 2823.58 2481.09" fill="none" stroke="#000" stroke-linejoin="bevel" stroke-width="23.84"/>
	<path class="LedgerLine" d="M2637.68 713.877 2719.49 713.877M2637.68 1619.77 2719.49 1619.77" fill="none" stroke="#000" stroke-linecap="square" stroke-linejoin="bevel" stroke-width="7.63"/>
	<path class="Stem" d="M577.68 635.951 577.68 475.483M781.095 635.951 781.095 475.483M849.082 553.41 849.082 701.957M1052.5 553.41 1052.5 713.877M1274.83 416.31 1274.83 558.898M1399.26 588.272 1399.26 439.724M1523.28 612.112 1523.28 457.604M1647.29 635.951 1647.29 475.483M1826.61 635.951 1826.61 475.483M2006.28 635.951 2006.28 475.483M2131.29 635.951 2131.29 475.483M2278.63 588.272 2278.63 439.724M2481.29 612.112 2481.29 457.604M2594.19 659.79 2594.19 499.323M2707.1 707.469 2707.1 547.002M577.68 1541.85 577.68 1381.38M781.095 1541.85 781.095 1381.38M849.082 1459.31 849.082 1607.85M1052.5 1459.31 1052.5 1619.77M1275.05 1327.39 1275.05 1469.97M1399.26 1494.17 1399.26 1345.62M1523.28 1518.01 1523.28 1363.5M1647.29 1541.85 1647.29 1381.38M1826.61 1541.85 1826.61 1381.38M2006.28 1541.85 2006.28 1381.38M2131.29 1541.85 2131.29 1381.38M2278.63 1494.17 2278.63 1345.62M2481.29 1518.01 2481.29 1363.5M2594.19 1565.69 2594.19 1405.22M2707.1 1613.37 2707.1 1452.9M520.659 2389.04 520.659 2531.63M726.26 2365.2 726.26 2525.67M831.643 2341.36 831.643 2495.87M1000.26 2341.36 1000.26 2495.87M1224.18 2365.2 1224.18 2513.75M1448.25 2400.06 1448.25 2251.52M1558.28 2365.2 1558.28 2513.75M1761.97 2389.04 1761.97 2549.51M1984.72 2400.06 1984.72 2251.52M2197.78 2423.9 2197.78 2269.4" fill="none" stroke="#000" stroke-linecap="round" stroke-linejoin="bevel" stroke-width="5.72"/>
	<path class="Note" d="M538.389 669.059C557.282 669.059 580.555 651.507 580.555 633.389 580.555 622.721 571.973 615.659 559.755 615.659 536.482 615.659 517.798 633.002 517.798 651.329 517.798 662.384 526.946 669.059 538.389 669.059M741.805 669.059C760.698 669.059 783.971 651.507 783.971 633.389 783.971 622.721 775.389 615.659 763.171 615.659 739.898 615.659 721.214 633.002 721.214 651.329 721.214 662.384 730.362 669.059 741.805 669.059M866.812 573.702C885.705 573.702 908.978 556.15 908.978 538.032 908.978 527.364 900.396 520.302 888.178 520.302 864.905 520.302 846.221 537.645 846.221 555.972 846.221 567.027 855.369 573.702 866.812 573.702M1070.23 573.702C1089.12 573.702 1112.4 556.15 1112.4 538.032 1112.4 527.364 1103.82 520.302 1091.6 520.302 1068.32 520.302 1049.64 537.645 1049.64 555.972 1049.64 567.027 1058.79 573.702 1070.23 573.702M1235.95 597.541C1254.84 597.541 1278.12 579.989 1278.12 561.871 1278.12 551.203 1269.54 544.141 1257.32 544.141 1234.04 544.141 1215.36 561.484 1215.36 579.811 1215.36 590.866 1224.51 597.541 1235.95 597.541M1359.97 621.38C1378.86 621.38 1402.14 603.828 1402.14 585.71 1402.14 575.042 1393.56 567.98 1381.34 567.98 1358.06 567.98 1339.38 585.323 1339.38 603.65 1339.38 614.705 1348.53 621.38 1359.97 621.38M1483.98 645.22C1502.87 645.22 1526.15 627.668 1526.15 609.55 1526.15 598.882 1517.57 591.82 1505.35 591.82 1482.07 591.82 1463.39 609.163 1463.39 627.49 1463.39 638.545 1472.54 645.22 1483.98 645.22M1608 669.059C1626.89 669.059 1650.17 651.507 1650.17 633.389 1650.17 622.721 1641.59 615.659 1629.37 615.659 1606.09 615.659 1587.41 633.002 1587.41 651.329 1587.41 662.384 1596.56 669.059 1608 669.059M1787.32 669.059C1806.21 669.059 1829.49 651.507 1829.49 633.389 1829.49 622.721 1820.91 615.659 1808.69 615.659 1785.41 615.659 1766.73 633.002 1766.73 651.329 1766.73 662.384 1775.88 669.059 1787.32 669.059M1966.99 669.059C1985.88 669.059 2009.16 651.507 2009.16 633.389 2009.16 622.721 2000.58 615.659 1988.36 615.659 1965.08 615.659 1946.4 633.002 1946.4 651.329 1946.4 662.384 1955.55 669.059 1966.99 669.059M2092 669.059C2110.89 669.059 2134.17 651.507 2134.17 633.389 2134.17 622.721 2125.59 615.659 2113.37 615.659 2090.09 615.659 2071.41 633.002 2071.41 651.329 2071.41 662.384 2080.56 669.059 2092 669.059M2239.34 621.38C2258.23 621.38 2281.51 603.828 2281.51 585.71 2281.51 575.042 2272.93 567.98 2260.71 567.98 2237.43 567.98 2218.75 585.323 2218.75 603.65 2218.75 614.705 2227.9 621.38 2239.34 621.38M2441.99 645.22C2460.88 645.22 2484.16 627.668 2484.16 609.55 2484.16 598.882 2475.58 591.82 2463.36 591.82 2440.08 591.82 2421.4 609.163 2421.4 627.49 2421.4 638.545 2430.55 645.22 2441.99 645.22M2554.9 692.898C2573.79 692.898 2597.07 675.346 2597.07 657.228 2597.07 646.56 2588.49 639.498 2576.27 639.498 2552.99 639.498 2534.31 656.841 2534.31 675.168 2534.31 686.223 2543.46 692.898 2554.9 692.898M2667.81 740.577C2702.91 740.577 2709.98 711.97 2709.98 705.116 2709.98 694.239 2701.4 687.177 2689 687.177 2657.14 687.177 2647.22 711.791 2647.22 722.847 2647.22 734.081 2656.19 740.577 2667.81 740.577M2684.02 723.592C2674.49 730.088 2667.81 732.382 2663.25 732.382 2658.84 732.382 2656.19 730.088 2654.85 727.406 2654.07 726.273 2653.51 724.754 2653.51 723.234 2653.51 718.645 2658.1 712.745 2672.79 704.341 2683.28 698.232 2689.95 695.938 2694.33 695.938 2698.33 695.938 2700.62 697.845 2702.14 700.527 2702.74 701.659 2703.3 703 2703.3 704.52 2703.3 708.722 2698.92 713.877 2684.02 723.592M538.389 1574.96C557.282 1574.96 580.555 1557.41 580.555 1539.29 580.555 1528.62 571.973 1521.56 559.755 1521.56 536.482 1521.56 517.798 1538.9 517.798 1557.23 517.798 1568.29 526.946 1574.96 538.389 1574.96M741.805 1574.96C760.698 1574.96 783.971 1557.41 783.971 1539.29 783.971 1528.62 775.389 1521.56 763.171 1521.56 739.898 1521.56 721.214 1538.9 721.214 1557.23 721.214 1568.29 730.362 1574.96 741.805 1574.96M866.812 1479.6C885.705 1479.6 908.978 1462.05 908.978 1443.93 908.978 1433.26 900.396 1426.2 888.178 1426.2 864.905 1426.2 846.221 1443.54 846.221 1461.87 846.221 1472.93 855.369 1479.6 866.812 1479.6M1070.23 1479.6C1089.12 1479.6 1112.4 1462.05 1112.4 1443.93 1112.4 1433.26 1103.82 1426.2 1091.6 1426.2 1068.32 1426.2 1049.64 1443.54 1049.64 1461.87 1049.64 1472.93 1058.79 1479.6 1070.23 1479.6M1235.95 1503.44C1254.84 1503.44 1278.12 1485.89 1278.12 1467.77 1278.12 1457.1 1269.54 1450.04 1257.32 1450.04 1234.04 1450.04 1215.36 1467.38 1215.36 1485.71 1215.36 1496.77 1224.51 1503.44 1235.95 1503.44M1359.97 1527.28C1378.86 1527.28 1402.14 1509.73 1402.14 1491.61 1402.14 1480.94 1393.56 1473.88 1381.34 1473.88 1358.06 1473.88 1339.38 1491.22 1339.38 1509.55 1339.38 1520.61 1348.53 1527.28 1359.97 1527.28M1483.98 1551.12C1502.87 1551.12 1526.15 1533.57 1526.15 1515.45 1526.15 1504.78 1517.57 1497.72 1505.35 1497.72 1482.07 1497.72 1463.39 1515.06 1463.39 1533.39 1463.39 1544.45 1472.54 1551.12 1483.98 1551.12M1608 1574.96C1626.89 1574.96 1650.17 1557.41 1650.17 1539.29 1650.17 1528.62 1641.59 1521.56 1629.37 1521.56 1606.09 1521.56 1587.41 1538.9 1587.41 1557.23 1587.41 1568.29 1596.56 1574.96 1608 1574.96M1787.32 1574.96C1806.21 1574.96 1829.49 1557.41 1829.49 1539.29 1829.49 1528.62 1820.91 1521.56 1808.69 1521.56 1785.41 1521.56 1766.73 1538.9 1766.73 1557.23 1766.73 1568.29 1775.88 1574.96 1787.32 1574.96M1966.99 1574.96C1985.88 1574.96 2009.16 1557.41 2009.16 1539.29 2009.16 1528.62 2000.58 1521.56 1988.36 1521.56 1965.08 1521.56 1946.4 1538.9 1946.4 1557.23 1946.4 1568.29 1955.55 1574.96 1966.99 1574.96M2092 1574.96C2110.89 1574.96 2134.17 1557.41 2134.17 1539.29 2134.17 1528.62 2125.59 1521.56 2113.37 1521.56 2090.09 1521.56 2071.41 1538.9 2071.41 1557.23 2071.41 1568.29 2080.56 1574.96 2092 1574.96M2239.34 1527.28C2258.23 1527.28 2281.51 1509.73 2281.51 1491.61 2281.51 1480.94 2272.93 1473.88 2260.71 1473.88 2237.43 1473.88 2218.75 1491.22 2218.75 1509.55 2218.75 1520.61 2227.9 1527.28 2239.34 1527.28M2441.99 1551.12C2460.88 1551.12 2484.16 1533.57 2484.16 1515.45 2484.16 1504.78 2475.58 1497.72 2463.36 1497.72 2440.08 1497.72 2421.4 1515.06 2421.4 1533.39 2421.4 1544.45 2430.55 1551.12 2441.99 1551.12M2554.9 1598.79C2573.79 1598.79 2597.07 1581.24 2597.07 1563.12 2597.07 1552.45 2588.49 1545.39 2576.27 1545.39 2552.99 1545.39 2534.31 1562.73 2534.31 1581.06 2534.31 1592.12 2543.46 1598.79 2554.9 1598.79M2667.81 1646.47C2702.91 1646.47 2709.98 1617.86 2709.98 1611.01 2709.98 1600.13 2701.4 1593.07 2689 1593.07 2657.14 1593.07 2647.22 1617.68 2647.22 1628.74 2647.22 1639.97 2656.19 1646.47 2667.81 1646.47M2684.02 1629.48C2674.49 1635.98 2667.81 1638.28 2663.25 1638.28 2658.84 1638.28 2656.19 1635.98 2654.85 1633.3 2654.07 1632.17 2653.51 1630.65 2653.51 1629.13 2653.51 1624.54 2658.1 1618.64 2672.79 1610.23 2683.28 1604.13 2689.95 1601.83 2694.33 1601.83 2698.33 1601.83 2700.62 1603.74 2702.14 1606.42 2702.74 1607.55 2703.3 1608.89 2703.3 1610.41 2703.3 1614.61 2698.92 1619.77 2684.02 1629.48M538.389 2409.33C557.282 2409.33 580.555 2391.78 580.555 2373.66 580.555 2362.99 571.973 2355.93 559.755 2355.93 536.482 2355.93 517.798 2373.27 517.798 2391.6 517.798 2402.66 526.946 2409.33 538.389 2409.33M743.99 2385.49C762.883 2385.49 786.156 2367.94 786.156 2349.82 786.156 2339.15 777.574 2332.09 765.356 2332.09 742.083 2332.09 723.399 2349.43 723.399 2367.76 723.399 2378.82 732.547 2385.49 743.99 2385.49M849.374 2361.65C868.267 2361.65 891.54 2344.1 891.54 2325.98 891.54 2315.31 882.958 2308.25 870.74 2308.25 847.467 2308.25 828.783 2325.59 828.783 2343.92 828.783 2354.98 837.931 2361.65 849.374 2361.65M1017.99 2361.65C1036.88 2361.65 1060.15 2344.1 1060.15 2325.98 1060.15 2315.31 1051.57 2308.25 1039.35 2308.25 1016.08 2308.25 997.396 2325.59 997.396 2343.92 997.396 2354.98 1006.54 2361.65 1017.99 2361.65M1241.91 2385.49C1260.8 2385.49 1284.08 2367.94 1284.08 2349.82 1284.08 2339.15 1275.5 2332.09 1263.28 2332.09 1240 2332.09 1221.32 2349.43 1221.32 2367.76 1221.32 2378.82 1230.47 2385.49 1241.91 2385.49M1408.96 2433.17C1427.85 2433.17 1451.13 2415.62 1451.13 2397.5 1451.13 2386.83 1442.55 2379.77 1430.33 2379.77 1407.05 2379.77 1388.37 2397.11 1388.37 2415.44 1388.37 2426.5 1397.52 2433.17 1408.96 2433.17M1576 2385.49C1594.89 2385.49 1618.17 2367.94 1618.17 2349.82 1618.17 2339.15 1609.59 2332.09 1597.37 2332.09 1574.09 2332.09 1555.41 2349.43 1555.41 2367.76 1555.41 2378.82 1564.56 2385.49 1576 2385.49M1779.7 2409.33C1798.59 2409.33 1821.87 2391.78 1821.87 2373.66 1821.87 2362.99 1813.29 2355.93 1801.07 2355.93 1777.79 2355.93 1759.11 2373.27 1759.11 2391.6 1759.11 2402.66 1768.26 2409.33 1779.7 2409.33M1945.43 2433.17C1980.53 2433.17 1987.6 2404.56 1987.6 2397.71 1987.6 2386.83 1979.02 2379.77 1966.62 2379.77 1934.76 2379.77 1924.84 2404.38 1924.84 2415.44 1924.84 2426.67 1933.81 2433.17 1945.43 2433.17M1961.64 2416.18C1952.11 2422.68 1945.43 2424.98 1940.87 2424.98 1936.46 2424.98 1933.81 2422.68 1932.47 2420 1931.69 2418.87 1931.13 2417.35 1931.13 2415.83 1931.13 2411.24 1935.72 2405.34 1950.41 2396.93 1960.9 2390.83 1967.57 2388.53 1971.95 2388.53 1975.95 2388.53 1978.24 2390.44 1979.76 2393.12 1980.36 2394.25 1980.92 2395.59 1980.92 2397.11 1980.92 2401.31 1976.54 2406.47 1961.64 2416.18M2158.49 2457.01C2193.59 2457.01 2200.66 2428.4 2200.66 2421.55 2200.66 2410.67 2192.08 2403.61 2179.68 2403.61 2147.82 2403.61 2137.9 2428.22 2137.9 2439.28 2137.9 2450.51 2146.87 2457.01 2158.49 2457.01M2174.7 2440.02C2165.17 2446.52 2158.49 2448.82 2153.93 2448.82 2149.52 2448.82 2146.87 2446.52 2145.53 2443.84 2144.75 2442.71 2144.19 2441.19 2144.19 2439.67 2144.19 2435.08 2148.78 2429.18 2163.47 2420.77 2173.96 2414.67 2180.63 2412.37 2185.01 2412.37 2189.01 2412.37 2191.3 2414.28 2192.82 2416.96 2193.42 2418.09 2193.98 2419.43 2193.98 2420.95 2193.98 2425.15 2189.6 2430.31 2174.7 2440.02M2451.09 2428.02C2423.43 2428.02 2406.27 2439.67 2406.27 2453.76 2406.27 2467.68 2418.1 2480.08 2449 2480.08 2482.94 2480.08 2493.82 2468.27 2493.82 2453.76 2493.82 2439.07 2470.37 2428.02 2451.09 2428.02M2429.33 2440.98C2431.63 2433.95 2439.26 2432.78 2445.75 2432.78 2459.88 2432.78 2471.32 2448.04 2471.32 2460.65 2471.32 2461.96 2471.11 2463.3 2470.93 2464.46 2469.98 2469.59 2466.91 2473.22 2461.79 2474.56 2459.67 2475.13 2457.58 2475.31 2455.47 2475.31 2453.56 2475.31 2451.86 2475.13 2449.96 2474.56 2446.5 2473.4 2443.07 2471.49 2440.21 2469.02 2438.69 2467.68 2437.17 2466.16 2435.83 2464.46 2431.84 2459.69 2428.59 2452.63 2428.59 2446.13 2428.59 2444.44 2428.77 2442.71 2429.33 2440.98"/>
	<path class="Clef" d="M269.511 438.652C275.799 438.652 280.954 443.807 280.954 454.296 280.954 467.468 274.666 479.685 259.797 494.555 256.727 497.595 252.168 501.975 247.787 505.79 246.447 506.952 245.672 506.743 245.284 504.27 244.539 499.323 244.152 492.827 244.152 486.718 244.152 456.978 257.889 438.652 269.511 438.652M261.882 598.882C261.495 596.588 261.704 596.022 263.998 596.2 279.434 597.541 292.218 610.504 292.218 627.281 292.218 639.32 284.977 649.034 274.279 654.369 271.984 655.531 271.627 655.531 271.24 653.236ZM248.741 568.547C249.307 572.182 249.307 571.974 245.88 573.136 229.074 578.857 218.197 593.906 218.197 610.117 218.197 627.281 227.166 639.499 240.159 643.879 241.679 644.445 243.973 645.041 245.284 645.041 246.834 645.041 247.579 644.088 247.579 642.926 247.579 641.585 246.059 641.018 244.718 640.452 236.702 637.025 230.981 628.831 230.981 620.04 230.981 609.163 238.43 600.968 250.052 597.72 253.122 596.975 253.509 597.154 253.867 599.27L263.402 656.097C263.79 658.183 263.611 658.183 260.75 658.749 257.681 659.345 253.867 659.703 250.052 659.703 216.677 659.703 195.132 641.227 195.132 614.706 195.132 603.442 197.039 588.393 212.863 570.454 224.306 557.67 233.097 550.608 242.066 543.366 243.973 541.847 244.331 542.025 244.718 544.141ZM251.602 539.373C251.214 537.079 251.602 536.9 252.734 535.738 255.774 532.877 259.797 528.884 263.402 524.861 279.434 507.339 288.97 484.632 288.97 463.087 288.97 446.489 284.381 430.07 276.573 418.626 273.713 414.455 268.766 409.09 266.65 409.09 263.998 409.09 258.068 414.068 254.254 418.269 240.159 433.884 235.57 457.723 235.57 477.57 235.57 488.625 236.911 501.022 238.252 508.859 238.609 511.153 238.818 511.511 236.523 513.418 224.306 523.55 211.164 535.172 201.241 547.389 188.07 563.779 179.875 581.509 179.875 601.922 179.875 635.118 202.582 666.586 249.307 666.586 253.688 666.586 258.634 666.199 262.449 665.424 264.564 665.066 264.952 664.858 265.309 667.152 267.604 679.936 270.465 696.534 270.465 705.504 270.465 733.724 251.393 737.151 240.159 737.151 229.848 737.151 224.872 734.111 224.872 731.608 224.872 730.297 226.6 729.701 230.981 728.39 236.911 726.661 243.765 721.506 243.765 710.451 243.765 699.961 237.089 690.992 225.468 690.992 212.684 690.992 205.055 701.094 205.055 712.924 205.055 725.32 212.475 744.005 241.291 744.005 254.075 744.005 278.868 738.283 278.868 705.862 278.868 695.015 275.441 676.897 273.325 665.066 272.938 662.772 273.147 662.951 275.799 661.818 295.079 654.19 307.863 637.979 307.863 616.434 307.863 591.999 289.923 570.454 261.882 570.454 256.936 570.454 256.936 570.454 256.37 567.027ZM269.511 1344.55C275.799 1344.55 280.954 1349.71 280.954 1360.2 280.954 1373.37 274.666 1385.59 259.797 1400.46 256.727 1403.49 252.168 1407.88 247.787 1411.69 246.447 1412.85 245.672 1412.64 245.284 1410.17 244.539 1405.22 244.152 1398.73 244.152 1392.62 244.152 1362.88 257.889 1344.55 269.511 1344.55M261.882 1504.78C261.495 1502.49 261.704 1501.92 263.998 1502.1 279.434 1503.44 292.218 1516.4 292.218 1533.18 292.218 1545.22 284.977 1554.93 274.279 1560.27 271.984 1561.43 271.627 1561.43 271.24 1559.14ZM248.741 1474.45C249.307 1478.08 249.307 1477.87 245.88 1479.04 229.074 1484.76 218.197 1499.81 218.197 1516.02 218.197 1533.18 227.166 1545.4 240.159 1549.78 241.679 1550.35 243.973 1550.94 245.284 1550.94 246.834 1550.94 247.579 1549.99 247.579 1548.83 247.579 1547.48 246.059 1546.92 244.718 1546.35 236.702 1542.93 230.981 1534.73 230.981 1525.94 230.981 1515.06 238.43 1506.87 250.052 1503.62 253.122 1502.88 253.509 1503.05 253.867 1505.17L263.402 1562C263.79 1564.08 263.611 1564.08 260.75 1564.65 257.681 1565.25 253.867 1565.6 250.052 1565.6 216.677 1565.6 195.132 1547.13 195.132 1520.61 195.132 1509.34 197.039 1494.29 212.863 1476.35 224.306 1463.57 233.097 1456.51 242.066 1449.27 243.973 1447.75 244.331 1447.93 244.718 1450.04ZM251.602 1445.27C251.214 1442.98 251.602 1442.8 252.734 1441.64 255.774 1438.78 259.797 1434.78 263.402 1430.76 279.434 1413.24 288.97 1390.53 288.97 1368.99 288.97 1352.39 284.381 1335.97 276.573 1324.53 273.713 1320.35 268.766 1314.99 266.65 1314.99 263.998 1314.99 258.068 1319.97 254.254 1324.17 240.159 1339.78 235.57 1363.62 235.57 1383.47 235.57 1394.53 236.911 1406.92 238.252 1414.76 238.609 1417.05 238.818 1417.41 236.523 1419.32 224.306 1429.45 211.164 1441.07 201.241 1453.29 188.07 1469.68 179.875 1487.41 179.875 1507.82 179.875 1541.02 202.582 1572.49 249.307 1572.49 253.688 1572.49 258.634 1572.1 262.449 1571.32 264.564 1570.97 264.952 1570.76 265.309 1573.05 267.604 1585.84 270.465 1602.43 270.465 1611.4 270.465 1639.62 251.393 1643.05 240.159 1643.05 229.848 1643.05 224.872 1640.01 224.872 1637.51 224.872 1636.2 226.6 1635.6 230.981 1634.29 236.911 1632.56 243.765 1627.41 243.765 1616.35 243.765 1605.86 237.089 1596.89 225.468 1596.89 212.684 1596.89 205.055 1606.99 205.055 1618.82 205.055 1631.22 212.475 1649.9 241.291 1649.9 254.075 1649.9 278.868 1644.18 278.868 1611.76 278.868 1600.91 275.441 1582.8 273.325 1570.97 272.938 1568.67 273.147 1568.85 275.799 1567.72 295.079 1560.09 307.863 1543.88 307.863 1522.33 307.863 1497.9 289.923 1476.35 261.882 1476.35 256.936 1476.35 256.936 1476.35 256.37 1472.93ZM269.511 2250.44C275.799 2250.44 280.954 2255.6 280.954 2266.09 280.954 2279.26 274.666 2291.48 259.797 2306.35 256.727 2309.38 252.168 2313.77 247.787 2317.58 246.447 2318.74 245.672 2318.53 245.284 2316.06 244.539 2311.11 244.152 2304.62 244.152 2298.51 244.152 2268.77 257.889 2250.44 269.511 2250.44M261.882 2410.67C261.495 2408.38 261.704 2407.81 263.998 2407.99 279.434 2409.33 292.218 2422.29 292.218 2439.07 292.218 2451.11 284.977 2460.82 274.279 2466.16 271.984 2467.32 271.627 2467.32 271.24 2465.03ZM248.741 2380.34C249.307 2383.97 249.307 2383.76 245.88 2384.93 229.074 2390.65 218.197 2405.7 218.197 2421.91 218.197 2439.07 227.166 2451.29 240.159 2455.67 241.679 2456.24 243.973 2456.83 245.284 2456.83 246.834 2456.83 247.579 2455.88 247.579 2454.72 247.579 2453.37 246.059 2452.81 244.718 2452.24 236.702 2448.82 230.981 2440.62 230.981 2431.83 230.981 2420.95 238.43 2412.76 250.052 2409.51 253.122 2408.77 253.509 2408.94 253.867 2411.06L263.402 2467.89C263.79 2469.97 263.611 2469.97 260.75 2470.54 257.681 2471.14 253.867 2471.49 250.052 2471.49 216.677 2471.49 195.132 2453.02 195.132 2426.5 195.132 2415.23 197.039 2400.18 212.863 2382.24 224.306 2369.46 233.097 2362.4 242.066 2355.16 243.973 2353.64 244.331 2353.82 244.718 2355.93ZM251.602 2351.16C251.214 2348.87 251.602 2348.69 252.734 2347.53 255.774 2344.67 259.797 2340.67 263.402 2336.65 279.434 2319.13 288.97 2296.42 288.97 2274.88 288.97 2258.28 284.381 2241.86 276.573 2230.42 273.713 2226.24 268.766 2220.88 266.65 2220.88 263.998 2220.88 258.068 2225.86 254.254 2230.06 240.159 2245.67 235.57 2269.51 235.57 2289.36 235.57 2300.42 236.911 2312.81 238.252 2320.65 238.609 2322.94 238.818 2323.3 236.523 2325.21 224.306 2335.34 211.164 2346.96 201.241 2359.18 188.07 2375.57 179.875 2393.3 179.875 2413.71 179.875 2446.91 202.582 2478.38 249.307 2478.38 253.688 2478.38 258.634 2477.99 262.449 2477.21 264.564 2476.86 264.952 2476.65 265.309 2478.94 267.604 2491.73 270.465 2508.32 270.465 2517.29 270.465 2545.51 251.393 2548.94 240.159 2548.94 229.848 2548.94 224.872 2545.9 224.872 2543.4 224.872 2542.09 226.6 2541.49 230.981 2540.18 236.911 2538.45 243.765 2533.3 243.765 2522.24 243.765 2511.75 237.089 2502.78 225.468 2502.78 212.684 2502.78 205.055 2512.88 205.055 2524.71 205.055 2537.11 212.475 2555.79 241.291 2555.79 254.075 2555.79 278.868 2550.07 278.868 2517.65 278.868 2506.8 275.441 2488.69 273.325 2476.86 272.938 2474.56 273.147 2474.74 275.799 2473.61 295.079 2465.98 307.863 2449.77 307.863 2428.22 307.863 2403.79 289.923 2382.24 261.882 2382.24 256.936 2382.24 256.936 2382.24 256.37 2378.82Z"/>
	<path class="KeySig" d="M364.482 586.277C364.482 586.277 363.915 574.834 363.915 567.205 363.915 564.166 364.094 561.871 364.273 561.126 365.048 558.832 369.994 554.63 372.676 553.11 374.405 552.157 376.103 551.769 377.623 551.769 379.53 551.769 381.259 552.544 382.391 553.855 384.298 555.971 385.46 559.219 385.46 562.825 385.46 566.252 384.507 570.275 382.212 574.268 379.739 578.857 374.196 584.966 368.475 588.572 367.73 588.959 367.134 589.138 366.568 589.138 364.869 589.138 364.482 587.231 364.482 586.277M357.807 603.263C358.373 604.037 358.939 604.216 359.505 604.216 360.101 604.216 360.667 603.829 360.667 603.829 366.389 600.581 370.948 595.455 375.716 592.207 392.701 580.377 398.602 568.755 398.602 559.964 398.602 549.087 390.228 542.234 381.437 541.668 380.126 541.668 378.785 541.846 377.444 542.234 375.358 542.8 373.064 543.575 370.948 544.916 369.816 545.869 367.73 547.568 366.776 547.568 366.389 547.568 366.18 547.568 365.823 547.389 364.482 546.823 363.707 545.482 363.707 544.141 363.915 539.939 365.048 494.168 365.048 490.353 365.048 488.267 363.319 487.105 361.412 487.105 358.76 487.105 355.691 489.012 355.512 492.439 355.512 492.439 356.287 601.355 357.807 603.263M364.482 1492.18C364.482 1492.18 363.915 1480.73 363.915 1473.1 363.915 1470.06 364.094 1467.77 364.273 1467.03 365.048 1464.73 369.994 1460.53 372.676 1459.01 374.405 1458.06 376.103 1457.67 377.623 1457.67 379.53 1457.67 381.259 1458.44 382.391 1459.75 384.298 1461.87 385.46 1465.12 385.46 1468.72 385.46 1472.15 384.507 1476.17 382.212 1480.17 379.739 1484.76 374.196 1490.86 368.475 1494.47 367.73 1494.86 367.134 1495.04 366.568 1495.04 364.869 1495.04 364.482 1493.13 364.482 1492.18M357.807 1509.16C358.373 1509.94 358.939 1510.12 359.505 1510.12 360.101 1510.12 360.667 1509.73 360.667 1509.73 366.389 1506.48 370.948 1501.35 375.716 1498.11 392.701 1486.28 398.602 1474.65 398.602 1465.86 398.602 1454.99 390.228 1448.13 381.437 1447.57 380.126 1447.57 378.785 1447.75 377.444 1448.13 375.358 1448.7 373.064 1449.47 370.948 1450.81 369.816 1451.77 367.73 1453.47 366.776 1453.47 366.389 1453.47 366.18 1453.47 365.823 1453.29 364.482 1452.72 363.707 1451.38 363.707 1450.04 363.915 1445.84 365.048 1400.07 365.048 1396.25 365.048 1394.17 363.319 1393 361.412 1393 358.76 1393 355.691 1394.91 355.512 1398.34 355.512 1398.34 356.287 1507.25 357.807 1509.16M364.482 2398.07C364.482 2398.07 363.915 2386.62 363.915 2378.99 363.915 2375.95 364.094 2373.66 364.273 2372.92 365.048 2370.62 369.994 2366.42 372.676 2364.9 374.405 2363.95 376.103 2363.56 377.623 2363.56 379.53 2363.56 381.259 2364.33 382.391 2365.64 384.298 2367.76 385.46 2371.01 385.46 2374.61 385.46 2378.04 384.507 2382.06 382.212 2386.06 379.739 2390.65 374.196 2396.75 368.475 2400.36 367.73 2400.75 367.134 2400.93 366.568 2400.93 364.869 2400.93 364.482 2399.02 364.482 2398.07M357.807 2415.05C358.373 2415.83 358.939 2416.01 359.505 2416.01 360.101 2416.01 360.667 2415.62 360.667 2415.62 366.389 2412.37 370.948 2407.24 375.716 2404 392.701 2392.17 398.602 2380.54 398.602 2371.75 398.602 2360.88 390.228 2354.02 381.437 2353.46 380.126 2353.46 378.785 2353.64 377.444 2354.02 375.358 2354.59 373.064 2355.36 370.948 2356.7 369.816 2357.66 367.73 2359.36 366.776 2359.36 366.389 2359.36 366.18 2359.36 365.823 2359.18 364.482 2358.61 363.707 2357.27 363.707 2355.93 363.915 2351.73 365.048 2305.96 365.048 2302.14 365.048 2300.06 363.319 2298.89 361.412 2298.89 358.76 2298.89 355.691 2300.8 355.512 2304.23 355.512 2304.23 356.287 2413.14 357.807 2415.05"/>
	<path class="Hook" d="M823.618 627.862C823.618 627.862 828.595 609.744 828.595 594.874 828.595 571.035 818.671 548.536 806.663 529.465 796.918 514.386 788.902 497.997 785.863 479.67 785.296 476.631 783.777 475.469 780.141 475.469 779.009 475.469 778.234 476.065 778.234 478.329L778.234 523.922C790.809 526.217 808.927 552.142 815.811 568.353 818.671 574.849 820.37 585.726 820.37 596.96 820.37 605.542 819.059 614.512 815.811 623.094 815.423 624.256 815.245 625.21 815.245 625.955 815.245 629.024 817.152 630.723 818.284 631.497 819.417 632.272 822.665 631.11 823.618 627.862M1095.41 566.073C1098.09 574.089 1099.43 583.624 1099.43 592.206 1099.43 603.441 1094.64 619.473 1091.78 625.939 1084.74 641.971 1075.21 657.407 1049.64 666.019L1049.64 710.837C1049.64 713.102 1050.59 713.698 1051.73 713.698 1055.36 713.698 1056.88 712.536 1057.27 709.496 1060.52 691.378 1074.61 674.78 1084.36 659.702 1096.37 640.839 1108.02 618.132 1108.02 594.293 1108.02 579.423 1104.2 565.864 1102.65 559.755 1101.13 553.676 1092.55 557.848 1095.41 566.073M2048.8 627.862C2048.8 627.862 2053.78 609.744 2053.78 594.874 2053.78 571.035 2043.86 548.536 2031.85 529.465 2022.1 514.386 2014.09 497.997 2011.05 479.67 2010.48 476.631 2008.96 475.469 2005.33 475.469 2004.19 475.469 2003.42 476.065 2003.42 478.329L2003.42 523.922C2016 526.217 2034.11 552.142 2041 568.353 2043.86 574.849 2045.56 585.726 2045.56 596.96 2045.56 605.542 2044.25 614.512 2041 623.094 2040.61 624.256 2040.43 625.21 2040.43 625.955 2040.43 629.024 2042.34 630.723 2043.47 631.497 2044.6 632.272 2047.85 631.11 2048.8 627.862M823.618 1533.75C823.618 1533.75 828.595 1515.64 828.595 1500.77 828.595 1476.93 818.671 1454.43 806.663 1435.36 796.918 1420.28 788.902 1403.89 785.863 1385.56 785.296 1382.52 783.777 1381.36 780.141 1381.36 779.009 1381.36 778.234 1381.96 778.234 1384.22L778.234 1429.82C790.809 1432.11 808.927 1458.04 815.811 1474.25 818.671 1480.74 820.37 1491.62 820.37 1502.85 820.37 1511.44 819.059 1520.4 815.811 1528.99 815.423 1530.15 815.245 1531.1 815.245 1531.85 815.245 1534.92 817.152 1536.62 818.284 1537.39 819.417 1538.17 822.665 1537 823.618 1533.75M1095.41 1471.97C1098.09 1479.98 1099.43 1489.52 1099.43 1498.1 1099.43 1509.33 1094.64 1525.37 1091.78 1531.83 1084.74 1547.87 1075.21 1563.3 1049.64 1571.91L1049.64 1616.73C1049.64 1619 1050.59 1619.59 1051.73 1619.59 1055.36 1619.59 1056.88 1618.43 1057.27 1615.39 1060.52 1597.27 1074.61 1580.67 1084.36 1565.6 1096.37 1546.73 1108.02 1524.03 1108.02 1500.19 1108.02 1485.32 1104.2 1471.76 1102.65 1465.65 1101.13 1459.57 1092.55 1463.74 1095.41 1471.97M2048.8 1533.75C2048.8 1533.75 2053.78 1515.64 2053.78 1500.77 2053.78 1476.93 2043.86 1454.43 2031.85 1435.36 2022.1 1420.28 2014.09 1403.89 2011.05 1385.56 2010.48 1382.52 2008.96 1381.36 2005.33 1381.36 2004.19 1381.36 2003.42 1381.96 2003.42 1384.22L2003.42 1429.82C2016 1432.11 2034.11 1458.04 2041 1474.25 2043.86 1480.74 2045.56 1491.62 2045.56 1502.85 2045.56 1511.44 2044.25 1520.4 2041 1528.99 2040.61 1530.15 2040.43 1531.1 2040.43 1531.85 2040.43 1534.92 2042.34 1536.62 2043.47 1537.39 2044.6 1538.17 2047.85 1537 2048.8 1533.75M769.171 2377.87C771.853 2385.88 773.194 2395.42 773.194 2404 773.194 2415.23 768.396 2431.27 765.535 2437.73 758.503 2453.77 748.967 2469.2 723.399 2477.81L723.399 2522.63C723.399 2524.9 724.353 2525.49 725.485 2525.49 729.12 2525.49 730.64 2524.33 731.028 2521.29 734.276 2503.17 748.371 2486.57 758.115 2471.5 770.124 2452.63 781.776 2429.93 781.776 2406.09 781.776 2391.22 777.961 2377.66 776.412 2371.55 774.892 2365.47 766.31 2369.64 769.171 2377.87M1804.88 2401.71C1807.56 2409.72 1808.9 2419.26 1808.9 2427.84 1808.9 2439.07 1804.11 2455.11 1801.25 2461.57 1794.21 2477.61 1784.68 2493.04 1759.11 2501.65L1759.11 2546.47C1759.11 2548.74 1760.06 2549.33 1761.2 2549.33 1764.83 2549.33 1766.35 2548.17 1766.74 2545.13 1769.99 2527.01 1784.08 2510.41 1793.83 2495.34 1805.84 2476.47 1817.49 2453.77 1817.49 2429.93 1817.49 2415.06 1813.67 2401.5 1812.12 2395.39 1810.6 2389.31 1802.02 2393.48 1804.88 2401.71"/>
	<path class="NoteDot" d="M616.299 642.359C616.299 637.025 612.098 632.823 606.764 632.823 601.43 632.823 597.228 637.025 597.228 642.359 597.228 647.693 601.43 651.895 606.764 651.895 612.098 651.895 616.299 647.693 616.299 642.359M944.722 547.002C944.722 541.668 940.521 537.466 935.187 537.466 929.853 537.466 925.651 541.668 925.651 547.002 925.651 552.336 929.853 556.538 935.187 556.538 940.521 556.538 944.722 552.336 944.722 547.002M1865.23 642.359C1865.23 637.025 1861.03 632.823 1855.7 632.823 1850.36 632.823 1846.16 637.025 1846.16 642.359 1846.16 647.693 1850.36 651.895 1855.7 651.895 1861.03 651.895 1865.23 647.693 1865.23 642.359M616.299 1548.26C616.299 1542.93 612.098 1538.72 606.764 1538.72 601.43 1538.72 597.228 1542.93 597.228 1548.26 597.228 1553.59 601.43 1557.8 606.764 1557.8 612.098 1557.8 616.299 1553.59 616.299 1548.26M944.722 1452.9C944.722 1447.57 940.521 1443.36 935.187 1443.36 929.853 1443.36 925.651 1447.57 925.651 1452.9 925.651 1458.23 929.853 1462.44 935.187 1462.44 940.521 1462.44 944.722 1458.23 944.722 1452.9M1865.23 1548.26C1865.23 1542.93 1861.03 1538.72 1855.7 1538.72 1850.36 1538.72 1846.16 1542.93 1846.16 1548.26 1846.16 1553.59 1850.36 1557.8 1855.7 1557.8 1861.03 1557.8 1865.23 1553.59 1865.23 1548.26M616.299 2358.79C616.299 2353.46 612.098 2349.25 606.764 2349.25 601.43 2349.25 597.228 2353.46 597.228 2358.79 597.228 2364.12 601.43 2368.33 606.764 2368.33 612.098 2368.33 616.299 2364.12 616.299 2358.79M1653.91 2358.79C1653.91 2353.46 1649.71 2349.25 1644.38 2349.25 1639.04 2349.25 1634.84 2353.46 1634.84 2358.79 1634.84 2364.12 1639.04 2368.33 1644.38 2368.33 1649.71 2368.33 1653.91 2364.12 1653.91 2358.79"/>
</svg>
