<?xml version="1.0" encoding="utf-8"?>
<svg xmlns="http://www.w3.org/2000/svg" version="1.2" viewBox="0 0 1001.5369 814.31704">
	<title>A music sheet compose of three lines and three staffs each depicting the melody of the "Ting, Ting, Ting"</title>
	<desc>Generated by MuseScore 3.2.3</desc>
	<path class="StaffLines" d="M 0,25.185145 H 1000 M 0,43.271426 H 1000 M 0,61.357709 H 1000 M 0,79.443989 H 1000 M 0,97.52989 H 1000 M 0,368.82297 H 1000 M 0,386.90963 H 1000 M 0,404.9963 H 1000 M 0,423.08296 H 1000 M 0,441.16582 H 1000 M 0,712.46193 H 1000 M 0,730.54481 H 1000 M 0,748.63148 H 1000 M 0,766.71814 H 1000 M 0,784.80481 h 1000" fill="none" stroke="#000" stroke-linejoin="bevel" stroke-width="3.10102"/>
	<path class="BarLine" d="M 379.44545,24.009587 V 98.705826 M 584.12903,24.009587 V 98.705826 M 827.16032,24.009587 V 98.705826 M 998.58192,24.009587 V 98.705826 M 379.44545,367.64704 v 74.69473 m 204.68358,-74.69473 v 74.69473 m 243.03129,-74.69473 v 74.69473 m 171.4216,-74.69473 v 74.69473 M 381.65426,711.28601 v 74.69472 m 261.16578,-74.69472 v 74.69472 m 178.72364,-74.69472 v 74.69472 m 161.10888,-74.69472 v 74.69472" fill="none" stroke="#000" stroke-linejoin="bevel" stroke-width="3.81627"/>
	<path class="BarLine" d="m 995.57496,711.28601 v 74.69472" fill="none" stroke="#000" stroke-linejoin="bevel" stroke-width="11.9239"/>
	<path class="LedgerLine" d="m 926.56386,115.61616 h 30.37007 m -30.37007,343.63633 h 30.37007" fill="none" stroke="#000" stroke-linecap="square" stroke-linejoin="bevel" stroke-width="3.81627"/>
	<path class="Stem" d="M 161.83577,86.056168 V 25.185145 m 75.51318,60.871023 V 25.185145 m 25.23862,29.560385 v 56.34899 m 75.51431,-56.34899 v 60.87063 M 420.63683,2.738794 v 54.088521 m 46.1918,11.142567 V 11.620528 m 46.03962,65.392686 V 18.403026 m 46.03584,67.653142 V 25.185145 M 625.4726,86.056168 V 25.185145 m 66.69839,60.871023 V 25.185145 M 738.5781,86.056168 V 25.185145 m 54.69659,42.784737 V 11.620528 m 75.23293,65.392686 V 18.403026 m 41.91157,76.69609 V 34.228475 m 41.91525,78.956915 V 52.314756 M 161.83577,429.69475 v -60.87178 m 75.51318,60.87178 v -60.87178 m 25.23862,29.56153 v 56.34632 m 75.51431,-56.34632 v 60.86798 m 82.61661,-110.90977 v 54.08549 m 46.11014,9.17989 v -56.3501 m 46.03962,65.39345 v -58.61096 m 46.03584,67.65428 v -60.87178 m 66.56851,60.87178 v -60.87178 m 66.69839,60.87178 v -60.87178 m 46.40711,60.87178 v -60.87178 m 54.69659,42.78512 v -56.35011 m 75.23293,65.39345 v -58.61096 m 41.91157,76.69762 v -60.87178 m 41.91525,78.95844 V 395.95297 M 140.66802,751.06299 v 54.08931 m 76.32468,-63.13263 v 60.87181 m 39.12105,-69.91514 v 58.61097 m 62.59522,-58.61097 v 58.61097 m 83.12519,-49.56764 v 56.35014 m 83.18088,-43.12652 v -56.34634 m 40.84615,43.12273 v 56.35013 M 601.47645,751.063 v 60.87181 m 82.69088,-56.69152 v -56.34634 m 79.09365,65.38967 v -58.60718" fill="none" stroke="#000" stroke-linecap="round" stroke-linejoin="bevel" stroke-width="2.86095"/>
	<path class="Note" d="m 147.24989,98.615167 c 7.01358,0 15.65316,-6.658076 15.65316,-13.530855 0,-4.046738 -3.18587,-6.725599 -7.72153,-6.725599 -8.63957,0 -15.57559,6.578798 -15.57559,13.530855 0,4.193543 3.39599,6.725599 7.64396,6.725599 m 75.51355,0 c 7.01358,0 15.65316,-6.658076 15.65316,-13.530855 0,-4.046738 -3.18587,-6.725599 -7.72152,-6.725599 -8.63957,0 -15.57559,6.578798 -15.57559,13.530855 0,4.193543 3.396,6.725599 7.64395,6.725599 m 46.406,-36.172181 c 7.01359,0 15.65316,-6.658078 15.65316,-13.530859 0,-4.046738 -3.18587,-6.725597 -7.72153,-6.725597 -8.63956,0 -15.57556,6.578796 -15.57556,13.530856 0,4.193539 3.39597,6.7256 7.64393,6.7256 m 75.51429,0 c 7.01248,0 15.65466,-6.658078 15.65466,-13.530859 0,-4.046738 -3.18513,-6.725597 -7.72153,-6.725597 -8.64217,0 -15.5767,6.578796 -15.5767,13.530856 0,4.193539 3.39673,6.7256 7.64357,6.7256 m 61.51977,9.042948 c 7.01249,0 15.65466,-6.658078 15.65466,-13.530855 0,-4.046739 -3.18513,-6.7256 -7.72153,-6.7256 -8.64216,0 -15.5767,6.578799 -15.5767,13.530855 0,4.193543 3.39674,6.7256 7.64357,6.7256 m 46.03961,9.042953 c 7.01248,0 15.65466,-6.658077 15.65466,-13.530855 0,-4.046739 -3.18513,-6.7256 -7.72154,-6.7256 -8.64217,0 -15.57668,6.578794 -15.57668,13.530855 0,4.193543 3.39673,6.7256 7.64356,6.7256 m 46.03587,9.043327 c 7.0125,0 15.65465,-6.658076 15.65465,-13.530856 0,-4.046737 -3.18513,-6.725593 -7.72148,-6.725593 -8.6422,0 -15.57672,6.578793 -15.57672,13.530855 0,4.193538 3.39674,6.725594 7.64355,6.725594 m 46.03962,9.042953 c 7.01249,0 15.65465,-6.658076 15.65465,-13.530855 0,-4.046738 -3.18513,-6.725599 -7.72154,-6.725599 -8.64215,0 -15.57667,6.578798 -15.57667,13.530855 0,4.193543 3.3967,6.725599 7.64356,6.725599 m 66.56846,0 c 7.0125,0 15.65465,-6.658076 15.65465,-13.530855 0,-4.046738 -3.18513,-6.725599 -7.72155,-6.725599 -8.64214,0 -15.57667,6.578798 -15.57667,13.530855 0,4.193543 3.39671,6.725599 7.64357,6.725599 m 66.69839,0 c 7.01251,0 15.65465,-6.658076 15.65465,-13.530855 0,-4.046738 -3.18513,-6.725599 -7.72149,-6.725599 -8.6422,0 -15.57672,6.578798 -15.57672,13.530855 0,4.193543 3.39675,6.725599 7.64356,6.725599 m 46.40716,0 c 7.01244,0 15.65464,-6.658076 15.65464,-13.530855 0,-4.046738 -3.18514,-6.725599 -7.72155,-6.725599 -8.6422,0 -15.57671,6.578798 -15.57671,13.530855 0,4.193543 3.39675,6.725599 7.64362,6.725599 m 54.69658,-18.08628 c 7.0125,0 15.65465,-6.658077 15.65465,-13.530855 0,-4.046739 -3.18513,-6.7256 -7.72153,-6.7256 -8.64215,0 -15.57667,6.578794 -15.57667,13.530855 0,4.193543 3.39671,6.7256 7.64355,6.7256 m 75.22923,9.043327 c 7.01244,0 15.65464,-6.658076 15.65464,-13.530856 0,-4.046737 -3.18512,-6.725593 -7.72155,-6.725593 -8.64213,0 -15.57671,6.578793 -15.57671,13.530855 0,4.193538 3.39675,6.725594 7.64362,6.725594 m 41.91525,18.085906 c 7.01247,0 15.65464,-6.65808 15.65464,-13.530855 0,-4.046742 -3.18512,-6.725599 -7.72152,-6.725599 -8.64221,0 -15.57672,6.578793 -15.57672,13.530854 0,4.19354 3.39676,6.7256 7.6436,6.7256 m 41.91527,18.08628 c 13.03008,0 15.65465,-10.85161 15.65465,-13.45158 0,-4.12601 -3.18512,-6.80487 -7.78838,-6.80487 -11.82727,0 -15.50986,9.33694 -15.50986,13.53085 0,4.26145 3.3299,6.7256 7.64359,6.7256 m 6.01757,-6.44299 c -3.5378,2.46416 -6.01757,3.33435 -7.7104,3.33435 -1.63712,0 -2.62086,-0.87019 -3.11828,-1.88757 -0.28955,-0.42978 -0.49746,-1.006 -0.49746,-1.58258 0,-1.74076 1.70391,-3.97884 7.15728,-7.16676 3.89417,-2.31736 6.37026,-3.18756 7.99624,-3.18756 1.48487,0 2.33501,0.72339 2.89928,1.74077 0.22271,0.42941 0.43062,0.9381 0.43062,1.51468 0,1.59397 -1.62598,3.54943 -7.15728,7.23467 M 147.24989,442.25452 c 7.01358,0 15.65316,-6.65731 15.65316,-13.53085 0,-4.0475 -3.18587,-6.72559 -7.72153,-6.72559 -8.63957,0 -15.57559,6.57765 -15.57559,13.53085 0,4.19544 3.39599,6.72559 7.64396,6.72559 m 75.51355,0 c 7.01358,0 15.65316,-6.65731 15.65316,-13.53085 0,-4.0475 -3.18587,-6.72559 -7.72152,-6.72559 -8.63957,0 -15.57559,6.57765 -15.57559,13.53085 0,4.19544 3.396,6.72559 7.64395,6.72559 m 46.406,-36.17332 c 7.01359,0 15.65316,-6.65733 15.65316,-13.53085 0,-4.0475 -3.18587,-6.7256 -7.72153,-6.7256 -8.63956,0 -15.57556,6.57765 -15.57556,13.53085 0,4.19544 3.39597,6.7256 7.64393,6.7256 m 75.51429,0 c 7.01248,0 15.65466,-6.65733 15.65466,-13.53085 0,-4.0475 -3.18513,-6.7256 -7.72153,-6.7256 -8.64217,0 -15.5767,6.57765 -15.5767,13.53085 0,4.19544 3.39673,6.7256 7.64357,6.7256 m 61.51977,9.04333 c 7.01249,0 15.65466,-6.65731 15.65466,-13.53085 0,-4.04751 -3.18513,-6.7256 -7.72153,-6.7256 -8.64216,0 -15.5767,6.57765 -15.5767,13.53085 0,4.19545 3.39674,6.7256 7.64357,6.7256 m 46.03961,9.04333 c 7.01248,0 15.65466,-6.65732 15.65466,-13.53085 0,-4.0475 -3.18513,-6.72559 -7.72154,-6.72559 -8.64217,0 -15.57668,6.57765 -15.57668,13.53085 0,4.19543 3.39673,6.72559 7.64356,6.72559 m 46.03587,9.04333 c 7.0125,0 15.65465,-6.65732 15.65465,-13.53085 0,-4.0475 -3.18513,-6.7256 -7.72148,-6.7256 -8.6422,0 -15.57672,6.57765 -15.57672,13.53085 0,4.19545 3.39674,6.7256 7.64355,6.7256 m 46.03962,9.04333 c 7.01249,0 15.65465,-6.65731 15.65465,-13.53085 0,-4.0475 -3.18513,-6.72559 -7.72154,-6.72559 -8.64215,0 -15.57667,6.57765 -15.57667,13.53085 0,4.19544 3.3967,6.72559 7.64356,6.72559 m 66.56846,0 c 7.0125,0 15.65465,-6.65731 15.65465,-13.53085 0,-4.0475 -3.18513,-6.72559 -7.72155,-6.72559 -8.64214,0 -15.57667,6.57765 -15.57667,13.53085 0,4.19544 3.39671,6.72559 7.64357,6.72559 m 66.69839,0 c 7.01251,0 15.65465,-6.65731 15.65465,-13.53085 0,-4.0475 -3.18513,-6.72559 -7.72149,-6.72559 -8.6422,0 -15.57672,6.57765 -15.57672,13.53085 0,4.19544 3.39675,6.72559 7.64356,6.72559 m 46.40716,0 c 7.01244,0 15.65464,-6.65731 15.65464,-13.53085 0,-4.0475 -3.18514,-6.72559 -7.72155,-6.72559 -8.6422,0 -15.57671,6.57765 -15.57671,13.53085 0,4.19544 3.39675,6.72559 7.64362,6.72559 m 54.69658,-18.08666 c 7.0125,0 15.65465,-6.65732 15.65465,-13.53085 0,-4.0475 -3.18513,-6.72559 -7.72153,-6.72559 -8.64215,0 -15.57667,6.57765 -15.57667,13.53085 0,4.19543 3.39671,6.72559 7.64355,6.72559 m 75.22923,9.04333 c 7.01244,0 15.65464,-6.65732 15.65464,-13.53085 0,-4.0475 -3.18512,-6.7256 -7.72155,-6.7256 -8.64213,0 -15.57671,6.57765 -15.57671,13.53085 0,4.19545 3.39675,6.7256 7.64362,6.7256 m 41.91525,18.08287 c 7.01247,0 15.65464,-6.65731 15.65464,-13.53086 0,-4.04749 -3.18512,-6.7256 -7.72152,-6.7256 -8.64221,0 -15.57672,6.57767 -15.57672,13.53087 0,4.19543 3.39676,6.72559 7.6436,6.72559 m 41.91527,18.08666 c 13.03008,0 15.65465,-10.85276 15.65465,-13.45119 0,-4.12716 -3.18512,-6.80527 -7.78838,-6.80527 -11.82727,0 -15.50986,9.33543 -15.50986,13.53087 0,4.25992 3.3299,6.72559 7.64359,6.72559 m 6.01757,-6.44489 c -3.5378,2.46568 -6.01757,3.33814 -7.7104,3.33814 -1.63712,0 -2.62086,-0.87246 -3.11828,-1.88908 -0.28955,-0.42865 -0.49746,-1.00524 -0.49746,-1.58183 0,-1.74114 1.70391,-3.97921 7.15728,-7.16941 3.89417,-2.31394 6.37026,-3.18642 7.99624,-3.18642 1.48487,0 2.33501,0.72454 2.89928,1.74115 0.22271,0.42865 0.43062,0.93696 0.43062,1.51355 0,1.59319 -1.62598,3.55056 -7.15728,7.2339 m -796.51662,295.8239 c 7.01358,0 15.65316,-6.65732 15.65316,-13.53088 0,-4.04751 -3.18587,-6.72562 -7.72153,-6.72562 -8.63957,0 -15.57559,6.57768 -15.57559,13.53088 0,4.19545 3.39599,6.72562 7.64396,6.72562 m 76.32468,-9.04334 c 7.01359,0 15.65317,-6.65732 15.65317,-13.53088 0,-4.0475 -3.18588,-6.72562 -7.72153,-6.72562 -8.63957,0 -15.57558,6.57768 -15.57558,13.53087 0,4.19547 3.39599,6.72563 7.64394,6.72563 m 39.12141,-9.04332 c 7.01359,0 15.65316,-6.65732 15.65316,-13.53088 0,-4.04751 -3.18587,-6.72561 -7.72153,-6.72561 -8.63956,0 -15.57558,6.57768 -15.57558,13.53087 0,4.19545 3.39598,6.72562 7.64395,6.72562 m 62.59485,0 c 7.01248,0 15.65092,-6.65732 15.65092,-13.53088 0,-4.04751 -3.18511,-6.72561 -7.72151,-6.72561 -8.63845,0 -15.57447,6.57768 -15.57447,13.53087 0,4.19545 3.39451,6.72562 7.64506,6.72562 m 83.1252,9.04332 c 7.01248,0 15.65464,-6.65731 15.65464,-13.53087 0,-4.04751 -3.18513,-6.72562 -7.72152,-6.72562 -8.64217,0 -15.57668,6.57768 -15.57668,13.53087 0,4.19546 3.39672,6.72562 7.64356,6.72562 m 62.0135,18.08667 c 7.01248,0 15.65465,-6.65732 15.65465,-13.53087 0,-4.04752 -3.18513,-6.72562 -7.72151,-6.72562 -8.64218,0 -15.5767,6.57768 -15.5767,13.53087 0,4.19545 3.39673,6.72562 7.64356,6.72562 m 62.00979,-18.08667 c 7.01249,0 15.65465,-6.65731 15.65465,-13.53087 0,-4.04751 -3.18514,-6.72562 -7.72148,-6.72562 -8.64221,0 -15.57672,6.57768 -15.57672,13.53087 0,4.19546 3.3967,6.72562 7.64355,6.72562 m 75.61901,9.04334 c 7.01245,0 15.65464,-6.65732 15.65464,-13.53088 0,-4.04751 -3.18514,-6.72562 -7.72153,-6.72562 -8.64215,0 -15.57671,6.57769 -15.57671,13.53088 0,4.19545 3.39675,6.72562 7.6436,6.72562 m 61.52345,9.04333 c 13.03012,0 15.65464,-10.85277 15.65464,-13.45119 0,-4.1272 -3.18513,-6.8053 -7.78832,-6.8053 -11.82728,0 -15.50988,9.33542 -15.50988,13.53087 0,4.25992 3.32991,6.72562 7.64356,6.72562 m 6.01763,-6.44492 c -3.53782,2.46565 -6.01763,3.33817 -7.71041,3.33817 -1.63712,0 -2.62087,-0.87252 -3.11829,-1.88912 -0.28959,-0.42865 -0.49747,-1.00523 -0.49747,-1.58181 0,-1.74113 1.70393,-3.97921 7.15728,-7.16944 3.89418,-2.31392 6.37026,-3.18637 7.99625,-3.18637 1.48488,0 2.33498,0.72452 2.89923,1.74112 0.22276,0.42865 0.43069,0.93698 0.43069,1.51356 0,1.59319 -1.626,3.55056 -7.15728,7.23389 m 73.07607,15.48826 c 13.03006,0 15.65464,-10.85277 15.65464,-13.45124 0,-4.12715 -3.18512,-6.80526 -7.78833,-6.80526 -11.82733,0 -15.50987,9.33541 -15.50987,13.53088 0,4.25991 3.3299,6.72562 7.64356,6.72562 m 6.01757,-6.44492 c -3.53777,2.46565 -6.01757,3.33817 -7.71037,3.33817 -1.63712,0 -2.62086,-0.87252 -3.11831,-1.88912 -0.28957,-0.42865 -0.49743,-1.00523 -0.49743,-1.58182 0,-1.74113 1.70392,-3.97921 7.15723,-7.16943 3.89421,-2.31392 6.37025,-3.18639 7.99624,-3.18639 1.48493,0 2.33503,0.72453 2.89929,1.74114 0.22276,0.42864 0.43062,0.93696 0.43062,1.51355 0,1.5932 -1.626,3.55057 -7.15727,7.2339 m 102.60351,-4.552 c -10.26814,0 -16.63839,4.41923 -16.63839,9.76406 0,5.28032 4.39163,9.9841 15.86251,9.9841 12.59949,0 16.63843,-4.47996 16.63843,-9.9841 0,-5.57245 -8.70528,-9.76406 -15.86255,-9.76406 m -8.07788,4.91618 c 0.85381,-2.66673 3.68625,-3.11053 6.09554,-3.11053 5.24545,0 9.49226,5.78863 9.49226,10.572 0,0.49695 -0.0779,1.00523 -0.1448,1.4453 -0.35262,1.94595 -1.49233,3.32295 -3.39297,3.83127 -0.78703,0.2162 -1.5629,0.2845 -2.34617,0.2845 -0.70903,0 -1.34014,-0.0684 -2.04547,-0.2845 -1.28444,-0.44002 -2.55772,-1.16459 -3.61945,-2.10152 -0.56426,-0.50832 -1.12853,-1.0849 -1.62599,-1.72975 -1.48122,-1.80943 -2.68766,-4.48753 -2.68766,-6.95324 0,-0.64104 0.0668,-1.29732 0.27471,-1.95353" style="stroke-width:.37526"/>
	<path class="Clef" d="m 47.435043,11.213882 c 2.334277,0 4.247952,1.955468 4.247952,5.934306 0,4.996592 -2.334276,9.630919 -7.854053,15.271621 -1.139668,1.153176 -2.832092,2.81466 -4.458438,4.261821 -0.497445,0.440787 -0.785147,0.361505 -0.929182,-0.576588 -0.276564,-1.876567 -0.42023,-4.340723 -0.42023,-6.658077 0,-11.281403 5.099549,-18.233083 9.413951,-18.233083 m -2.832091,60.780739 c -0.143667,-0.87019 -0.06608,-1.084898 0.785515,-1.017375 5.730266,0.508688 10.476035,5.425999 10.476035,11.790091 0,4.566806 -2.68806,8.251662 -6.659446,10.275409 -0.851967,0.440787 -0.984496,0.440787 -1.12816,-0.429789 z M 39.724654,60.487513 c 0.210115,1.378883 0.210115,1.29998 -1.06208,1.740765 -6.238846,2.170174 -10.276683,7.878778 -10.276683,14.028167 0,6.510892 3.329535,11.1456 8.152891,12.807081 0.564266,0.214708 1.415861,0.440791 1.90254,0.440791 0.575402,0 0.851966,-0.361507 0.851966,-0.802294 0,-0.508687 -0.564266,-0.723768 -1.062081,-0.938475 -2.975757,-1.299975 -5.099549,-4.40824 -5.099549,-7.74297 0,-4.12602 2.765271,-7.234666 7.079675,-8.466743 1.139667,-0.282604 1.283333,-0.214702 1.416232,0.587971 l 3.53965,21.556428 c 0.144038,0.791292 0.07759,0.791292 -0.984492,1.005994 -1.139297,0.226084 -2.555158,0.361887 -3.97139,0.361887 -12.389709,0 -20.387799,-7.008582 -20.387799,-17.068905 0,-4.272826 0.707931,-9.981425 6.58223,-16.786307 4.247953,-4.84941 7.511411,-7.528267 10.840949,-10.275404 0.70793,-0.576211 0.840828,-0.508689 0.984494,0.29398 z m 1.062082,-11.066698 c -0.144037,-0.870193 0,-0.938094 0.420229,-1.37888 1.12853,-1.085276 2.621977,-2.599957 3.96025,-4.12602 5.951518,-6.646696 9.491537,-15.260241 9.491537,-23.432999 0,-6.296191 -1.703561,-12.5244816 -4.602101,-16.8655838 C 48.994941,2.0351287 47.158479,0 46.372963,0 45.388467,0 43.18709,1.8883264 41.771229,3.4819099 36.538782,9.4052153 34.835221,18.448167 34.835221,25.976815 c 0,4.193541 0.497814,8.896149 0.99563,11.868992 0.132529,0.870193 0.210114,1.005995 -0.641852,1.729385 -4.535282,3.843416 -9.41395,8.252039 -13.097639,12.886369 -4.889433,6.217286 -7.931641,12.942885 -7.931641,20.686238 0,12.59238 8.429457,24.529276 25.77505,24.529276 1.626346,0 3.462435,-0.146805 4.878668,-0.440791 0.785146,-0.135798 0.929182,-0.214702 1.061709,0.655493 0.851968,4.849413 1.914048,11.145593 1.914048,14.548233 0,10.7048 -7.080046,12.0048 -11.250412,12.0048 -3.827723,0 -5.67495,-1.15319 -5.67495,-2.10266 0,-0.4973 0.64148,-0.72339 2.267826,-1.2207 2.201377,-0.65587 4.745769,-2.61133 4.745769,-6.80487 0,-3.97922 -2.478314,-7.38147 -6.792344,-7.38147 -4.745769,0 -7.577862,3.83204 -7.577862,8.31957 0,4.70222 2.754507,11.79008 13.451789,11.79008 4.745771,0 13.949604,-2.17055 13.949604,-14.46895 0,-4.11464 -1.272195,-10.98742 -2.057709,-15.475324 -0.143665,-0.870196 -0.06608,-0.802294 0.918415,-1.232078 7.157259,-2.893564 11.903029,-9.042953 11.903029,-17.21571 0,-9.269037 -6.659816,-17.441795 -17.069397,-17.441795 -1.836091,0 -1.836091,0 -2.046205,-1.299978 z M 47.435043,354.8521 c 2.334277,0 4.247952,1.95736 4.247952,5.93657 0,4.99584 -2.334276,9.63131 -7.854053,15.272 -1.139668,1.14939 -2.832092,2.81467 -4.458438,4.25993 -0.497445,0.44003 -0.785147,0.36037 -0.929182,-0.57659 -0.276564,-1.87769 -0.42023,-4.33959 -0.42023,-6.65731 0,-11.28141 5.099549,-18.2346 9.413951,-18.2346 m -2.832091,60.78073 c -0.143667,-0.86867 -0.06608,-1.08488 0.785515,-1.01661 5.730266,0.5083 10.476035,5.42448 10.476035,11.78971 0,4.56718 -2.68806,8.25052 -6.659446,10.27617 -0.851967,0.44001 -0.984496,0.44001 -1.12816,-0.42865 z m -4.878298,-11.5052 c 0.210115,1.37698 0.210115,1.29732 -1.06208,1.74115 -6.238846,2.16978 -10.276683,7.87876 -10.276683,14.02778 0,6.50938 3.329535,11.14484 8.152891,12.80633 0.564266,0.21622 1.415861,0.44002 1.90254,0.44002 0.575402,0 0.851966,-0.36037 0.851966,-0.8004 0,-0.51209 -0.564266,-0.72454 -1.062081,-0.94075 -2.975757,-1.29732 -5.099549,-4.40787 -5.099549,-7.74221 0,-4.12716 2.765271,-7.2339 7.079675,-8.46674 1.139667,-0.28071 1.283333,-0.21623 1.416232,0.58796 l 3.53965,21.55757 c 0.144038,0.78902 0.07759,0.78902 -0.984492,1.00523 -1.139297,0.2276 -2.555158,0.36037 -3.97139,0.36037 -12.389709,0 -20.387799,-7.0063 -20.387799,-17.06625 0,-4.2751 0.707931,-9.98408 6.58223,-16.78933 4.247953,-4.8479 7.511411,-7.526 10.840949,-10.27238 0.70793,-0.57659 0.840828,-0.5083 0.984494,0.29209 z m 1.062082,-11.06897 c -0.144037,-0.86868 0,-0.93696 0.420229,-1.37699 1.12853,-1.0849 2.621977,-2.60224 3.96025,-4.12715 5.951518,-6.64594 9.491537,-15.26062 9.491537,-23.43149 0,-6.29695 -1.703561,-12.52562 -4.602101,-16.86521 -1.06171,-1.58561 -2.898172,-3.61884 -3.683688,-3.61884 -0.984496,0 -3.185873,1.88908 -4.601734,3.48229 -5.232447,5.92141 -6.936008,14.96473 -6.936008,22.49452 0,4.19545 0.497814,8.89539 0.99563,11.86938 0.132529,0.86867 0.210114,1.00523 -0.641852,1.72976 -4.535282,3.84265 -9.41395,8.25052 -13.097639,12.88598 -4.889433,6.2173 -7.931641,12.9429 -7.931641,20.68511 0,12.59389 8.429457,24.53155 25.77505,24.53155 1.626346,0 3.462435,-0.14794 4.878668,-0.44382 0.785146,-0.13278 0.929182,-0.21243 1.061709,0.65625 0.851968,4.85168 1.914048,11.14484 1.914048,14.54746 0,10.70482 -7.080046,12.00594 -11.250412,12.00594 -3.827723,0 -5.67495,-1.15318 -5.67495,-2.10151 0,-0.49693 0.64148,-0.72454 2.267826,-1.22146 2.201377,-0.65625 4.745769,-2.60982 4.745769,-6.80526 0,-3.97922 -2.478314,-7.38185 -6.792344,-7.38185 -4.745769,0 -7.577862,3.83128 -7.577862,8.31881 0,4.70374 2.754507,11.78971 13.451789,11.78971 4.745771,0 13.949604,-2.16979 13.949604,-14.46781 0,-4.11578 -1.272195,-10.98552 -2.057709,-15.47306 -0.143665,-0.87246 -0.06608,-0.80418 0.918415,-1.23283 7.157259,-2.89432 11.903029,-9.04332 11.903029,-17.21798 0,-9.26714 -6.659816,-17.44179 -17.069397,-17.44179 -1.836091,0 -1.836091,0 -2.046205,-1.29733 z m 6.648307,305.42859 c 2.334277,0 4.247952,1.95737 4.247952,5.93659 0,4.99587 -2.334276,9.6313 -7.854053,15.272 -1.139668,1.14943 -2.832092,2.81467 -4.458438,4.25997 -0.497445,0.44002 -0.785147,0.36033 -0.929182,-0.57663 -0.276564,-1.8777 -0.42023,-4.33956 -0.42023,-6.65733 0,-11.28135 5.099549,-18.2346 9.413951,-18.2346 m -2.832091,60.78076 c -0.143667,-0.86867 -0.06608,-1.08488 0.785515,-1.01662 5.730266,0.50833 10.476035,5.42446 10.476035,11.78969 0,4.56722 -2.68806,8.25056 -6.659446,10.27619 -0.851967,0.44002 -0.984496,0.44002 -1.12816,-0.42864 z m -4.878298,-11.50519 c 0.210115,1.37699 0.210115,1.29731 -1.06208,1.74112 -6.238846,2.16983 -10.276683,7.87879 -10.276683,14.02777 0,6.50938 3.329535,11.14485 8.152891,12.80635 0.564266,0.21624 1.415861,0.44002 1.90254,0.44002 0.575402,0 0.851966,-0.36033 0.851966,-0.8004 0,-0.51208 -0.564266,-0.72453 -1.062081,-0.94072 -2.975757,-1.29732 -5.099549,-4.40787 -5.099549,-7.74223 0,-4.12715 2.765271,-7.23389 7.079675,-8.46674 1.139667,-0.28071 1.283333,-0.2162 1.416232,0.58795 l 3.53965,21.5576 c 0.144038,0.78899 0.07759,0.78899 -0.984492,1.00523 -1.139297,0.22762 -2.555158,0.36034 -3.97139,0.36034 -12.389709,0 -20.387799,-7.00628 -20.387799,-17.06623 0,-4.27508 0.707931,-9.9841 6.58223,-16.78935 4.247953,-4.84787 7.511411,-7.52597 10.840949,-10.27239 0.70793,-0.57658 0.840828,-0.50827 0.984494,0.29209 z m 1.062082,-11.06898 c -0.144037,-0.86872 0,-0.93696 0.420229,-1.37699 1.12853,-1.0849 2.621977,-2.60225 3.96025,-4.12715 5.951518,-6.64594 9.491537,-15.26062 9.491537,-23.4315 0,-6.29697 -1.703561,-12.52563 -4.602101,-16.86519 -1.06171,-1.58565 -2.898172,-3.61887 -3.683688,-3.61887 -0.984496,0 -3.185873,1.88907 -4.601734,3.48232 -5.232447,5.9214 -6.936008,14.96474 -6.936008,22.49451 0,4.19541 0.497814,8.8954 0.99563,11.86938 0.132529,0.86867 0.210114,1.00522 -0.641852,1.72975 -4.535282,3.84264 -9.41395,8.2505 -13.097639,12.88598 -4.889433,6.21729 -7.931641,12.94291 -7.931641,20.68508 0,12.59395 8.429457,24.53158 25.77505,24.53158 1.626346,0 3.462435,-0.14793 4.878668,-0.44382 0.785146,-0.13276 0.929182,-0.21245 1.061709,0.65622 0.851968,4.85172 1.914048,11.14485 1.914048,14.54748 0,10.70483 -7.080046,12.00593 -11.250412,12.00593 -3.827723,0 -5.67495,-1.15317 -5.67495,-2.10152 0,-0.4969 0.64148,-0.72452 2.267826,-1.22141 2.201377,-0.65627 4.745769,-2.60986 4.745769,-6.80526 0,-3.97926 -2.478314,-7.38188 -6.792344,-7.38188 -4.745769,0 -7.577862,3.83132 -7.577862,8.3188 0,4.70379 2.754507,11.78975 13.451789,11.78975 4.745771,0 13.949604,-2.16983 13.949604,-14.46785 0,-4.11577 -1.272195,-10.98549 -2.057709,-15.47302 -0.143665,-0.87247 -0.06608,-0.80421 0.918415,-1.23285 7.157259,-2.8943 11.903029,-9.04334 11.903029,-17.21801 0,-9.2671 -6.659816,-17.44177 -17.069397,-17.44177 -1.836091,0 -1.836091,0 -2.046205,-1.29731 z" style="stroke-width:.37526"/>
	<path class="KeySig" d="m 82.690862,67.213113 c 0,0 -0.210484,-4.340723 -0.210484,-7.234666 0,-1.152794 0.06645,-2.023368 0.1329,-2.305973 0.287703,-0.87019 2.123788,-2.464154 3.119421,-3.040744 0.641855,-0.361503 1.272196,-0.508687 1.836463,-0.508687 0.707929,0 1.349784,0.293985 1.770011,0.791291 0.70793,0.802673 1.139295,2.034751 1.139295,3.402631 0,1.299979 -0.353777,2.826041 -1.205746,4.340722 -0.918043,1.740765 -2.975757,4.05812 -5.099544,5.426 -0.276566,0.146801 -0.497817,0.214702 -0.707935,0.214702 -0.630712,0 -0.774381,-0.723389 -0.774381,-1.085276 m -2.47794,6.443374 c 0.210118,0.293601 0.420231,0.361503 0.630344,0.361503 0.221252,0 0.431366,-0.146801 0.431366,-0.146801 2.124164,-1.232077 3.816588,-3.176547 5.586601,-4.408624 6.305295,-4.487523 8.495905,-8.896148 8.495905,-12.230877 0,-4.12602 -3.108659,-6.725597 -6.372117,-6.940301 -0.486678,0 -0.984494,0.06752 -1.48231,0.214704 -0.77438,0.2147 -1.625973,0.508685 -2.411491,1.017373 -0.420228,0.361508 -1.194608,1.005994 -1.548761,1.005994 -0.143663,0 -0.221251,0 -0.353781,-0.06789 -0.497816,-0.214707 -0.785514,-0.723395 -0.785514,-1.232082 0.07722,-1.59396 0.497817,-18.956472 0.497817,-20.403633 0,-0.791292 -0.641855,-1.232078 -1.349785,-1.232078 -0.984494,0 -2.123789,0.723391 -2.190238,2.02337 0,0 0.287702,41.31558 0.851964,42.039349 m 2.47794,337.196726 c 0,0 -0.210484,-4.34339 -0.210484,-7.23767 0,-1.1532 0.06645,-2.02187 0.1329,-2.30257 0.287703,-0.87247 2.123788,-2.46567 3.119421,-3.04227 0.641855,-0.36037 1.272196,-0.50831 1.836463,-0.50831 0.707929,0 1.349784,0.29209 1.770011,0.78903 0.70793,0.80417 1.139295,2.03702 1.139295,3.40263 0,1.3011 -0.353777,2.82603 -1.205746,4.34338 -0.918043,1.74114 -2.975757,4.05508 -5.099544,5.42447 -0.276566,0.14795 -0.497817,0.21622 -0.707935,0.21622 -0.630712,0 -0.774381,-0.72452 -0.774381,-1.0849 m -2.47794,6.4411 c 0.210118,0.29588 0.420231,0.36417 0.630344,0.36417 0.221252,0 0.431366,-0.14795 0.431366,-0.14795 2.124164,-1.23283 3.816588,-3.17882 5.586601,-4.40786 6.305295,-4.48753 8.495905,-8.89918 8.495905,-12.23353 0,-4.12336 -3.108659,-6.7256 -6.372117,-6.93803 -0.486678,0 -0.984494,0.0682 -1.48231,0.21243 -0.77438,0.21622 -1.625973,0.50831 -2.411491,1.01662 -0.420228,0.36416 -1.194608,1.00902 -1.548761,1.00902 -0.143663,0 -0.221251,0 -0.353781,-0.0682 -0.497816,-0.21621 -0.785514,-0.72453 -0.785514,-1.23283 0.07722,-1.5932 0.497817,-18.95533 0.497817,-20.40439 0,-0.78902 -0.641855,-1.23284 -1.349785,-1.23284 -0.984494,0 -2.123789,0.72453 -2.190238,2.02565 0,0 0.287702,41.31328 0.851964,42.03782 m 2.47794,337.19407 c 0,0 -0.210484,-4.34335 -0.210484,-7.2377 0,-1.15317 0.06645,-2.02183 0.1329,-2.30254 0.287703,-0.87246 2.123788,-2.46565 3.119421,-3.04228 0.641855,-0.36035 1.272196,-0.50828 1.836463,-0.50828 0.707929,0 1.349784,0.29208 1.770011,0.78898 0.70793,0.8042 1.139295,2.03704 1.139295,3.40268 0,1.3011 -0.353777,2.82603 -1.205746,4.34334 -0.918043,1.74118 -2.975757,4.0551 -5.099544,5.42452 -0.276566,0.14793 -0.497817,0.21618 -0.707935,0.21618 -0.630712,0 -0.774381,-0.72452 -0.774381,-1.0849 m -2.47794,6.44112 c 0.210118,0.29587 0.420231,0.36417 0.630344,0.36417 0.221252,0 0.431366,-0.14793 0.431366,-0.14793 2.124164,-1.23286 3.816588,-3.17885 5.586601,-4.40791 6.305295,-4.48748 8.495905,-8.89919 8.495905,-12.2335 0,-4.12336 -3.108659,-6.72562 -6.372117,-6.93802 -0.486678,0 -0.984494,0.0683 -1.48231,0.2124 -0.77438,0.21624 -1.625973,0.50833 -2.411491,1.0166 -0.420228,0.36418 -1.194608,1.00908 -1.548761,1.00908 -0.143663,0 -0.221251,0 -0.353781,-0.0683 -0.497816,-0.2162 -0.785514,-0.72452 -0.785514,-1.23286 0.07722,-1.59318 0.497817,-18.95532 0.497817,-20.40437 0,-0.78898 -0.641855,-1.23285 -1.349785,-1.23285 -0.984494,0 -2.123789,0.72452 -2.190238,2.02568 0,0 0.287702,41.31329 0.851964,42.03782" style="stroke-width:.37526"/>
	<path class="Hook" d="m 253.13465,82.987733 c 0,0 1.8476,-6.872779 1.8476,-12.513481 0,-9.042953 -3.68407,-17.577599 -8.14176,-24.811882 -3.6176,-5.719982 -6.59337,-11.936893 -7.72153,-18.888953 -0.21048,-1.152797 -0.77438,-1.593584 -2.12417,-1.593584 -0.42022,0 -0.70792,0.226084 -0.70792,1.084897 v 17.294991 c 4.66818,0.870571 11.39408,10.704813 13.94961,16.854203 1.0617,2.464154 1.69243,6.590174 1.69243,10.851619 0,3.255446 -0.48669,6.658077 -1.69243,9.913523 -0.14403,0.440785 -0.21011,0.802673 -0.21011,1.085277 0,1.164175 0.70792,1.808661 1.12815,2.102267 0.42059,0.293985 1.62636,-0.146801 1.98013,-1.378877 M 354.03123,59.549042 c 0.99488,3.040744 1.49234,6.657698 1.49234,9.913144 0,4.261819 -1.77817,10.343311 -2.83989,12.796084 -2.61343,6.081488 -6.15123,11.936892 -15.64352,15.203719 V 114.463 c 0,0.8592 0.35267,1.08528 0.77588,1.08528 1.34754,0 1.91181,-0.4408 2.05659,-1.59397 1.20649,-6.87278 6.43708,-13.16897 10.05654,-18.888574 4.45844,-7.155383 8.78324,-15.768926 8.78324,-24.81188 0,-5.640701 -1.41809,-10.784096 -1.9935,-13.101451 -0.56425,-2.305972 -3.74939,-0.72339 -2.68768,2.396637 m 353.92435,23.438691 c 0,0 1.84869,-6.872779 1.84869,-12.513481 0,-9.042953 -3.68259,-17.577599 -8.14102,-24.811882 -3.61946,-5.719982 -6.59296,-11.936893 -7.72153,-18.888953 -0.21158,-1.152797 -0.77584,-1.593584 -2.12341,-1.593584 -0.42319,0 -0.70904,0.226084 -0.70904,1.084897 v 17.294991 c 4.67005,0.870571 11.39295,10.704813 13.95073,16.854203 1.06168,2.464154 1.69278,6.590174 1.69278,10.851619 0,3.255446 -0.48633,6.658077 -1.69278,9.913523 -0.14478,0.440785 -0.21163,0.802673 -0.21163,1.085277 0,1.164175 0.70905,1.808661 1.12852,2.102267 0.41949,0.293985 1.62599,-0.146801 1.97869,-1.378877 M 253.13465,426.62216 c 0,0 1.8476,-6.86976 1.8476,-12.51045 0,-9.04334 -3.68407,-17.57835 -8.14176,-24.81226 -3.6176,-5.72036 -6.59337,-11.93765 -7.72153,-18.89085 -0.21048,-1.15317 -0.77438,-1.5932 -2.12417,-1.5932 -0.42022,0 -0.70792,0.2276 -0.70792,1.08488 v 17.29765 c 4.66818,0.86868 11.39408,10.70481 13.94961,16.85382 1.0617,2.46188 1.69243,6.58904 1.69243,10.84897 0,3.25847 -0.48669,6.65732 -1.69243,9.91579 -0.14403,0.44003 -0.21011,0.80041 -0.21011,1.08491 0,1.16454 0.70792,1.80942 1.12815,2.1015 0.42059,0.29588 1.62636,-0.14794 1.98013,-1.38077 m 100.89658,-23.43528 c 0.99488,3.03847 1.49234,6.65731 1.49234,9.91201 0,4.25993 -1.77817,10.34445 -2.83989,12.79494 -2.61343,6.08453 -6.15123,11.93765 -15.64352,15.20372 v 17.00177 c 0,0.86109 0.35267,1.08489 0.77588,1.08489 1.34754,0 1.91181,-0.44002 2.05659,-1.5932 1.20649,-6.87354 6.43708,-13.17049 10.05654,-18.88706 4.45844,-7.15803 8.78324,-15.76892 8.78324,-24.81226 0,-5.6407 -1.41809,-10.78447 -1.9935,-13.1022 -0.56425,-2.30636 -3.74939,-0.72453 -2.68768,2.39739 m 353.92435,23.43528 c 0,0 1.84869,-6.86975 1.84869,-12.51045 0,-9.04333 -3.68259,-17.57835 -8.14102,-24.81226 -3.61946,-5.72036 -6.59296,-11.93765 -7.72153,-18.89085 -0.21158,-1.15317 -0.77584,-1.5932 -2.12341,-1.5932 -0.42319,0 -0.70904,0.2276 -0.70904,1.08489 v 17.29765 c 4.67005,0.86868 11.39295,10.70481 13.95073,16.85382 1.06168,2.46188 1.69278,6.58904 1.69278,10.84897 0,3.25847 -0.48633,6.65732 -1.69278,9.91579 -0.14478,0.44003 -0.21163,0.80041 -0.21163,1.08491 0,1.16454 0.70905,1.80942 1.12852,2.1015 0.41949,0.29588 1.62599,-0.14794 1.97869,-1.38077 M 232.92244,746.82583 c 0.99563,3.0385 1.49345,6.65732 1.49345,9.91201 0,4.25996 -1.78115,10.34448 -2.84324,12.79497 -2.61046,6.08452 -6.15049,11.93764 -15.64202,15.20369 v 17.00181 c 0,0.86108 0.35415,1.08486 0.77438,1.08486 1.34941,0 1.91367,-0.44002 2.05771,-1.59319 1.20575,-6.87356 6.43819,-13.17048 10.05543,-18.88708 4.45807,-7.158 8.7836,-15.7689 8.7836,-24.81223 0,-5.64071 -1.41623,-10.78447 -1.99124,-13.10222 -0.56428,-2.30635 -3.75015,-0.72453 -2.68807,2.39739 m 384.48337,9.04333 c 0.99487,3.03849 1.49233,6.65731 1.49233,9.91201 0,4.25991 -1.77819,10.34448 -2.83985,12.79497 -2.61346,6.08452 -6.15127,11.93762 -15.64356,15.20369 v 17.0018 c 0,0.86109 0.35267,1.08487 0.77588,1.08487 1.34756,0 1.91182,-0.44003 2.05661,-1.5932 1.20649,-6.87355 6.43705,-13.17047 10.05655,-18.88708 4.45844,-7.158 8.78322,-15.7689 8.78322,-24.81223 0,-5.64071 -1.41808,-10.78446 -1.99347,-13.10223 -0.56426,-2.30633 -3.7494,-0.72452 -2.68771,2.3974" style="stroke-width:.37526"/>
	<path class="NoteDot" d="m 176.17218,88.486942 c 0,-2.023369 -1.55951,-3.617333 -3.53964,-3.617333 -1.98013,0 -3.54003,1.593964 -3.54003,3.617333 0,2.023369 1.5599,3.617333 3.54003,3.617333 1.98013,0 3.53964,-1.593964 3.53964,-3.617333 M 298.09174,52.314756 c 0,-2.023369 -1.55951,-3.617331 -3.53963,-3.617331 -1.98013,0 -3.54004,1.593962 -3.54004,3.617331 0,2.023368 1.55991,3.617333 3.54004,3.617333 1.98012,0 3.53963,-1.593965 3.53963,-3.617333 m 341.71763,36.172186 c 0,-2.023369 -1.55913,-3.617333 -3.53777,-3.617333 -1.98238,0 -3.54152,1.593964 -3.54152,3.617333 0,2.023369 1.55914,3.617333 3.54152,3.617333 1.97864,0 3.53777,-1.593964 3.53777,-3.617333 M 176.17218,432.1263 c 0,-2.02186 -1.55951,-3.61885 -3.53964,-3.61885 -1.98013,0 -3.54003,1.59699 -3.54003,3.61885 0,2.02184 1.5599,3.61885 3.54003,3.61885 1.98013,0 3.53964,-1.597 3.53964,-3.61885 m 121.91956,-36.17332 c 0,-2.02186 -1.55951,-3.61885 -3.53963,-3.61885 -1.98013,0 -3.54004,1.59699 -3.54004,3.61885 0,2.02184 1.55991,3.61885 3.54004,3.61885 1.98012,0 3.53963,-1.597 3.53963,-3.61885 m 341.71763,36.17332 c 0,-2.02186 -1.55913,-3.61885 -3.53777,-3.61885 -1.98238,0 -3.54152,1.59699 -3.54152,3.61885 0,2.02184 1.55914,3.61885 3.54152,3.61885 1.97864,0 3.53777,-1.597 3.53777,-3.61885 M 176.17218,739.58814 c 0,-2.02183 -1.55951,-3.61887 -3.53964,-3.61887 -1.98013,0 -3.54003,1.59704 -3.54003,3.61887 0,2.02183 1.5599,3.61887 3.54003,3.61887 1.98013,0 3.53964,-1.59704 3.53964,-3.61887 m 385.18945,0 c 0,-2.02183 -1.55915,-3.61887 -3.53777,-3.61887 -1.98237,0 -3.54152,1.59704 -3.54152,3.61887 0,2.02183 1.55915,3.61887 3.54152,3.61887 1.97862,0 3.53777,-1.59704 3.53777,-3.61887" style="stroke-width:.37526"/>
</svg>
